%TF.GenerationSoftware,KiCad,Pcbnew,7.0.5-1.fc38*%
%TF.CreationDate,2023-06-18T19:22:27-04:00*%
%TF.ProjectId,radome_dish_controller,7261646f-6d65-45f6-9469-73685f636f6e,rev?*%
%TF.SameCoordinates,Original*%
%TF.FileFunction,Copper,L4,Bot*%
%TF.FilePolarity,Positive*%
%FSLAX46Y46*%
G04 Gerber Fmt 4.6, Leading zero omitted, Abs format (unit mm)*
G04 Created by KiCad (PCBNEW 7.0.5-1.fc38) date 2023-06-18 19:22:27*
%MOMM*%
%LPD*%
G01*
G04 APERTURE LIST*
G04 Aperture macros list*
%AMRoundRect*
0 Rectangle with rounded corners*
0 $1 Rounding radius*
0 $2 $3 $4 $5 $6 $7 $8 $9 X,Y pos of 4 corners*
0 Add a 4 corners polygon primitive as box body*
4,1,4,$2,$3,$4,$5,$6,$7,$8,$9,$2,$3,0*
0 Add four circle primitives for the rounded corners*
1,1,$1+$1,$2,$3*
1,1,$1+$1,$4,$5*
1,1,$1+$1,$6,$7*
1,1,$1+$1,$8,$9*
0 Add four rect primitives between the rounded corners*
20,1,$1+$1,$2,$3,$4,$5,0*
20,1,$1+$1,$4,$5,$6,$7,0*
20,1,$1+$1,$6,$7,$8,$9,0*
20,1,$1+$1,$8,$9,$2,$3,0*%
G04 Aperture macros list end*
%TA.AperFunction,ComponentPad*%
%ADD10R,1.520000X1.520000*%
%TD*%
%TA.AperFunction,ComponentPad*%
%ADD11C,1.520000*%
%TD*%
%TA.AperFunction,ComponentPad*%
%ADD12C,2.000000*%
%TD*%
%TA.AperFunction,ComponentPad*%
%ADD13R,2.400000X2.400000*%
%TD*%
%TA.AperFunction,ComponentPad*%
%ADD14C,2.400000*%
%TD*%
%TA.AperFunction,SMDPad,CuDef*%
%ADD15RoundRect,0.100000X0.100000X-0.637500X0.100000X0.637500X-0.100000X0.637500X-0.100000X-0.637500X0*%
%TD*%
%TA.AperFunction,SMDPad,CuDef*%
%ADD16C,2.000000*%
%TD*%
%TA.AperFunction,ViaPad*%
%ADD17C,0.600000*%
%TD*%
%TA.AperFunction,Conductor*%
%ADD18C,0.200000*%
%TD*%
G04 APERTURE END LIST*
%TA.AperFunction,EtchedComponent*%
%TO.C,NT101*%
G36*
X126121320Y-34292893D02*
G01*
X123292893Y-37121320D01*
X121878680Y-35707107D01*
X124707107Y-32878680D01*
X126121320Y-34292893D01*
G37*
%TD.AperFunction*%
%TD*%
D10*
%TO.P,J106,1,Pin_1*%
%TO.N,+5V*%
X111700000Y-50000000D03*
D11*
%TO.P,J106,2,Pin_2*%
%TO.N,/ENC.MISO-*%
X111700000Y-53000000D03*
%TO.P,J106,3,Pin_3*%
%TO.N,/ENC.SCK-*%
X111700000Y-56000000D03*
%TO.P,J106,4,Pin_4*%
%TO.N,GND*%
X108700000Y-50000000D03*
%TO.P,J106,5,Pin_5*%
%TO.N,/ENC.MISO+*%
X108700000Y-53000000D03*
%TO.P,J106,6,Pin_6*%
%TO.N,/ENC.SCK+*%
X108700000Y-56000000D03*
%TD*%
D10*
%TO.P,J107,1,Pin_1*%
%TO.N,/Microcontroller/CAN.DATA-*%
X108735000Y-64500000D03*
D11*
%TO.P,J107,2,Pin_2*%
%TO.N,/Microcontroller/CAN.DATA+*%
X108735000Y-67500000D03*
%TD*%
D12*
%TO.P,U106,1,VI*%
%TO.N,VBUS*%
X125172500Y-30540000D03*
%TO.P,U106,2,GND*%
%TO.N,GNDPWR*%
X125172500Y-28000000D03*
%TO.P,U106,3,VO*%
%TO.N,+12V*%
X125172500Y-25460000D03*
%TD*%
D13*
%TO.P,C101,1*%
%TO.N,Net-(C101-Pad1)*%
X165000000Y-37000000D03*
D14*
%TO.P,C101,2*%
%TO.N,GNDPWR*%
X170000000Y-37000000D03*
%TD*%
D10*
%TO.P,J108,1,Pin_1*%
%TO.N,/Microcontroller/CAN.DATA-*%
X100500000Y-64500000D03*
D11*
%TO.P,J108,2,Pin_2*%
%TO.N,/Microcontroller/CAN.DATA+*%
X100500000Y-67500000D03*
%TD*%
D13*
%TO.P,C104,1*%
%TO.N,+48V*%
X136000000Y-29500000D03*
D14*
%TO.P,C104,2*%
%TO.N,GNDPWR*%
X136000000Y-34500000D03*
%TD*%
D15*
%TO.P,U101,1,~{CS}*%
%TO.N,/Microcontroller/SPI.~{CS}*%
X137950000Y-58862500D03*
%TO.P,U101,2,CLK*%
%TO.N,/Microcontroller/SPI.SCK*%
X137300000Y-58862500D03*
%TO.P,U101,3,MISO*%
%TO.N,/Microcontroller/SPI.MISO*%
X136650000Y-58862500D03*
%TO.P,U101,4,MOSI*%
%TO.N,/Microcontroller/SPI.MOSI*%
X136000000Y-58862500D03*
%TO.P,U101,5,TST*%
%TO.N,GND*%
X135350000Y-58862500D03*
%TO.P,U101,6,B*%
%TO.N,unconnected-(U101-B-Pad6)*%
X134700000Y-58862500D03*
%TO.P,U101,7,A*%
%TO.N,unconnected-(U101-A-Pad7)*%
X134050000Y-58862500D03*
%TO.P,U101,8,W/PWM*%
%TO.N,unconnected-(U101-W{slash}PWM-Pad8)*%
X134050000Y-53137500D03*
%TO.P,U101,9,V*%
%TO.N,unconnected-(U101-V-Pad9)*%
X134700000Y-53137500D03*
%TO.P,U101,10,U*%
%TO.N,unconnected-(U101-U-Pad10)*%
X135350000Y-53137500D03*
%TO.P,U101,11,VDD*%
%TO.N,VDD*%
X136000000Y-53137500D03*
%TO.P,U101,12,VDD3V3*%
X136650000Y-53137500D03*
%TO.P,U101,13,GND*%
%TO.N,GND*%
X137300000Y-53137500D03*
%TO.P,U101,14,I/PWM*%
%TO.N,unconnected-(U101-I{slash}PWM-Pad14)*%
X137950000Y-53137500D03*
%TD*%
D16*
%TO.P,NT101,1,1*%
%TO.N,GNDPWR*%
X125414214Y-33585786D03*
%TO.P,NT101,2,2*%
%TO.N,GND*%
X122585786Y-36414214D03*
%TD*%
D17*
%TO.N,GND*%
X131500000Y-49000000D03*
X123025000Y-48000000D03*
X132500000Y-78500000D03*
X135100000Y-60200000D03*
X128200000Y-68700000D03*
X123275000Y-82725000D03*
X119025000Y-60405000D03*
X116025000Y-46500000D03*
X131000000Y-67000000D03*
X121000000Y-77500000D03*
X119025000Y-52500000D03*
X127600000Y-57000000D03*
X141500000Y-66225000D03*
X117500000Y-82000000D03*
X141500000Y-59637500D03*
X124000000Y-74500000D03*
X127725000Y-44500000D03*
X140000000Y-53725000D03*
X124000000Y-77500000D03*
X120700000Y-65775000D03*
X119500000Y-69000000D03*
X129000000Y-74000000D03*
X123025000Y-49000000D03*
X124500000Y-43500000D03*
X122500000Y-76000000D03*
X141500000Y-53725000D03*
X140000000Y-41235000D03*
X106500000Y-39500000D03*
X121000000Y-74500000D03*
X141500000Y-72137500D03*
X138500000Y-41225000D03*
X141500000Y-47137500D03*
X115000000Y-69000000D03*
X108880000Y-43995000D03*
X127500000Y-77500000D03*
X107600000Y-76230000D03*
X107600000Y-77500000D03*
X142500000Y-79500000D03*
X132200000Y-74200000D03*
X115725000Y-79000000D03*
X129000000Y-77500000D03*
X140000000Y-66225000D03*
X131500000Y-61500000D03*
X116025000Y-54905000D03*
X137300000Y-52100000D03*
X134737258Y-82500000D03*
X116500000Y-43500000D03*
%TO.N,VDD*%
X124500000Y-39500000D03*
X120700000Y-64225000D03*
X139700000Y-69900000D03*
X138500000Y-43000000D03*
X136000000Y-52100000D03*
X139000000Y-45000000D03*
X119000000Y-36350000D03*
X107600000Y-74960000D03*
X123025000Y-56905000D03*
X139700000Y-57400000D03*
X138500000Y-55500000D03*
X123025000Y-55905000D03*
X137942819Y-68044502D03*
%TO.N,/Microcontroller/NRST*%
X121725000Y-82725000D03*
X111450000Y-80040000D03*
%TO.N,/Motor Drive/INV_OUT.A*%
X158500000Y-53000000D03*
X140000000Y-50500000D03*
%TO.N,/Motor Drive/INV_OUT.B*%
X140000000Y-63000000D03*
X158500000Y-65500000D03*
%TO.N,/Motor Drive/INV_OUT.C*%
X140000000Y-75500000D03*
X158500000Y-78000000D03*
%TO.N,/Motor Drive/VREF*%
X136750000Y-82250000D03*
X141500000Y-69862500D03*
X141500000Y-44862500D03*
X141500000Y-57362500D03*
%TO.N,/Microcontroller/SWDIO*%
X117500000Y-72460000D03*
X111450000Y-74960000D03*
%TO.N,/Microcontroller/SWCLK*%
X118150000Y-73150000D03*
X111450000Y-76230000D03*
%TO.N,/Motor Drive/IA+*%
X143000000Y-46500000D03*
X164500000Y-47230000D03*
%TO.N,GNDPWR*%
X145000000Y-78500000D03*
X163000000Y-26000000D03*
X159500000Y-45500000D03*
X158000000Y-58500000D03*
X159500000Y-70500000D03*
X156500000Y-46500000D03*
X161500000Y-58000000D03*
X157500000Y-60000000D03*
X158000000Y-60500000D03*
X161500000Y-26000000D03*
X157000000Y-72000000D03*
X157500000Y-58000000D03*
X145000000Y-55500000D03*
X162500000Y-44500000D03*
X163000000Y-45000000D03*
X156500000Y-44500000D03*
X160000000Y-46000000D03*
X157500000Y-57000000D03*
X157000000Y-23000000D03*
X156000000Y-47000000D03*
X160000000Y-23000000D03*
X159000000Y-73000000D03*
X145000000Y-58500000D03*
X158000000Y-46000000D03*
X162500000Y-45500000D03*
X156500000Y-73500000D03*
X145000000Y-69000000D03*
X157000000Y-24500000D03*
X158500000Y-61000000D03*
X145000000Y-76500000D03*
X162000000Y-46000000D03*
X156500000Y-48500000D03*
X163500000Y-45500000D03*
X157000000Y-58500000D03*
X159000000Y-60500000D03*
X145000000Y-56500000D03*
X158000000Y-59500000D03*
X159000000Y-46000000D03*
X145000000Y-71000000D03*
X159000000Y-57500000D03*
X157000000Y-60500000D03*
X158500000Y-70500000D03*
X157500000Y-72500000D03*
X157000000Y-48000000D03*
X162000000Y-71000000D03*
X157000000Y-57500000D03*
X157500000Y-69500000D03*
X145000000Y-51500000D03*
X163750000Y-23750000D03*
X159000000Y-48000000D03*
X166000000Y-26000000D03*
X158500000Y-58000000D03*
X157000000Y-71000000D03*
X157000000Y-73000000D03*
X156500000Y-70500000D03*
X160000000Y-45000000D03*
X162250000Y-23750000D03*
X162000000Y-58500000D03*
X164500000Y-26000000D03*
X163750000Y-25250000D03*
X161500000Y-44500000D03*
X162999999Y-70999999D03*
X157500000Y-45500000D03*
X145000000Y-77500000D03*
X145000000Y-65000000D03*
X159500000Y-58000000D03*
X157500000Y-46500000D03*
X162500000Y-70500000D03*
X145000000Y-80500000D03*
X160000000Y-71000000D03*
X159000000Y-45000000D03*
X145000000Y-53500000D03*
X161500000Y-24500000D03*
X159000000Y-58500000D03*
X160750000Y-23750000D03*
X145000000Y-54500000D03*
X158500000Y-48500000D03*
X158500000Y-57000000D03*
X165250000Y-23750000D03*
X156000000Y-71000000D03*
X164500000Y-24500000D03*
X159500000Y-46500000D03*
X159500000Y-59000000D03*
X157500000Y-59000000D03*
X158500000Y-59000000D03*
X158500000Y-47500000D03*
X157500000Y-44500000D03*
X145000000Y-46500000D03*
X157000000Y-70000000D03*
X130500000Y-26000000D03*
X166000000Y-24500000D03*
X157000000Y-46000000D03*
X160992792Y-58482310D03*
X166000000Y-23000000D03*
X161000000Y-46000000D03*
X157750000Y-23750000D03*
X145000000Y-68000000D03*
X159000000Y-59500000D03*
X156500000Y-71500000D03*
X156000000Y-70000000D03*
X158000000Y-71000000D03*
X159000000Y-70000000D03*
X163000000Y-46000000D03*
X160500000Y-58000000D03*
X158500000Y-71500000D03*
X156500000Y-69500000D03*
X157500000Y-48500000D03*
X158000000Y-73000000D03*
X156000000Y-58500000D03*
X156000000Y-59500000D03*
X159500000Y-71500000D03*
X156000000Y-48000000D03*
X163000000Y-23000000D03*
X160499217Y-45512728D03*
X158500000Y-73500000D03*
X159000000Y-47000000D03*
X158500000Y-24500000D03*
X145000000Y-79500000D03*
X156500000Y-57000000D03*
X156000000Y-57500000D03*
X159000000Y-71000000D03*
X156000000Y-45000000D03*
X161000000Y-45000000D03*
X145000000Y-44500000D03*
X156500000Y-45500000D03*
X161500000Y-23000000D03*
X145000000Y-52500000D03*
X159250000Y-23750000D03*
X145000000Y-45500000D03*
X157000000Y-45000000D03*
X159500000Y-44500000D03*
X163500000Y-44500000D03*
X157500000Y-71500000D03*
X158500000Y-44500000D03*
X156000000Y-46000000D03*
X157000000Y-26000000D03*
X145000000Y-57500000D03*
X156500000Y-60000000D03*
X156000000Y-73000000D03*
X145000000Y-66000000D03*
X128000000Y-26000000D03*
X158000000Y-72000000D03*
X145000000Y-47500000D03*
X145000000Y-64000000D03*
X162000000Y-45000000D03*
X163000000Y-58500000D03*
X158500000Y-46500000D03*
X157500000Y-47500000D03*
X158500000Y-45500000D03*
X158500000Y-23000000D03*
X145000000Y-67000000D03*
X145000000Y-70000000D03*
X156500000Y-58000000D03*
X156500000Y-47500000D03*
X160500000Y-44500000D03*
X156000000Y-60500000D03*
X156500000Y-59000000D03*
X158000000Y-47000000D03*
X157000000Y-59500000D03*
X161500000Y-70500000D03*
X157500000Y-61000000D03*
X160500000Y-70500000D03*
X156500000Y-61000000D03*
X157000000Y-47000000D03*
X156000000Y-72000000D03*
X158000000Y-57500000D03*
X163000000Y-24500000D03*
X145000000Y-72000000D03*
X157500000Y-70500000D03*
X162500000Y-58000000D03*
X158500000Y-60000000D03*
X165250000Y-25250000D03*
X156500000Y-72500000D03*
X145000000Y-59500000D03*
X158000000Y-70000000D03*
X161500000Y-45500000D03*
X157500000Y-73500000D03*
X160750000Y-25250000D03*
X160000000Y-24500000D03*
X159000000Y-72000000D03*
X145000000Y-60500000D03*
X158500000Y-69500000D03*
X158000000Y-48000000D03*
X157750000Y-25250000D03*
X164500000Y-23000000D03*
X160000000Y-26000000D03*
X158000000Y-45000000D03*
X159989797Y-58455915D03*
X161000000Y-71000000D03*
X158500000Y-72500000D03*
X158500000Y-26000000D03*
X162250000Y-25250000D03*
X159250000Y-25250000D03*
%TO.N,/Motor Drive/IB+*%
X143000000Y-59000000D03*
X164500000Y-59730000D03*
%TO.N,/Motor Drive/IC+*%
X164500000Y-72230000D03*
X143000000Y-71500000D03*
%TO.N,Net-(Q301-G)*%
X142825000Y-49500000D03*
X158500000Y-51595000D03*
%TO.N,VBUS*%
X155000000Y-66500000D03*
X156000000Y-67500000D03*
X155000000Y-54000000D03*
X152500000Y-68000000D03*
X156500000Y-78500000D03*
X154500000Y-54500000D03*
X156000000Y-64500000D03*
X153500000Y-52500000D03*
X154000000Y-52000000D03*
X154500000Y-53500000D03*
X155500000Y-53500000D03*
X155000000Y-80000000D03*
X155500000Y-64000000D03*
X156500000Y-79500000D03*
X155000000Y-78000000D03*
X155500000Y-80500000D03*
X156500000Y-53500000D03*
X153000000Y-78000000D03*
X156000000Y-79000000D03*
X154000000Y-80000000D03*
X153000000Y-66500000D03*
X154000000Y-79000000D03*
X155000000Y-52000000D03*
X152500000Y-54500000D03*
X154500000Y-55500000D03*
X152500000Y-78500000D03*
X154500000Y-76500000D03*
X154500000Y-51500000D03*
X156500000Y-67000000D03*
X155500000Y-78500000D03*
X154500000Y-64000000D03*
X152500000Y-64000000D03*
X156500000Y-76500000D03*
X154500000Y-68000000D03*
X155000000Y-77000000D03*
X155500000Y-54500000D03*
X154500000Y-65000000D03*
X156000000Y-65500000D03*
X155000000Y-55000000D03*
X155500000Y-52500000D03*
X154500000Y-80500000D03*
X155000000Y-65500000D03*
X154000000Y-78000000D03*
X153000000Y-79000000D03*
X153000000Y-65500000D03*
X154000000Y-64500000D03*
X154500000Y-67000000D03*
X155500000Y-51500000D03*
X155500000Y-55500000D03*
X155500000Y-65000000D03*
X155500000Y-67000000D03*
X153500000Y-54500000D03*
X155500000Y-79500000D03*
X154500000Y-66000000D03*
X153500000Y-65000000D03*
X153500000Y-64000000D03*
X154500000Y-79500000D03*
X153500000Y-55500000D03*
X156000000Y-77000000D03*
X152500000Y-66000000D03*
X154000000Y-77000000D03*
X153500000Y-53500000D03*
X156500000Y-68000000D03*
X156500000Y-80500000D03*
X153000000Y-52000000D03*
X156000000Y-52000000D03*
X153000000Y-53000000D03*
X153000000Y-55000000D03*
X154000000Y-53000000D03*
X154500000Y-77500000D03*
X156000000Y-55000000D03*
X153500000Y-67000000D03*
X153500000Y-79500000D03*
X155500000Y-77500000D03*
X156500000Y-77500000D03*
X152500000Y-76500000D03*
X156500000Y-65000000D03*
X154000000Y-55000000D03*
X153500000Y-76500000D03*
X152500000Y-51500000D03*
X156000000Y-53000000D03*
X156000000Y-66500000D03*
X154000000Y-65500000D03*
X152500000Y-52500000D03*
X154000000Y-66500000D03*
X152500000Y-55500000D03*
X155000000Y-64500000D03*
X153000000Y-64500000D03*
X156500000Y-54500000D03*
X153000000Y-67500000D03*
X153500000Y-77500000D03*
X152500000Y-79500000D03*
X152500000Y-77500000D03*
X156500000Y-64000000D03*
X155500000Y-66000000D03*
X156000000Y-78000000D03*
X154500000Y-78500000D03*
X152500000Y-67000000D03*
X152500000Y-53500000D03*
X155500000Y-68000000D03*
X153500000Y-80500000D03*
X152500000Y-80500000D03*
X153000000Y-54000000D03*
X156500000Y-51500000D03*
X154000000Y-67500000D03*
X152500000Y-65000000D03*
X156000000Y-80000000D03*
X153500000Y-66000000D03*
X153500000Y-51500000D03*
X156500000Y-52500000D03*
X154000000Y-54000000D03*
X155000000Y-79000000D03*
X155000000Y-67500000D03*
X155000000Y-53000000D03*
X153000000Y-80000000D03*
X156500000Y-55500000D03*
X153500000Y-78500000D03*
X156000000Y-54000000D03*
X153000000Y-77000000D03*
X153500000Y-68000000D03*
X156500000Y-66000000D03*
X155500000Y-76500000D03*
X154500000Y-52500000D03*
%TO.N,Net-(Q302-G)*%
X159500000Y-51500000D03*
X142825000Y-51000000D03*
%TO.N,Net-(Q303-G)*%
X142825000Y-62000000D03*
X158500000Y-64095000D03*
%TO.N,Net-(Q304-G)*%
X142825000Y-63500000D03*
X159500000Y-64000000D03*
%TO.N,Net-(Q305-G)*%
X158500000Y-76595000D03*
X142825000Y-74500000D03*
%TO.N,Net-(Q306-G)*%
X142825000Y-76000000D03*
X159500000Y-76500000D03*
%TO.N,/Microcontroller/SENSE.C*%
X122800000Y-81400000D03*
X140000000Y-73000000D03*
%TO.N,/Microcontroller/SENSE.B*%
X139843750Y-60343750D03*
X123500000Y-80900000D03*
%TO.N,/Microcontroller/SENSE.A*%
X124400000Y-80577403D03*
X140093750Y-47593750D03*
%TO.N,/Microcontroller/SPI.MOSI*%
X127400000Y-78300000D03*
%TO.N,/Microcontroller/DRIVE.C+*%
X130000000Y-70700000D03*
X125500000Y-70300000D03*
%TO.N,/Microcontroller/DRIVE.B+*%
X131500000Y-59100000D03*
X124800000Y-69900000D03*
%TO.N,/Microcontroller/DRIVE.A+*%
X124500000Y-69100000D03*
X131800000Y-46600000D03*
%TO.N,/Microcontroller/DRIVE.C-*%
X133300000Y-72800000D03*
X122900000Y-71300000D03*
%TO.N,/Microcontroller/DRIVE.B-*%
X122700000Y-70500000D03*
X133500000Y-60400000D03*
%TO.N,/Microcontroller/DRIVE.A-*%
X133400000Y-47900000D03*
X121917080Y-70334987D03*
%TO.N,/Microcontroller/SPI.~{CS}*%
X127950000Y-80150000D03*
%TO.N,/Microcontroller/SPI.SCK*%
X127200000Y-79900000D03*
%TO.N,/Microcontroller/SPI.MISO*%
X127900000Y-78900000D03*
%TO.N,/Motor Drive/IA-*%
X155000000Y-49339000D03*
X142450000Y-44862500D03*
%TO.N,/Motor Drive/IB-*%
X142450000Y-57362500D03*
X155000000Y-61899109D03*
%TO.N,/Motor Drive/IC-*%
X142450000Y-69862500D03*
X155000000Y-74409898D03*
%TO.N,+5V*%
X116500000Y-52500000D03*
X116500000Y-60500000D03*
%TO.N,/Microcontroller/ISOSPI.SCK*%
X117000000Y-71000000D03*
X121975000Y-54595000D03*
%TO.N,/Microcontroller/ISOSPI.MISO*%
X116400000Y-70500000D03*
X121975000Y-50405000D03*
%TD*%
D18*
%TO.N,GND*%
X135350000Y-58862500D02*
X135350000Y-59950000D01*
X135350000Y-59950000D02*
X135100000Y-60200000D01*
X137300000Y-53137500D02*
X137300000Y-52100000D01*
%TO.N,VDD*%
X136000000Y-53137500D02*
X136000000Y-52100000D01*
X136000000Y-53137500D02*
X136650000Y-53137500D01*
%TO.N,/Microcontroller/SPI.MOSI*%
X129600000Y-78300000D02*
X127400000Y-78300000D01*
X136000000Y-58862500D02*
X136000000Y-62112656D01*
X135519000Y-73593656D02*
X133112656Y-76000000D01*
X133112656Y-76000000D02*
X131900000Y-76000000D01*
X131900000Y-76000000D02*
X129600000Y-78300000D01*
X136000000Y-62112656D02*
X135519000Y-62593656D01*
X135519000Y-62593656D02*
X135519000Y-73593656D01*
%TO.N,/Microcontroller/SPI.~{CS}*%
X136500000Y-63000000D02*
X137950000Y-61550000D01*
X129137344Y-80150000D02*
X132287344Y-77000000D01*
X132287344Y-77000000D02*
X133500000Y-77000000D01*
X127950000Y-80150000D02*
X129137344Y-80150000D01*
X136500000Y-74000000D02*
X136500000Y-63000000D01*
X137950000Y-61550000D02*
X137950000Y-58862500D01*
X133500000Y-77000000D02*
X136500000Y-74000000D01*
%TO.N,/Microcontroller/SPI.SCK*%
X137300000Y-58862500D02*
X137300000Y-61737552D01*
X136173000Y-62864552D02*
X136173000Y-73864552D01*
X136173000Y-73864552D02*
X133364552Y-76673000D01*
X127620000Y-79480000D02*
X127200000Y-79900000D01*
X132151896Y-76673000D02*
X129344896Y-79480000D01*
X129344896Y-79480000D02*
X127620000Y-79480000D01*
X133364552Y-76673000D02*
X132151896Y-76673000D01*
X137300000Y-61737552D02*
X136173000Y-62864552D01*
%TO.N,/Microcontroller/SPI.MISO*%
X129735448Y-78627000D02*
X132016448Y-76346000D01*
X133229104Y-76346000D02*
X135846000Y-73729104D01*
X127900000Y-78900000D02*
X128173000Y-78627000D01*
X135846000Y-62729104D02*
X136650000Y-61925104D01*
X136650000Y-61925104D02*
X136650000Y-58862500D01*
X135846000Y-73729104D02*
X135846000Y-62729104D01*
X132016448Y-76346000D02*
X133229104Y-76346000D01*
X128173000Y-78627000D02*
X129735448Y-78627000D01*
%TD*%
%TA.AperFunction,Conductor*%
%TO.N,GNDPWR*%
G36*
X169033406Y-21518954D02*
G01*
X169114188Y-21572930D01*
X169168164Y-21653712D01*
X169187118Y-21749000D01*
X169168164Y-21844288D01*
X169114188Y-21925070D01*
X169073733Y-21957829D01*
X168880774Y-22083137D01*
X168587495Y-22320629D01*
X168320629Y-22587495D01*
X168083137Y-22880774D01*
X167877597Y-23197277D01*
X167706268Y-23533528D01*
X167706267Y-23533530D01*
X167571022Y-23885857D01*
X167473346Y-24250391D01*
X167414309Y-24623131D01*
X167394559Y-24999999D01*
X167414309Y-25376868D01*
X167427476Y-25459999D01*
X167473347Y-25749613D01*
X167571022Y-26114142D01*
X167706267Y-26466469D01*
X167706268Y-26466471D01*
X167877597Y-26802721D01*
X167972907Y-26949485D01*
X168083137Y-27119225D01*
X168320635Y-27412511D01*
X168587489Y-27679365D01*
X168880775Y-27916863D01*
X169051645Y-28027827D01*
X169197278Y-28122402D01*
X169533528Y-28293731D01*
X169533530Y-28293732D01*
X169533534Y-28293733D01*
X169533535Y-28293734D01*
X169885857Y-28428978D01*
X170250387Y-28526653D01*
X170623129Y-28585690D01*
X170905720Y-28600500D01*
X170905730Y-28600500D01*
X171094270Y-28600500D01*
X171094280Y-28600500D01*
X171376871Y-28585690D01*
X171712051Y-28532602D01*
X171809127Y-28536416D01*
X171897358Y-28577090D01*
X171963307Y-28648433D01*
X171996934Y-28739583D01*
X172000000Y-28778536D01*
X172000000Y-42251000D01*
X171981046Y-42346288D01*
X171927070Y-42427070D01*
X171846288Y-42481046D01*
X171751000Y-42500000D01*
X166500000Y-42500000D01*
X164500000Y-44500000D01*
X164500000Y-44500001D01*
X164500000Y-46205233D01*
X164481046Y-46300521D01*
X164427070Y-46381303D01*
X164346288Y-46435279D01*
X164333240Y-46440260D01*
X164320745Y-46444631D01*
X164320745Y-46444632D01*
X164150478Y-46504211D01*
X164150476Y-46504211D01*
X164150476Y-46504212D01*
X164150470Y-46504214D01*
X163997742Y-46600180D01*
X163870180Y-46727742D01*
X163774214Y-46880470D01*
X163774211Y-46880476D01*
X163774211Y-46880478D01*
X163745009Y-46963934D01*
X163714632Y-47050746D01*
X163714630Y-47050754D01*
X163694435Y-47229996D01*
X163694435Y-47230003D01*
X163714630Y-47409245D01*
X163714631Y-47409251D01*
X163714632Y-47409255D01*
X163774211Y-47579522D01*
X163774212Y-47579523D01*
X163774214Y-47579529D01*
X163870180Y-47732257D01*
X163870182Y-47732259D01*
X163870184Y-47732262D01*
X163997738Y-47859816D01*
X163997740Y-47859817D01*
X163997742Y-47859819D01*
X164150470Y-47955785D01*
X164150474Y-47955786D01*
X164150478Y-47955789D01*
X164320745Y-48015368D01*
X164320748Y-48015368D01*
X164333239Y-48019739D01*
X164416920Y-48069101D01*
X164475341Y-48146729D01*
X164499608Y-48240804D01*
X164500000Y-48254766D01*
X164500000Y-58705233D01*
X164481046Y-58800521D01*
X164427070Y-58881303D01*
X164346288Y-58935279D01*
X164333240Y-58940260D01*
X164320745Y-58944631D01*
X164320745Y-58944632D01*
X164150478Y-59004211D01*
X164150476Y-59004211D01*
X164150476Y-59004212D01*
X164150470Y-59004214D01*
X163997742Y-59100180D01*
X163870180Y-59227742D01*
X163774214Y-59380470D01*
X163774211Y-59380476D01*
X163774211Y-59380478D01*
X163718616Y-59539361D01*
X163714632Y-59550746D01*
X163714630Y-59550754D01*
X163694435Y-59729996D01*
X163694435Y-59730003D01*
X163714630Y-59909245D01*
X163714631Y-59909251D01*
X163714632Y-59909255D01*
X163774211Y-60079522D01*
X163774212Y-60079523D01*
X163774214Y-60079529D01*
X163870180Y-60232257D01*
X163870182Y-60232259D01*
X163870184Y-60232262D01*
X163997738Y-60359816D01*
X163997740Y-60359817D01*
X163997742Y-60359819D01*
X164150470Y-60455785D01*
X164150474Y-60455786D01*
X164150478Y-60455789D01*
X164320745Y-60515368D01*
X164320748Y-60515368D01*
X164333239Y-60519739D01*
X164416920Y-60569101D01*
X164475341Y-60646729D01*
X164499608Y-60740804D01*
X164500000Y-60754766D01*
X164500000Y-71205233D01*
X164481046Y-71300521D01*
X164427070Y-71381303D01*
X164346288Y-71435279D01*
X164333240Y-71440260D01*
X164320745Y-71444631D01*
X164320745Y-71444632D01*
X164150478Y-71504211D01*
X164150476Y-71504211D01*
X164150476Y-71504212D01*
X164150470Y-71504214D01*
X163997742Y-71600180D01*
X163870180Y-71727742D01*
X163774214Y-71880470D01*
X163774211Y-71880476D01*
X163774211Y-71880478D01*
X163723365Y-72025789D01*
X163714632Y-72050746D01*
X163714630Y-72050754D01*
X163694435Y-72229996D01*
X163694435Y-72230003D01*
X163714630Y-72409245D01*
X163714631Y-72409251D01*
X163714632Y-72409255D01*
X163774211Y-72579522D01*
X163774212Y-72579523D01*
X163774214Y-72579529D01*
X163870180Y-72732257D01*
X163870182Y-72732259D01*
X163870184Y-72732262D01*
X163997738Y-72859816D01*
X163997740Y-72859817D01*
X163997742Y-72859819D01*
X164150470Y-72955785D01*
X164150474Y-72955786D01*
X164150478Y-72955789D01*
X164320745Y-73015368D01*
X164320748Y-73015368D01*
X164333239Y-73019739D01*
X164416920Y-73069101D01*
X164475341Y-73146729D01*
X164499608Y-73240804D01*
X164500000Y-73254766D01*
X164500000Y-83751000D01*
X164481046Y-83846288D01*
X164427070Y-83927070D01*
X164346288Y-83981046D01*
X164251000Y-84000000D01*
X144749000Y-84000000D01*
X144653712Y-83981046D01*
X144572930Y-83927070D01*
X144518954Y-83846288D01*
X144500000Y-83751000D01*
X144500000Y-80500003D01*
X151694435Y-80500003D01*
X151714630Y-80679245D01*
X151714631Y-80679251D01*
X151714632Y-80679255D01*
X151774211Y-80849522D01*
X151774212Y-80849523D01*
X151774214Y-80849529D01*
X151870180Y-81002257D01*
X151870182Y-81002259D01*
X151870184Y-81002262D01*
X151997738Y-81129816D01*
X151997740Y-81129817D01*
X151997742Y-81129819D01*
X152150470Y-81225785D01*
X152150473Y-81225786D01*
X152150478Y-81225789D01*
X152320745Y-81285368D01*
X152320754Y-81285369D01*
X152499996Y-81305565D01*
X152500000Y-81305565D01*
X152500004Y-81305565D01*
X152639908Y-81289801D01*
X152679255Y-81285368D01*
X152849522Y-81225789D01*
X152849527Y-81225785D01*
X152849529Y-81225785D01*
X152867521Y-81214480D01*
X152958287Y-81179831D01*
X153055404Y-81182554D01*
X153132476Y-81214478D01*
X153150478Y-81225789D01*
X153150477Y-81225789D01*
X153242124Y-81257857D01*
X153320745Y-81285368D01*
X153320754Y-81285369D01*
X153499996Y-81305565D01*
X153500000Y-81305565D01*
X153500004Y-81305565D01*
X153639908Y-81289801D01*
X153679255Y-81285368D01*
X153849522Y-81225789D01*
X153867521Y-81214478D01*
X153958285Y-81179830D01*
X154055402Y-81182553D01*
X154132477Y-81214478D01*
X154150478Y-81225789D01*
X154320745Y-81285368D01*
X154320754Y-81285369D01*
X154499996Y-81305565D01*
X154500000Y-81305565D01*
X154500004Y-81305565D01*
X154639908Y-81289801D01*
X154679255Y-81285368D01*
X154849522Y-81225789D01*
X154849527Y-81225785D01*
X154849529Y-81225785D01*
X154867521Y-81214480D01*
X154958287Y-81179831D01*
X155055404Y-81182554D01*
X155132476Y-81214478D01*
X155150478Y-81225789D01*
X155150477Y-81225789D01*
X155242124Y-81257857D01*
X155320745Y-81285368D01*
X155320754Y-81285369D01*
X155499996Y-81305565D01*
X155500000Y-81305565D01*
X155500004Y-81305565D01*
X155639908Y-81289801D01*
X155679255Y-81285368D01*
X155849522Y-81225789D01*
X155867521Y-81214478D01*
X155958285Y-81179830D01*
X156055402Y-81182553D01*
X156132477Y-81214478D01*
X156150478Y-81225789D01*
X156320745Y-81285368D01*
X156320754Y-81285369D01*
X156499996Y-81305565D01*
X156500000Y-81305565D01*
X156500004Y-81305565D01*
X156639908Y-81289801D01*
X156679255Y-81285368D01*
X156849522Y-81225789D01*
X156849527Y-81225785D01*
X156849529Y-81225785D01*
X157002257Y-81129819D01*
X157002256Y-81129819D01*
X157002262Y-81129816D01*
X157129816Y-81002262D01*
X157171848Y-80935368D01*
X157225785Y-80849529D01*
X157225785Y-80849527D01*
X157225789Y-80849522D01*
X157285368Y-80679255D01*
X157305565Y-80500000D01*
X157285368Y-80320745D01*
X157225789Y-80150478D01*
X157214478Y-80132478D01*
X157179830Y-80041715D01*
X157182553Y-79944598D01*
X157214478Y-79867522D01*
X157225789Y-79849522D01*
X157285368Y-79679255D01*
X157305565Y-79500000D01*
X157285368Y-79320745D01*
X157225789Y-79150478D01*
X157214478Y-79132478D01*
X157179830Y-79041715D01*
X157182553Y-78944598D01*
X157214478Y-78867522D01*
X157225789Y-78849522D01*
X157285368Y-78679255D01*
X157305565Y-78500000D01*
X157304379Y-78489474D01*
X157312544Y-78392664D01*
X157357136Y-78306347D01*
X157431365Y-78243664D01*
X157523932Y-78214160D01*
X157620743Y-78222325D01*
X157707060Y-78266917D01*
X157769743Y-78341146D01*
X157773418Y-78348261D01*
X157870180Y-78502257D01*
X157870182Y-78502259D01*
X157870184Y-78502262D01*
X157997738Y-78629816D01*
X157997740Y-78629817D01*
X157997742Y-78629819D01*
X158150470Y-78725785D01*
X158150473Y-78725786D01*
X158150478Y-78725789D01*
X158320745Y-78785368D01*
X158320754Y-78785369D01*
X158499996Y-78805565D01*
X158500000Y-78805565D01*
X158500004Y-78805565D01*
X158639908Y-78789801D01*
X158679255Y-78785368D01*
X158849522Y-78725789D01*
X158849527Y-78725785D01*
X158849529Y-78725785D01*
X159002257Y-78629819D01*
X159002256Y-78629819D01*
X159002262Y-78629816D01*
X159129816Y-78502262D01*
X159225789Y-78349522D01*
X159285368Y-78179255D01*
X159305565Y-78000000D01*
X159305310Y-77997738D01*
X159285369Y-77820754D01*
X159285368Y-77820745D01*
X159225789Y-77650478D01*
X159225787Y-77650474D01*
X159221170Y-77637280D01*
X159224036Y-77636277D01*
X159205636Y-77564957D01*
X159219214Y-77468756D01*
X159268572Y-77385073D01*
X159346197Y-77326648D01*
X159440272Y-77302377D01*
X159482123Y-77303551D01*
X159499998Y-77305565D01*
X159500000Y-77305565D01*
X159500004Y-77305565D01*
X159639908Y-77289801D01*
X159679255Y-77285368D01*
X159849522Y-77225789D01*
X159849527Y-77225785D01*
X159849529Y-77225785D01*
X159969385Y-77150474D01*
X160002262Y-77129816D01*
X160129816Y-77002262D01*
X160166095Y-76944525D01*
X160225785Y-76849529D01*
X160225785Y-76849527D01*
X160225789Y-76849522D01*
X160285368Y-76679255D01*
X160305565Y-76500000D01*
X160293581Y-76393642D01*
X160285369Y-76320754D01*
X160285368Y-76320745D01*
X160225789Y-76150478D01*
X160225786Y-76150473D01*
X160225785Y-76150470D01*
X160129819Y-75997742D01*
X160129817Y-75997740D01*
X160129816Y-75997738D01*
X160002262Y-75870184D01*
X160002259Y-75870182D01*
X160002257Y-75870180D01*
X159849529Y-75774214D01*
X159849524Y-75774212D01*
X159849522Y-75774211D01*
X159679255Y-75714632D01*
X159679251Y-75714631D01*
X159679245Y-75714630D01*
X159500004Y-75694435D01*
X159499996Y-75694435D01*
X159320754Y-75714630D01*
X159320746Y-75714631D01*
X159320745Y-75714632D01*
X159150478Y-75774211D01*
X159150476Y-75774211D01*
X159150476Y-75774212D01*
X159150473Y-75774213D01*
X159047248Y-75839074D01*
X158956481Y-75873721D01*
X158859364Y-75870996D01*
X158832535Y-75863266D01*
X158679259Y-75809633D01*
X158679256Y-75809632D01*
X158679255Y-75809632D01*
X158679253Y-75809631D01*
X158679245Y-75809630D01*
X158500004Y-75789435D01*
X158499996Y-75789435D01*
X158320754Y-75809630D01*
X158320746Y-75809631D01*
X158320745Y-75809632D01*
X158150478Y-75869211D01*
X158150476Y-75869211D01*
X158150476Y-75869212D01*
X158150470Y-75869214D01*
X157997742Y-75965180D01*
X157870180Y-76092742D01*
X157774214Y-76245470D01*
X157774211Y-76245476D01*
X157774211Y-76245478D01*
X157751646Y-76309963D01*
X157702285Y-76393642D01*
X157624657Y-76452063D01*
X157530582Y-76476329D01*
X157434381Y-76462748D01*
X157350700Y-76413385D01*
X157292279Y-76335757D01*
X157281597Y-76309969D01*
X157225789Y-76150478D01*
X157225786Y-76150473D01*
X157225785Y-76150470D01*
X157129819Y-75997742D01*
X157129817Y-75997740D01*
X157129816Y-75997738D01*
X157002262Y-75870184D01*
X157002259Y-75870182D01*
X157002257Y-75870180D01*
X156849529Y-75774214D01*
X156849524Y-75774212D01*
X156849522Y-75774211D01*
X156679255Y-75714632D01*
X156679251Y-75714631D01*
X156679245Y-75714630D01*
X156500004Y-75694435D01*
X156499996Y-75694435D01*
X156320754Y-75714630D01*
X156320743Y-75714632D01*
X156150486Y-75774207D01*
X156150474Y-75774213D01*
X156132473Y-75785524D01*
X156041706Y-75820170D01*
X155944589Y-75817444D01*
X155867527Y-75785524D01*
X155849525Y-75774213D01*
X155849522Y-75774211D01*
X155849518Y-75774209D01*
X155849513Y-75774207D01*
X155679256Y-75714632D01*
X155679245Y-75714630D01*
X155500004Y-75694435D01*
X155499996Y-75694435D01*
X155320754Y-75714630D01*
X155320743Y-75714632D01*
X155150486Y-75774207D01*
X155150474Y-75774213D01*
X155132473Y-75785524D01*
X155041706Y-75820170D01*
X154944589Y-75817444D01*
X154867527Y-75785524D01*
X154849525Y-75774213D01*
X154849522Y-75774211D01*
X154849518Y-75774209D01*
X154849513Y-75774207D01*
X154679256Y-75714632D01*
X154679245Y-75714630D01*
X154500004Y-75694435D01*
X154499996Y-75694435D01*
X154320754Y-75714630D01*
X154320743Y-75714632D01*
X154150486Y-75774207D01*
X154150474Y-75774213D01*
X154132473Y-75785524D01*
X154041706Y-75820170D01*
X153944589Y-75817444D01*
X153867527Y-75785524D01*
X153849525Y-75774213D01*
X153849522Y-75774211D01*
X153849518Y-75774209D01*
X153849513Y-75774207D01*
X153679256Y-75714632D01*
X153679245Y-75714630D01*
X153500004Y-75694435D01*
X153499996Y-75694435D01*
X153320754Y-75714630D01*
X153320743Y-75714632D01*
X153150486Y-75774207D01*
X153150474Y-75774213D01*
X153132473Y-75785524D01*
X153041706Y-75820170D01*
X152944589Y-75817444D01*
X152867527Y-75785524D01*
X152849525Y-75774213D01*
X152849522Y-75774211D01*
X152849518Y-75774209D01*
X152849513Y-75774207D01*
X152679256Y-75714632D01*
X152679245Y-75714630D01*
X152500004Y-75694435D01*
X152499996Y-75694435D01*
X152320754Y-75714630D01*
X152320746Y-75714631D01*
X152320745Y-75714632D01*
X152150478Y-75774211D01*
X152150476Y-75774211D01*
X152150476Y-75774212D01*
X152150470Y-75774214D01*
X151997742Y-75870180D01*
X151870180Y-75997742D01*
X151774214Y-76150470D01*
X151774211Y-76150476D01*
X151774211Y-76150478D01*
X151718406Y-76309961D01*
X151714632Y-76320746D01*
X151714630Y-76320754D01*
X151694435Y-76499996D01*
X151694435Y-76500003D01*
X151714630Y-76679245D01*
X151714631Y-76679251D01*
X151714632Y-76679255D01*
X151774211Y-76849522D01*
X151774212Y-76849523D01*
X151774216Y-76849531D01*
X151785522Y-76867525D01*
X151820169Y-76958292D01*
X151817444Y-77055409D01*
X151785525Y-77132469D01*
X151774211Y-77150475D01*
X151774211Y-77150476D01*
X151714632Y-77320743D01*
X151714630Y-77320754D01*
X151694435Y-77499996D01*
X151694435Y-77500003D01*
X151714630Y-77679245D01*
X151714632Y-77679256D01*
X151774207Y-77849513D01*
X151774213Y-77849525D01*
X151785524Y-77867527D01*
X151820170Y-77958294D01*
X151817444Y-78055411D01*
X151785524Y-78132473D01*
X151774213Y-78150474D01*
X151774207Y-78150486D01*
X151714632Y-78320743D01*
X151714630Y-78320754D01*
X151694435Y-78499996D01*
X151694435Y-78500003D01*
X151714630Y-78679245D01*
X151714632Y-78679256D01*
X151774207Y-78849513D01*
X151774209Y-78849517D01*
X151774211Y-78849522D01*
X151785519Y-78867519D01*
X151785522Y-78867523D01*
X151820170Y-78958290D01*
X151817445Y-79055407D01*
X151785526Y-79132469D01*
X151774213Y-79150473D01*
X151774207Y-79150486D01*
X151714632Y-79320743D01*
X151714630Y-79320754D01*
X151694435Y-79499996D01*
X151694435Y-79500003D01*
X151714630Y-79679245D01*
X151714632Y-79679256D01*
X151774207Y-79849513D01*
X151774209Y-79849518D01*
X151774211Y-79849522D01*
X151778092Y-79855699D01*
X151785524Y-79867527D01*
X151820170Y-79958294D01*
X151817444Y-80055411D01*
X151785524Y-80132473D01*
X151774213Y-80150474D01*
X151774207Y-80150486D01*
X151714632Y-80320743D01*
X151714630Y-80320754D01*
X151694435Y-80499996D01*
X151694435Y-80500003D01*
X144500000Y-80500003D01*
X144500000Y-74409901D01*
X154194435Y-74409901D01*
X154214630Y-74589143D01*
X154214631Y-74589149D01*
X154214632Y-74589153D01*
X154274211Y-74759420D01*
X154274212Y-74759421D01*
X154274214Y-74759427D01*
X154370180Y-74912155D01*
X154370182Y-74912157D01*
X154370184Y-74912160D01*
X154497738Y-75039714D01*
X154497740Y-75039715D01*
X154497742Y-75039717D01*
X154650470Y-75135683D01*
X154650473Y-75135684D01*
X154650478Y-75135687D01*
X154820745Y-75195266D01*
X154820754Y-75195267D01*
X154999996Y-75215463D01*
X155000000Y-75215463D01*
X155000004Y-75215463D01*
X155139908Y-75199699D01*
X155179255Y-75195266D01*
X155349522Y-75135687D01*
X155349527Y-75135683D01*
X155349529Y-75135683D01*
X155502257Y-75039717D01*
X155502256Y-75039717D01*
X155502262Y-75039714D01*
X155629816Y-74912160D01*
X155709485Y-74785368D01*
X155725785Y-74759427D01*
X155725785Y-74759425D01*
X155725789Y-74759420D01*
X155785368Y-74589153D01*
X155795413Y-74500000D01*
X155805565Y-74409901D01*
X155805565Y-74409894D01*
X155785369Y-74230652D01*
X155785368Y-74230643D01*
X155725789Y-74060376D01*
X155725786Y-74060371D01*
X155725785Y-74060368D01*
X155629819Y-73907640D01*
X155629817Y-73907638D01*
X155629816Y-73907636D01*
X155502262Y-73780082D01*
X155502259Y-73780080D01*
X155502257Y-73780078D01*
X155349529Y-73684112D01*
X155349524Y-73684110D01*
X155349522Y-73684109D01*
X155179255Y-73624530D01*
X155179251Y-73624529D01*
X155179245Y-73624528D01*
X155000004Y-73604333D01*
X154999996Y-73604333D01*
X154820754Y-73624528D01*
X154820746Y-73624529D01*
X154820745Y-73624530D01*
X154650478Y-73684109D01*
X154650476Y-73684109D01*
X154650476Y-73684110D01*
X154650470Y-73684112D01*
X154497742Y-73780078D01*
X154370180Y-73907640D01*
X154274214Y-74060368D01*
X154274211Y-74060374D01*
X154274211Y-74060376D01*
X154225355Y-74200000D01*
X154214632Y-74230644D01*
X154214630Y-74230652D01*
X154194435Y-74409894D01*
X154194435Y-74409901D01*
X144500000Y-74409901D01*
X144500000Y-68000003D01*
X151694435Y-68000003D01*
X151714630Y-68179245D01*
X151714631Y-68179251D01*
X151714632Y-68179255D01*
X151774211Y-68349522D01*
X151774212Y-68349523D01*
X151774214Y-68349529D01*
X151870180Y-68502257D01*
X151870182Y-68502259D01*
X151870184Y-68502262D01*
X151997738Y-68629816D01*
X151997740Y-68629817D01*
X151997742Y-68629819D01*
X152150470Y-68725785D01*
X152150473Y-68725786D01*
X152150478Y-68725789D01*
X152320745Y-68785368D01*
X152320754Y-68785369D01*
X152499996Y-68805565D01*
X152500000Y-68805565D01*
X152500004Y-68805565D01*
X152639908Y-68789801D01*
X152679255Y-68785368D01*
X152849522Y-68725789D01*
X152849527Y-68725785D01*
X152849529Y-68725785D01*
X152867521Y-68714480D01*
X152958287Y-68679831D01*
X153055404Y-68682554D01*
X153132476Y-68714478D01*
X153150478Y-68725789D01*
X153150477Y-68725789D01*
X153221035Y-68750478D01*
X153320745Y-68785368D01*
X153320754Y-68785369D01*
X153499996Y-68805565D01*
X153500000Y-68805565D01*
X153500004Y-68805565D01*
X153639908Y-68789801D01*
X153679255Y-68785368D01*
X153849522Y-68725789D01*
X153867521Y-68714478D01*
X153958285Y-68679830D01*
X154055402Y-68682553D01*
X154132477Y-68714478D01*
X154150478Y-68725789D01*
X154320745Y-68785368D01*
X154320754Y-68785369D01*
X154499996Y-68805565D01*
X154500000Y-68805565D01*
X154500004Y-68805565D01*
X154639908Y-68789801D01*
X154679255Y-68785368D01*
X154849522Y-68725789D01*
X154849527Y-68725785D01*
X154849529Y-68725785D01*
X154867521Y-68714480D01*
X154958287Y-68679831D01*
X155055404Y-68682554D01*
X155132476Y-68714478D01*
X155150478Y-68725789D01*
X155150477Y-68725789D01*
X155221035Y-68750478D01*
X155320745Y-68785368D01*
X155320754Y-68785369D01*
X155499996Y-68805565D01*
X155500000Y-68805565D01*
X155500004Y-68805565D01*
X155639908Y-68789801D01*
X155679255Y-68785368D01*
X155849522Y-68725789D01*
X155867521Y-68714478D01*
X155958285Y-68679830D01*
X156055402Y-68682553D01*
X156132477Y-68714478D01*
X156150478Y-68725789D01*
X156320745Y-68785368D01*
X156320754Y-68785369D01*
X156499996Y-68805565D01*
X156500000Y-68805565D01*
X156500004Y-68805565D01*
X156639908Y-68789801D01*
X156679255Y-68785368D01*
X156849522Y-68725789D01*
X156849527Y-68725785D01*
X156849529Y-68725785D01*
X157002257Y-68629819D01*
X157002256Y-68629819D01*
X157002262Y-68629816D01*
X157129816Y-68502262D01*
X157210276Y-68374211D01*
X157225785Y-68349529D01*
X157225785Y-68349527D01*
X157225789Y-68349522D01*
X157285368Y-68179255D01*
X157305565Y-68000000D01*
X157302659Y-67974211D01*
X157285369Y-67820754D01*
X157285368Y-67820745D01*
X157225789Y-67650478D01*
X157214478Y-67632476D01*
X157179830Y-67541709D01*
X157182555Y-67444592D01*
X157214480Y-67367521D01*
X157225785Y-67349529D01*
X157225787Y-67349525D01*
X157225789Y-67349522D01*
X157285368Y-67179255D01*
X157305565Y-67000000D01*
X157300020Y-66950789D01*
X157285369Y-66820754D01*
X157285368Y-66820745D01*
X157225789Y-66650478D01*
X157214478Y-66632476D01*
X157179830Y-66541709D01*
X157182555Y-66444592D01*
X157214480Y-66367521D01*
X157225785Y-66349529D01*
X157225788Y-66349523D01*
X157225789Y-66349522D01*
X157285368Y-66179255D01*
X157305565Y-66000000D01*
X157304379Y-65989474D01*
X157312544Y-65892664D01*
X157357136Y-65806347D01*
X157431365Y-65743664D01*
X157523932Y-65714160D01*
X157620743Y-65722325D01*
X157707060Y-65766917D01*
X157769743Y-65841146D01*
X157773418Y-65848261D01*
X157870180Y-66002257D01*
X157870182Y-66002259D01*
X157870184Y-66002262D01*
X157997738Y-66129816D01*
X157997740Y-66129817D01*
X157997742Y-66129819D01*
X158150470Y-66225785D01*
X158150473Y-66225786D01*
X158150478Y-66225789D01*
X158320745Y-66285368D01*
X158320754Y-66285369D01*
X158499996Y-66305565D01*
X158500000Y-66305565D01*
X158500004Y-66305565D01*
X158639908Y-66289801D01*
X158679255Y-66285368D01*
X158849522Y-66225789D01*
X158849527Y-66225785D01*
X158849529Y-66225785D01*
X159002257Y-66129819D01*
X159002256Y-66129819D01*
X159002262Y-66129816D01*
X159129816Y-66002262D01*
X159225789Y-65849522D01*
X159285368Y-65679255D01*
X159290875Y-65630371D01*
X159305565Y-65500003D01*
X159305565Y-65499996D01*
X159285369Y-65320754D01*
X159285368Y-65320745D01*
X159225789Y-65150478D01*
X159225787Y-65150474D01*
X159221170Y-65137280D01*
X159224036Y-65136277D01*
X159205636Y-65064957D01*
X159219214Y-64968756D01*
X159268572Y-64885073D01*
X159346197Y-64826648D01*
X159440272Y-64802377D01*
X159482123Y-64803551D01*
X159499998Y-64805565D01*
X159500000Y-64805565D01*
X159500004Y-64805565D01*
X159639908Y-64789801D01*
X159679255Y-64785368D01*
X159849522Y-64725789D01*
X159849527Y-64725785D01*
X159849529Y-64725785D01*
X159969383Y-64650475D01*
X160002262Y-64629816D01*
X160129816Y-64502262D01*
X160157444Y-64458292D01*
X160225785Y-64349529D01*
X160225785Y-64349527D01*
X160225789Y-64349522D01*
X160285368Y-64179255D01*
X160305565Y-64000000D01*
X160293581Y-63893642D01*
X160285369Y-63820754D01*
X160285368Y-63820745D01*
X160225789Y-63650478D01*
X160225786Y-63650473D01*
X160225785Y-63650470D01*
X160129819Y-63497742D01*
X160129817Y-63497740D01*
X160129816Y-63497738D01*
X160002262Y-63370184D01*
X160002259Y-63370182D01*
X160002257Y-63370180D01*
X159849529Y-63274214D01*
X159849524Y-63274212D01*
X159849522Y-63274211D01*
X159679255Y-63214632D01*
X159679251Y-63214631D01*
X159679245Y-63214630D01*
X159500004Y-63194435D01*
X159499996Y-63194435D01*
X159320754Y-63214630D01*
X159320746Y-63214631D01*
X159320745Y-63214632D01*
X159150478Y-63274211D01*
X159150476Y-63274211D01*
X159150476Y-63274212D01*
X159150473Y-63274213D01*
X159047248Y-63339074D01*
X158956481Y-63373721D01*
X158859364Y-63370996D01*
X158832535Y-63363266D01*
X158679259Y-63309633D01*
X158679256Y-63309632D01*
X158679255Y-63309632D01*
X158679253Y-63309631D01*
X158679245Y-63309630D01*
X158500004Y-63289435D01*
X158499996Y-63289435D01*
X158320754Y-63309630D01*
X158320746Y-63309631D01*
X158320745Y-63309632D01*
X158150478Y-63369211D01*
X158150476Y-63369211D01*
X158150476Y-63369212D01*
X158150470Y-63369214D01*
X157997742Y-63465180D01*
X157870180Y-63592742D01*
X157774214Y-63745470D01*
X157774211Y-63745476D01*
X157774211Y-63745478D01*
X157751646Y-63809963D01*
X157702285Y-63893642D01*
X157624657Y-63952063D01*
X157530582Y-63976329D01*
X157434381Y-63962748D01*
X157350700Y-63913385D01*
X157292279Y-63835757D01*
X157281597Y-63809969D01*
X157225789Y-63650478D01*
X157225786Y-63650473D01*
X157225785Y-63650470D01*
X157129819Y-63497742D01*
X157129817Y-63497740D01*
X157129816Y-63497738D01*
X157002262Y-63370184D01*
X157002259Y-63370182D01*
X157002257Y-63370180D01*
X156849529Y-63274214D01*
X156849524Y-63274212D01*
X156849522Y-63274211D01*
X156679255Y-63214632D01*
X156679251Y-63214631D01*
X156679245Y-63214630D01*
X156500004Y-63194435D01*
X156499996Y-63194435D01*
X156320754Y-63214630D01*
X156320743Y-63214632D01*
X156150486Y-63274207D01*
X156150474Y-63274213D01*
X156132473Y-63285524D01*
X156041706Y-63320170D01*
X155944589Y-63317444D01*
X155867527Y-63285524D01*
X155849525Y-63274213D01*
X155849522Y-63274211D01*
X155849518Y-63274209D01*
X155849513Y-63274207D01*
X155679256Y-63214632D01*
X155679245Y-63214630D01*
X155500004Y-63194435D01*
X155499996Y-63194435D01*
X155320754Y-63214630D01*
X155320743Y-63214632D01*
X155150486Y-63274207D01*
X155150473Y-63274213D01*
X155132469Y-63285526D01*
X155041701Y-63320171D01*
X154944584Y-63317443D01*
X154867523Y-63285522D01*
X154849522Y-63274211D01*
X154849517Y-63274209D01*
X154849513Y-63274207D01*
X154679256Y-63214632D01*
X154679245Y-63214630D01*
X154500004Y-63194435D01*
X154499996Y-63194435D01*
X154320754Y-63214630D01*
X154320743Y-63214632D01*
X154150486Y-63274207D01*
X154150474Y-63274213D01*
X154132473Y-63285524D01*
X154041706Y-63320170D01*
X153944589Y-63317444D01*
X153867527Y-63285524D01*
X153849525Y-63274213D01*
X153849522Y-63274211D01*
X153849518Y-63274209D01*
X153849513Y-63274207D01*
X153679256Y-63214632D01*
X153679245Y-63214630D01*
X153500004Y-63194435D01*
X153499996Y-63194435D01*
X153320754Y-63214630D01*
X153320743Y-63214632D01*
X153150486Y-63274207D01*
X153150473Y-63274213D01*
X153132469Y-63285526D01*
X153041701Y-63320171D01*
X152944584Y-63317443D01*
X152867523Y-63285522D01*
X152849522Y-63274211D01*
X152849517Y-63274209D01*
X152849513Y-63274207D01*
X152679256Y-63214632D01*
X152679245Y-63214630D01*
X152500004Y-63194435D01*
X152499996Y-63194435D01*
X152320754Y-63214630D01*
X152320746Y-63214631D01*
X152320745Y-63214632D01*
X152150478Y-63274211D01*
X152150476Y-63274211D01*
X152150476Y-63274212D01*
X152150470Y-63274214D01*
X151997742Y-63370180D01*
X151870180Y-63497742D01*
X151774214Y-63650470D01*
X151774211Y-63650476D01*
X151774211Y-63650478D01*
X151718406Y-63809961D01*
X151714632Y-63820746D01*
X151714630Y-63820754D01*
X151694435Y-63999996D01*
X151694435Y-64000003D01*
X151714630Y-64179245D01*
X151714631Y-64179251D01*
X151714632Y-64179255D01*
X151774211Y-64349522D01*
X151774212Y-64349523D01*
X151774216Y-64349531D01*
X151785522Y-64367525D01*
X151820169Y-64458292D01*
X151817444Y-64555409D01*
X151785525Y-64632469D01*
X151774211Y-64650475D01*
X151774211Y-64650476D01*
X151714632Y-64820743D01*
X151714630Y-64820754D01*
X151694435Y-64999996D01*
X151694435Y-65000003D01*
X151714630Y-65179245D01*
X151714632Y-65179256D01*
X151774207Y-65349513D01*
X151774209Y-65349517D01*
X151774211Y-65349522D01*
X151785522Y-65367523D01*
X151820170Y-65458290D01*
X151817445Y-65555407D01*
X151785526Y-65632469D01*
X151774213Y-65650473D01*
X151774207Y-65650486D01*
X151714632Y-65820743D01*
X151714630Y-65820754D01*
X151694435Y-65999996D01*
X151694435Y-66000003D01*
X151714630Y-66179245D01*
X151714631Y-66179251D01*
X151714632Y-66179255D01*
X151774211Y-66349522D01*
X151774212Y-66349523D01*
X151774216Y-66349531D01*
X151785522Y-66367525D01*
X151820169Y-66458292D01*
X151817444Y-66555409D01*
X151785525Y-66632469D01*
X151774211Y-66650475D01*
X151774211Y-66650476D01*
X151714632Y-66820743D01*
X151714630Y-66820754D01*
X151694435Y-66999996D01*
X151694435Y-67000003D01*
X151714630Y-67179245D01*
X151714632Y-67179256D01*
X151774207Y-67349513D01*
X151774209Y-67349518D01*
X151774211Y-67349522D01*
X151778092Y-67355699D01*
X151785524Y-67367527D01*
X151820170Y-67458294D01*
X151817444Y-67555411D01*
X151785524Y-67632473D01*
X151774213Y-67650474D01*
X151774207Y-67650486D01*
X151714632Y-67820743D01*
X151714630Y-67820754D01*
X151694435Y-67999996D01*
X151694435Y-68000003D01*
X144500000Y-68000003D01*
X144500000Y-61899112D01*
X154194435Y-61899112D01*
X154214630Y-62078354D01*
X154214631Y-62078360D01*
X154214632Y-62078364D01*
X154274211Y-62248631D01*
X154274212Y-62248632D01*
X154274214Y-62248638D01*
X154370180Y-62401366D01*
X154370182Y-62401368D01*
X154370184Y-62401371D01*
X154497738Y-62528925D01*
X154497740Y-62528926D01*
X154497742Y-62528928D01*
X154650470Y-62624894D01*
X154650473Y-62624895D01*
X154650478Y-62624898D01*
X154820745Y-62684477D01*
X154820754Y-62684478D01*
X154999996Y-62704674D01*
X155000000Y-62704674D01*
X155000004Y-62704674D01*
X155139908Y-62688910D01*
X155179255Y-62684477D01*
X155349522Y-62624898D01*
X155349527Y-62624894D01*
X155349529Y-62624894D01*
X155502257Y-62528928D01*
X155502256Y-62528928D01*
X155502262Y-62528925D01*
X155629816Y-62401371D01*
X155725789Y-62248631D01*
X155785368Y-62078364D01*
X155794197Y-62000000D01*
X155805565Y-61899112D01*
X155805565Y-61899105D01*
X155785369Y-61719863D01*
X155785368Y-61719854D01*
X155725789Y-61549587D01*
X155725786Y-61549582D01*
X155725785Y-61549579D01*
X155629819Y-61396851D01*
X155629817Y-61396849D01*
X155629816Y-61396847D01*
X155502262Y-61269293D01*
X155502259Y-61269291D01*
X155502257Y-61269289D01*
X155349529Y-61173323D01*
X155349524Y-61173321D01*
X155349522Y-61173320D01*
X155179255Y-61113741D01*
X155179251Y-61113740D01*
X155179245Y-61113739D01*
X155000004Y-61093544D01*
X154999996Y-61093544D01*
X154820754Y-61113739D01*
X154820746Y-61113740D01*
X154820745Y-61113741D01*
X154650478Y-61173320D01*
X154650476Y-61173320D01*
X154650476Y-61173321D01*
X154650470Y-61173323D01*
X154497742Y-61269289D01*
X154370180Y-61396851D01*
X154274214Y-61549579D01*
X154274211Y-61549585D01*
X154274211Y-61549587D01*
X154228839Y-61679255D01*
X154214632Y-61719855D01*
X154214630Y-61719863D01*
X154194435Y-61899105D01*
X154194435Y-61899112D01*
X144500000Y-61899112D01*
X144500000Y-55500003D01*
X151694435Y-55500003D01*
X151714630Y-55679245D01*
X151714631Y-55679251D01*
X151714632Y-55679255D01*
X151774211Y-55849522D01*
X151774212Y-55849523D01*
X151774214Y-55849529D01*
X151870180Y-56002257D01*
X151870182Y-56002259D01*
X151870184Y-56002262D01*
X151997738Y-56129816D01*
X151997740Y-56129817D01*
X151997742Y-56129819D01*
X152150470Y-56225785D01*
X152150473Y-56225786D01*
X152150478Y-56225789D01*
X152320745Y-56285368D01*
X152320754Y-56285369D01*
X152499996Y-56305565D01*
X152500000Y-56305565D01*
X152500004Y-56305565D01*
X152639908Y-56289801D01*
X152679255Y-56285368D01*
X152849522Y-56225789D01*
X152849527Y-56225785D01*
X152849529Y-56225785D01*
X152867521Y-56214480D01*
X152958287Y-56179831D01*
X153055404Y-56182554D01*
X153132476Y-56214478D01*
X153150478Y-56225789D01*
X153150477Y-56225789D01*
X153232592Y-56254522D01*
X153320745Y-56285368D01*
X153320754Y-56285369D01*
X153499996Y-56305565D01*
X153500000Y-56305565D01*
X153500004Y-56305565D01*
X153639908Y-56289801D01*
X153679255Y-56285368D01*
X153849522Y-56225789D01*
X153867521Y-56214478D01*
X153958285Y-56179830D01*
X154055402Y-56182553D01*
X154132477Y-56214478D01*
X154150478Y-56225789D01*
X154320745Y-56285368D01*
X154320754Y-56285369D01*
X154499996Y-56305565D01*
X154500000Y-56305565D01*
X154500004Y-56305565D01*
X154639908Y-56289801D01*
X154679255Y-56285368D01*
X154849522Y-56225789D01*
X154849527Y-56225785D01*
X154849529Y-56225785D01*
X154867521Y-56214480D01*
X154958287Y-56179831D01*
X155055404Y-56182554D01*
X155132476Y-56214478D01*
X155150478Y-56225789D01*
X155150477Y-56225789D01*
X155232592Y-56254522D01*
X155320745Y-56285368D01*
X155320754Y-56285369D01*
X155499996Y-56305565D01*
X155500000Y-56305565D01*
X155500004Y-56305565D01*
X155639908Y-56289801D01*
X155679255Y-56285368D01*
X155849522Y-56225789D01*
X155867521Y-56214478D01*
X155958285Y-56179830D01*
X156055402Y-56182553D01*
X156132477Y-56214478D01*
X156150478Y-56225789D01*
X156320745Y-56285368D01*
X156320754Y-56285369D01*
X156499996Y-56305565D01*
X156500000Y-56305565D01*
X156500004Y-56305565D01*
X156639908Y-56289801D01*
X156679255Y-56285368D01*
X156849522Y-56225789D01*
X156849527Y-56225785D01*
X156849529Y-56225785D01*
X157002257Y-56129819D01*
X157002256Y-56129819D01*
X157002262Y-56129816D01*
X157129816Y-56002262D01*
X157225789Y-55849522D01*
X157285368Y-55679255D01*
X157305565Y-55500000D01*
X157294606Y-55402738D01*
X157285369Y-55320754D01*
X157285368Y-55320745D01*
X157225789Y-55150478D01*
X157214478Y-55132478D01*
X157179830Y-55041715D01*
X157182553Y-54944598D01*
X157214478Y-54867522D01*
X157225789Y-54849522D01*
X157285368Y-54679255D01*
X157305565Y-54500000D01*
X157300020Y-54450789D01*
X157285369Y-54320754D01*
X157285368Y-54320745D01*
X157225789Y-54150478D01*
X157214478Y-54132478D01*
X157179830Y-54041715D01*
X157182553Y-53944598D01*
X157214478Y-53867522D01*
X157225789Y-53849522D01*
X157285368Y-53679255D01*
X157305565Y-53500000D01*
X157304379Y-53489474D01*
X157312544Y-53392664D01*
X157357136Y-53306347D01*
X157431365Y-53243664D01*
X157523932Y-53214160D01*
X157620743Y-53222325D01*
X157707060Y-53266917D01*
X157769743Y-53341146D01*
X157773418Y-53348261D01*
X157870180Y-53502257D01*
X157870182Y-53502259D01*
X157870184Y-53502262D01*
X157997738Y-53629816D01*
X157997740Y-53629817D01*
X157997742Y-53629819D01*
X158150470Y-53725785D01*
X158150473Y-53725786D01*
X158150478Y-53725789D01*
X158320745Y-53785368D01*
X158320754Y-53785369D01*
X158499996Y-53805565D01*
X158500000Y-53805565D01*
X158500004Y-53805565D01*
X158643159Y-53789435D01*
X158679255Y-53785368D01*
X158849522Y-53725789D01*
X158849527Y-53725785D01*
X158849529Y-53725785D01*
X159002257Y-53629819D01*
X159002256Y-53629819D01*
X159002262Y-53629816D01*
X159129816Y-53502262D01*
X159225789Y-53349522D01*
X159285368Y-53179255D01*
X159290875Y-53130371D01*
X159305565Y-53000003D01*
X159305565Y-52999996D01*
X159285369Y-52820754D01*
X159285368Y-52820745D01*
X159225789Y-52650478D01*
X159225787Y-52650474D01*
X159221170Y-52637280D01*
X159224036Y-52636277D01*
X159205636Y-52564957D01*
X159219214Y-52468756D01*
X159268572Y-52385073D01*
X159346197Y-52326648D01*
X159440272Y-52302377D01*
X159482123Y-52303551D01*
X159499998Y-52305565D01*
X159500000Y-52305565D01*
X159500004Y-52305565D01*
X159639908Y-52289801D01*
X159679255Y-52285368D01*
X159849522Y-52225789D01*
X159849527Y-52225785D01*
X159849529Y-52225785D01*
X159969385Y-52150474D01*
X160002262Y-52129816D01*
X160129816Y-52002262D01*
X160166095Y-51944525D01*
X160225785Y-51849529D01*
X160225785Y-51849527D01*
X160225789Y-51849522D01*
X160285368Y-51679255D01*
X160305565Y-51500000D01*
X160293581Y-51393642D01*
X160285369Y-51320754D01*
X160285368Y-51320745D01*
X160225789Y-51150478D01*
X160225786Y-51150473D01*
X160225785Y-51150470D01*
X160129819Y-50997742D01*
X160129817Y-50997740D01*
X160129816Y-50997738D01*
X160002262Y-50870184D01*
X160002259Y-50870182D01*
X160002257Y-50870180D01*
X159849529Y-50774214D01*
X159849524Y-50774212D01*
X159849522Y-50774211D01*
X159679255Y-50714632D01*
X159679251Y-50714631D01*
X159679245Y-50714630D01*
X159500004Y-50694435D01*
X159499996Y-50694435D01*
X159320754Y-50714630D01*
X159320746Y-50714631D01*
X159320745Y-50714632D01*
X159150478Y-50774211D01*
X159150476Y-50774211D01*
X159150476Y-50774212D01*
X159150473Y-50774213D01*
X159047248Y-50839074D01*
X158956481Y-50873721D01*
X158859364Y-50870996D01*
X158832535Y-50863266D01*
X158679259Y-50809633D01*
X158679256Y-50809632D01*
X158679255Y-50809632D01*
X158679253Y-50809631D01*
X158679245Y-50809630D01*
X158500004Y-50789435D01*
X158499996Y-50789435D01*
X158320754Y-50809630D01*
X158320746Y-50809631D01*
X158320745Y-50809632D01*
X158150478Y-50869211D01*
X158150476Y-50869211D01*
X158150476Y-50869212D01*
X158150470Y-50869214D01*
X157997742Y-50965180D01*
X157870180Y-51092742D01*
X157774214Y-51245470D01*
X157774211Y-51245476D01*
X157774211Y-51245478D01*
X157751646Y-51309963D01*
X157702285Y-51393642D01*
X157624657Y-51452063D01*
X157530582Y-51476329D01*
X157434381Y-51462748D01*
X157350700Y-51413385D01*
X157292279Y-51335757D01*
X157281597Y-51309969D01*
X157225789Y-51150478D01*
X157225786Y-51150473D01*
X157225785Y-51150470D01*
X157129819Y-50997742D01*
X157129817Y-50997740D01*
X157129816Y-50997738D01*
X157002262Y-50870184D01*
X157002259Y-50870182D01*
X157002257Y-50870180D01*
X156849529Y-50774214D01*
X156849524Y-50774212D01*
X156849522Y-50774211D01*
X156679255Y-50714632D01*
X156679251Y-50714631D01*
X156679245Y-50714630D01*
X156500004Y-50694435D01*
X156499996Y-50694435D01*
X156320754Y-50714630D01*
X156320743Y-50714632D01*
X156150486Y-50774207D01*
X156150474Y-50774213D01*
X156132473Y-50785524D01*
X156041706Y-50820170D01*
X155944589Y-50817444D01*
X155867527Y-50785524D01*
X155849525Y-50774213D01*
X155849522Y-50774211D01*
X155849518Y-50774209D01*
X155849513Y-50774207D01*
X155679256Y-50714632D01*
X155679245Y-50714630D01*
X155500004Y-50694435D01*
X155499996Y-50694435D01*
X155320754Y-50714630D01*
X155320743Y-50714632D01*
X155150486Y-50774207D01*
X155150474Y-50774213D01*
X155132473Y-50785524D01*
X155041706Y-50820170D01*
X154944589Y-50817444D01*
X154867527Y-50785524D01*
X154849525Y-50774213D01*
X154849522Y-50774211D01*
X154849518Y-50774209D01*
X154849513Y-50774207D01*
X154679256Y-50714632D01*
X154679245Y-50714630D01*
X154500004Y-50694435D01*
X154499996Y-50694435D01*
X154320754Y-50714630D01*
X154320743Y-50714632D01*
X154150486Y-50774207D01*
X154150474Y-50774213D01*
X154132473Y-50785524D01*
X154041706Y-50820170D01*
X153944589Y-50817444D01*
X153867527Y-50785524D01*
X153849525Y-50774213D01*
X153849522Y-50774211D01*
X153849518Y-50774209D01*
X153849513Y-50774207D01*
X153679256Y-50714632D01*
X153679245Y-50714630D01*
X153500004Y-50694435D01*
X153499996Y-50694435D01*
X153320754Y-50714630D01*
X153320743Y-50714632D01*
X153150486Y-50774207D01*
X153150473Y-50774213D01*
X153132469Y-50785526D01*
X153041701Y-50820171D01*
X152944584Y-50817443D01*
X152867523Y-50785522D01*
X152849522Y-50774211D01*
X152849517Y-50774209D01*
X152849513Y-50774207D01*
X152679256Y-50714632D01*
X152679245Y-50714630D01*
X152500004Y-50694435D01*
X152499996Y-50694435D01*
X152320754Y-50714630D01*
X152320746Y-50714631D01*
X152320745Y-50714632D01*
X152150478Y-50774211D01*
X152150476Y-50774211D01*
X152150476Y-50774212D01*
X152150470Y-50774214D01*
X151997742Y-50870180D01*
X151870180Y-50997742D01*
X151774214Y-51150470D01*
X151774211Y-51150476D01*
X151774211Y-51150478D01*
X151718406Y-51309961D01*
X151714632Y-51320746D01*
X151714630Y-51320754D01*
X151694435Y-51499996D01*
X151694435Y-51500003D01*
X151714630Y-51679245D01*
X151714632Y-51679256D01*
X151774207Y-51849513D01*
X151774209Y-51849518D01*
X151774211Y-51849522D01*
X151778092Y-51855699D01*
X151785524Y-51867527D01*
X151820170Y-51958294D01*
X151817444Y-52055411D01*
X151785524Y-52132473D01*
X151774213Y-52150474D01*
X151774207Y-52150486D01*
X151714632Y-52320743D01*
X151714630Y-52320754D01*
X151694435Y-52499996D01*
X151694435Y-52500003D01*
X151714630Y-52679245D01*
X151714632Y-52679256D01*
X151774207Y-52849513D01*
X151774213Y-52849525D01*
X151785524Y-52867527D01*
X151820170Y-52958294D01*
X151817444Y-53055411D01*
X151785524Y-53132473D01*
X151774213Y-53150474D01*
X151774207Y-53150486D01*
X151714632Y-53320743D01*
X151714630Y-53320754D01*
X151694435Y-53499996D01*
X151694435Y-53500003D01*
X151714630Y-53679245D01*
X151714632Y-53679256D01*
X151774207Y-53849513D01*
X151774213Y-53849525D01*
X151785524Y-53867527D01*
X151820170Y-53958294D01*
X151817444Y-54055411D01*
X151785524Y-54132473D01*
X151774213Y-54150474D01*
X151774207Y-54150486D01*
X151714632Y-54320743D01*
X151714630Y-54320754D01*
X151694435Y-54499996D01*
X151694435Y-54500003D01*
X151714630Y-54679245D01*
X151714632Y-54679256D01*
X151774207Y-54849513D01*
X151774209Y-54849517D01*
X151774211Y-54849522D01*
X151785519Y-54867519D01*
X151785522Y-54867523D01*
X151820170Y-54958290D01*
X151817445Y-55055407D01*
X151785526Y-55132469D01*
X151774213Y-55150473D01*
X151774207Y-55150486D01*
X151714632Y-55320743D01*
X151714630Y-55320754D01*
X151694435Y-55499996D01*
X151694435Y-55500003D01*
X144500000Y-55500003D01*
X144500000Y-49339003D01*
X154194435Y-49339003D01*
X154214630Y-49518245D01*
X154214631Y-49518251D01*
X154214632Y-49518255D01*
X154274211Y-49688522D01*
X154274212Y-49688523D01*
X154274214Y-49688529D01*
X154370180Y-49841257D01*
X154370182Y-49841259D01*
X154370184Y-49841262D01*
X154497738Y-49968816D01*
X154497740Y-49968817D01*
X154497742Y-49968819D01*
X154650470Y-50064785D01*
X154650473Y-50064786D01*
X154650478Y-50064789D01*
X154820745Y-50124368D01*
X154820754Y-50124369D01*
X154999996Y-50144565D01*
X155000000Y-50144565D01*
X155000004Y-50144565D01*
X155139908Y-50128801D01*
X155179255Y-50124368D01*
X155349522Y-50064789D01*
X155349527Y-50064785D01*
X155349529Y-50064785D01*
X155502257Y-49968819D01*
X155502256Y-49968819D01*
X155502262Y-49968816D01*
X155629816Y-49841262D01*
X155725789Y-49688522D01*
X155785368Y-49518255D01*
X155790875Y-49469371D01*
X155805565Y-49339003D01*
X155805565Y-49338996D01*
X155785369Y-49159754D01*
X155785368Y-49159745D01*
X155725789Y-48989478D01*
X155725786Y-48989473D01*
X155725785Y-48989470D01*
X155629819Y-48836742D01*
X155629817Y-48836740D01*
X155629816Y-48836738D01*
X155502262Y-48709184D01*
X155502259Y-48709182D01*
X155502257Y-48709180D01*
X155349529Y-48613214D01*
X155349524Y-48613212D01*
X155349522Y-48613211D01*
X155179255Y-48553632D01*
X155179251Y-48553631D01*
X155179245Y-48553630D01*
X155000004Y-48533435D01*
X154999996Y-48533435D01*
X154820754Y-48553630D01*
X154820746Y-48553631D01*
X154820745Y-48553632D01*
X154650478Y-48613211D01*
X154650476Y-48613211D01*
X154650476Y-48613212D01*
X154650470Y-48613214D01*
X154497742Y-48709180D01*
X154370180Y-48836742D01*
X154274214Y-48989470D01*
X154274212Y-48989476D01*
X154214632Y-49159746D01*
X154214630Y-49159754D01*
X154194435Y-49338996D01*
X154194435Y-49339003D01*
X144500000Y-49339003D01*
X144500000Y-41500000D01*
X142470000Y-39500000D01*
X129103140Y-39500000D01*
X129007852Y-39481046D01*
X128927070Y-39427070D01*
X127747868Y-38247868D01*
X163299500Y-38247868D01*
X163299501Y-38247872D01*
X163301567Y-38267092D01*
X163305908Y-38307480D01*
X163305909Y-38307483D01*
X163356204Y-38442331D01*
X163442454Y-38557546D01*
X163557669Y-38643796D01*
X163692517Y-38694091D01*
X163752127Y-38700500D01*
X166247872Y-38700499D01*
X166307483Y-38694091D01*
X166442331Y-38643796D01*
X166557546Y-38557546D01*
X166643796Y-38442331D01*
X166694091Y-38307483D01*
X166700500Y-38247873D01*
X166700499Y-35752128D01*
X166694091Y-35692517D01*
X166643796Y-35557669D01*
X166557546Y-35442454D01*
X166442331Y-35356204D01*
X166362117Y-35326286D01*
X166307481Y-35305908D01*
X166247873Y-35299500D01*
X163752134Y-35299500D01*
X163752130Y-35299500D01*
X163752128Y-35299501D01*
X163739313Y-35300878D01*
X163692519Y-35305908D01*
X163692515Y-35305909D01*
X163557670Y-35356203D01*
X163442455Y-35442453D01*
X163442453Y-35442455D01*
X163356204Y-35557669D01*
X163305908Y-35692518D01*
X163299500Y-35752123D01*
X163299500Y-38247865D01*
X163299500Y-38247868D01*
X127747868Y-38247868D01*
X124072930Y-34572930D01*
X124018954Y-34492148D01*
X124000000Y-34396860D01*
X124000000Y-32029485D01*
X124018954Y-31934197D01*
X124072930Y-31853415D01*
X124153712Y-31799439D01*
X124249000Y-31780485D01*
X124344288Y-31799439D01*
X124367502Y-31810492D01*
X124567690Y-31918828D01*
X124637236Y-31942703D01*
X124802878Y-31999569D01*
X124802882Y-31999569D01*
X124802886Y-31999571D01*
X125048165Y-32040500D01*
X125296835Y-32040500D01*
X125542114Y-31999571D01*
X125542118Y-31999569D01*
X125542121Y-31999569D01*
X125631577Y-31968858D01*
X125777310Y-31918828D01*
X125996009Y-31800474D01*
X126192244Y-31647738D01*
X126360664Y-31464785D01*
X126496673Y-31256607D01*
X126596563Y-31028881D01*
X126657608Y-30787821D01*
X126660919Y-30747868D01*
X134299500Y-30747868D01*
X134299501Y-30747872D01*
X134301567Y-30767092D01*
X134305908Y-30807480D01*
X134305909Y-30807483D01*
X134356204Y-30942331D01*
X134442454Y-31057546D01*
X134557669Y-31143796D01*
X134692517Y-31194091D01*
X134752127Y-31200500D01*
X137247872Y-31200499D01*
X137307483Y-31194091D01*
X137442331Y-31143796D01*
X137557546Y-31057546D01*
X137643796Y-30942331D01*
X137694091Y-30807483D01*
X137700500Y-30747873D01*
X137700499Y-28252128D01*
X137694091Y-28192517D01*
X137643796Y-28057669D01*
X137557546Y-27942454D01*
X137442331Y-27856204D01*
X137362117Y-27826286D01*
X137307481Y-27805908D01*
X137247873Y-27799500D01*
X134752134Y-27799500D01*
X134752130Y-27799500D01*
X134752128Y-27799501D01*
X134739313Y-27800878D01*
X134692519Y-27805908D01*
X134692515Y-27805909D01*
X134557670Y-27856203D01*
X134442455Y-27942453D01*
X134442453Y-27942455D01*
X134356204Y-28057669D01*
X134305908Y-28192518D01*
X134299500Y-28252123D01*
X134299500Y-30747865D01*
X134299500Y-30747868D01*
X126660919Y-30747868D01*
X126678143Y-30540000D01*
X126657608Y-30292179D01*
X126596563Y-30051119D01*
X126496673Y-29823393D01*
X126443497Y-29742001D01*
X126360669Y-29615221D01*
X126360663Y-29615214D01*
X126192251Y-29432269D01*
X126192247Y-29432265D01*
X126192244Y-29432262D01*
X126192238Y-29432257D01*
X125996014Y-29279529D01*
X125996010Y-29279526D01*
X125996009Y-29279526D01*
X125919002Y-29237852D01*
X125777311Y-29161172D01*
X125542121Y-29080430D01*
X125542110Y-29080428D01*
X125296835Y-29039500D01*
X125048165Y-29039500D01*
X124802889Y-29080428D01*
X124802878Y-29080430D01*
X124567688Y-29161172D01*
X124367511Y-29269503D01*
X124274686Y-29298186D01*
X124177951Y-29289162D01*
X124092032Y-29243807D01*
X124030011Y-29169025D01*
X124001328Y-29076200D01*
X124000000Y-29050514D01*
X124000000Y-26949485D01*
X124018954Y-26854197D01*
X124072930Y-26773415D01*
X124153712Y-26719439D01*
X124249000Y-26700485D01*
X124344288Y-26719439D01*
X124367502Y-26730492D01*
X124567690Y-26838828D01*
X124637236Y-26862703D01*
X124802878Y-26919569D01*
X124802882Y-26919569D01*
X124802886Y-26919571D01*
X125048165Y-26960500D01*
X125296835Y-26960500D01*
X125542114Y-26919571D01*
X125542118Y-26919569D01*
X125542121Y-26919569D01*
X125631577Y-26888858D01*
X125777310Y-26838828D01*
X125996009Y-26720474D01*
X126192244Y-26567738D01*
X126360664Y-26384785D01*
X126496673Y-26176607D01*
X126596563Y-25948881D01*
X126657608Y-25707821D01*
X126678143Y-25460000D01*
X126657608Y-25212179D01*
X126596563Y-24971119D01*
X126496673Y-24743393D01*
X126423226Y-24630973D01*
X126360669Y-24535221D01*
X126360663Y-24535214D01*
X126192251Y-24352269D01*
X126192247Y-24352265D01*
X126192244Y-24352262D01*
X126192238Y-24352257D01*
X125996014Y-24199529D01*
X125996010Y-24199526D01*
X125996009Y-24199526D01*
X125919002Y-24157852D01*
X125777311Y-24081172D01*
X125542121Y-24000430D01*
X125542110Y-24000428D01*
X125296835Y-23959500D01*
X125048165Y-23959500D01*
X124802889Y-24000428D01*
X124802878Y-24000430D01*
X124567688Y-24081172D01*
X124367511Y-24189503D01*
X124274686Y-24218186D01*
X124177951Y-24209162D01*
X124092032Y-24163807D01*
X124030011Y-24089025D01*
X124001328Y-23996200D01*
X124000000Y-23970514D01*
X124000000Y-21749000D01*
X124018954Y-21653712D01*
X124072930Y-21572930D01*
X124153712Y-21518954D01*
X124249000Y-21500000D01*
X168938118Y-21500000D01*
X169033406Y-21518954D01*
G37*
%TD.AperFunction*%
%TD*%
%TA.AperFunction,Conductor*%
%TO.N,GND*%
G36*
X123015931Y-35020002D02*
G01*
X123036905Y-35036905D01*
X128499998Y-40499999D01*
X128500000Y-40500000D01*
X140947810Y-40500000D01*
X141015931Y-40520002D01*
X141036905Y-40536905D01*
X143463095Y-42963095D01*
X143497121Y-43025407D01*
X143500000Y-43052190D01*
X143500000Y-45929228D01*
X143479998Y-45997349D01*
X143426342Y-46043842D01*
X143356068Y-46053946D01*
X143297296Y-46029191D01*
X143279644Y-46015646D01*
X143279643Y-46015645D01*
X143144754Y-45959772D01*
X143144752Y-45959771D01*
X143000000Y-45940715D01*
X142855247Y-45959771D01*
X142787801Y-45987708D01*
X142720358Y-46015645D01*
X142720357Y-46015646D01*
X142720356Y-46015646D01*
X142604526Y-46104526D01*
X142515646Y-46220356D01*
X142515645Y-46220358D01*
X142487708Y-46287802D01*
X142459771Y-46355247D01*
X142440715Y-46499999D01*
X142440715Y-46500000D01*
X142459771Y-46644752D01*
X142515644Y-46779641D01*
X142515649Y-46779649D01*
X142604525Y-46895474D01*
X142720350Y-46984350D01*
X142720357Y-46984355D01*
X142855246Y-47040228D01*
X142927623Y-47049756D01*
X142999999Y-47059285D01*
X142999999Y-47059284D01*
X143000000Y-47059285D01*
X143144754Y-47040228D01*
X143279643Y-46984355D01*
X143297296Y-46970809D01*
X143363514Y-46945208D01*
X143433063Y-46959471D01*
X143483860Y-47009072D01*
X143500000Y-47070771D01*
X143500000Y-49097627D01*
X143479998Y-49165748D01*
X143426342Y-49212241D01*
X143356068Y-49222345D01*
X143291488Y-49192851D01*
X143274038Y-49174331D01*
X143220474Y-49104525D01*
X143104649Y-49015649D01*
X143104641Y-49015644D01*
X142969752Y-48959771D01*
X142825000Y-48940715D01*
X142680247Y-48959771D01*
X142618134Y-48985500D01*
X142545358Y-49015645D01*
X142545357Y-49015646D01*
X142545356Y-49015646D01*
X142429526Y-49104526D01*
X142340646Y-49220356D01*
X142340645Y-49220358D01*
X142318863Y-49272944D01*
X142284771Y-49355247D01*
X142265715Y-49499999D01*
X142265715Y-49500000D01*
X142284771Y-49644752D01*
X142340644Y-49779641D01*
X142340649Y-49779649D01*
X142429525Y-49895474D01*
X142545350Y-49984350D01*
X142545357Y-49984355D01*
X142680246Y-50040228D01*
X142825000Y-50059285D01*
X142969754Y-50040228D01*
X143104643Y-49984355D01*
X143220474Y-49895474D01*
X143244033Y-49864772D01*
X143274038Y-49825669D01*
X143331376Y-49783802D01*
X143402247Y-49779580D01*
X143464150Y-49814344D01*
X143497431Y-49877057D01*
X143500000Y-49902373D01*
X143500000Y-50597627D01*
X143479998Y-50665748D01*
X143426342Y-50712241D01*
X143356068Y-50722345D01*
X143291488Y-50692851D01*
X143274038Y-50674331D01*
X143220474Y-50604525D01*
X143104649Y-50515649D01*
X143104641Y-50515644D01*
X142969752Y-50459771D01*
X142825000Y-50440715D01*
X142680247Y-50459771D01*
X142612801Y-50487708D01*
X142545358Y-50515645D01*
X142545357Y-50515646D01*
X142545356Y-50515646D01*
X142429526Y-50604526D01*
X142340646Y-50720356D01*
X142340645Y-50720358D01*
X142316089Y-50779641D01*
X142284771Y-50855247D01*
X142265715Y-50999999D01*
X142265715Y-51000000D01*
X142284771Y-51144752D01*
X142340644Y-51279641D01*
X142340649Y-51279649D01*
X142429525Y-51395474D01*
X142544399Y-51483620D01*
X142545357Y-51484355D01*
X142680246Y-51540228D01*
X142825000Y-51559285D01*
X142969754Y-51540228D01*
X143104643Y-51484355D01*
X143220474Y-51395474D01*
X143239109Y-51371189D01*
X143274038Y-51325669D01*
X143331376Y-51283802D01*
X143402247Y-51279580D01*
X143464150Y-51314344D01*
X143497431Y-51377057D01*
X143500000Y-51402373D01*
X143500000Y-58429228D01*
X143479998Y-58497349D01*
X143426342Y-58543842D01*
X143356068Y-58553946D01*
X143297296Y-58529191D01*
X143279644Y-58515646D01*
X143279643Y-58515645D01*
X143144754Y-58459772D01*
X143144752Y-58459771D01*
X143000000Y-58440715D01*
X142855247Y-58459771D01*
X142787801Y-58487708D01*
X142720358Y-58515645D01*
X142720357Y-58515646D01*
X142720356Y-58515646D01*
X142604526Y-58604526D01*
X142515646Y-58720356D01*
X142515645Y-58720358D01*
X142487708Y-58787801D01*
X142459771Y-58855247D01*
X142440715Y-58999999D01*
X142440715Y-59000000D01*
X142459771Y-59144752D01*
X142515644Y-59279641D01*
X142515649Y-59279649D01*
X142604525Y-59395474D01*
X142720350Y-59484350D01*
X142720357Y-59484355D01*
X142855246Y-59540228D01*
X143000000Y-59559285D01*
X143144754Y-59540228D01*
X143279643Y-59484355D01*
X143297296Y-59470809D01*
X143363514Y-59445208D01*
X143433063Y-59459471D01*
X143483860Y-59509072D01*
X143500000Y-59570771D01*
X143500000Y-61597627D01*
X143479998Y-61665748D01*
X143426342Y-61712241D01*
X143356068Y-61722345D01*
X143291488Y-61692851D01*
X143274038Y-61674331D01*
X143220474Y-61604525D01*
X143104649Y-61515649D01*
X143104641Y-61515644D01*
X142969752Y-61459771D01*
X142825000Y-61440715D01*
X142680247Y-61459771D01*
X142612801Y-61487708D01*
X142545358Y-61515645D01*
X142545357Y-61515646D01*
X142545356Y-61515646D01*
X142429526Y-61604526D01*
X142340646Y-61720356D01*
X142340645Y-61720358D01*
X142319958Y-61770300D01*
X142284771Y-61855247D01*
X142265715Y-61999999D01*
X142265715Y-62000000D01*
X142284771Y-62144752D01*
X142340644Y-62279641D01*
X142340649Y-62279649D01*
X142429525Y-62395474D01*
X142545350Y-62484350D01*
X142545357Y-62484355D01*
X142680246Y-62540228D01*
X142825000Y-62559285D01*
X142969754Y-62540228D01*
X143104643Y-62484355D01*
X143220474Y-62395474D01*
X143251179Y-62355459D01*
X143274038Y-62325669D01*
X143331376Y-62283802D01*
X143402247Y-62279580D01*
X143464150Y-62314344D01*
X143497431Y-62377057D01*
X143500000Y-62402373D01*
X143500000Y-63097627D01*
X143479998Y-63165748D01*
X143426342Y-63212241D01*
X143356068Y-63222345D01*
X143291488Y-63192851D01*
X143274038Y-63174331D01*
X143220474Y-63104525D01*
X143104649Y-63015649D01*
X143104641Y-63015644D01*
X142969752Y-62959771D01*
X142825000Y-62940715D01*
X142680247Y-62959771D01*
X142612801Y-62987708D01*
X142545358Y-63015645D01*
X142545357Y-63015646D01*
X142545356Y-63015646D01*
X142429526Y-63104526D01*
X142340646Y-63220356D01*
X142340645Y-63220358D01*
X142316089Y-63279641D01*
X142284771Y-63355247D01*
X142265715Y-63499999D01*
X142265715Y-63500000D01*
X142284771Y-63644752D01*
X142340644Y-63779641D01*
X142340649Y-63779649D01*
X142429525Y-63895474D01*
X142544399Y-63983620D01*
X142545357Y-63984355D01*
X142680246Y-64040228D01*
X142752623Y-64049756D01*
X142824999Y-64059285D01*
X142824999Y-64059284D01*
X142825000Y-64059285D01*
X142969754Y-64040228D01*
X143104643Y-63984355D01*
X143220474Y-63895474D01*
X143239109Y-63871189D01*
X143274038Y-63825669D01*
X143331376Y-63783802D01*
X143402247Y-63779580D01*
X143464150Y-63814344D01*
X143497431Y-63877057D01*
X143500000Y-63902373D01*
X143500000Y-70929228D01*
X143479998Y-70997349D01*
X143426342Y-71043842D01*
X143356068Y-71053946D01*
X143297296Y-71029191D01*
X143285783Y-71020357D01*
X143279643Y-71015645D01*
X143241871Y-70999999D01*
X143144752Y-70959771D01*
X143000000Y-70940715D01*
X142855247Y-70959771D01*
X142807259Y-70979649D01*
X142720358Y-71015645D01*
X142720357Y-71015646D01*
X142720356Y-71015646D01*
X142604526Y-71104526D01*
X142515646Y-71220356D01*
X142515645Y-71220358D01*
X142499521Y-71259285D01*
X142459771Y-71355247D01*
X142440715Y-71499999D01*
X142440715Y-71500000D01*
X142459771Y-71644752D01*
X142515644Y-71779641D01*
X142515649Y-71779649D01*
X142604525Y-71895474D01*
X142709007Y-71975646D01*
X142720357Y-71984355D01*
X142855246Y-72040228D01*
X143000000Y-72059285D01*
X143144754Y-72040228D01*
X143279643Y-71984355D01*
X143297296Y-71970809D01*
X143363514Y-71945208D01*
X143433063Y-71959471D01*
X143483860Y-72009072D01*
X143500000Y-72070771D01*
X143500000Y-74097627D01*
X143479998Y-74165748D01*
X143426342Y-74212241D01*
X143356068Y-74222345D01*
X143291488Y-74192851D01*
X143274038Y-74174331D01*
X143220474Y-74104525D01*
X143104649Y-74015649D01*
X143104641Y-74015644D01*
X142969752Y-73959771D01*
X142825000Y-73940715D01*
X142680247Y-73959771D01*
X142612801Y-73987708D01*
X142545358Y-74015645D01*
X142545357Y-74015646D01*
X142545356Y-74015646D01*
X142429526Y-74104526D01*
X142340646Y-74220356D01*
X142340645Y-74220358D01*
X142320281Y-74269520D01*
X142284771Y-74355247D01*
X142265715Y-74499999D01*
X142265715Y-74500000D01*
X142284771Y-74644752D01*
X142340644Y-74779641D01*
X142340649Y-74779649D01*
X142429525Y-74895474D01*
X142513617Y-74960000D01*
X142545357Y-74984355D01*
X142680246Y-75040228D01*
X142825000Y-75059285D01*
X142969754Y-75040228D01*
X143104643Y-74984355D01*
X143220474Y-74895474D01*
X143274037Y-74825669D01*
X143331376Y-74783802D01*
X143402247Y-74779580D01*
X143464150Y-74814344D01*
X143497431Y-74877057D01*
X143500000Y-74902373D01*
X143500000Y-75597627D01*
X143479998Y-75665748D01*
X143426342Y-75712241D01*
X143356068Y-75722345D01*
X143291488Y-75692851D01*
X143274038Y-75674331D01*
X143220474Y-75604525D01*
X143104649Y-75515649D01*
X143104641Y-75515644D01*
X142969752Y-75459771D01*
X142825000Y-75440715D01*
X142680247Y-75459771D01*
X142612801Y-75487708D01*
X142545358Y-75515645D01*
X142545357Y-75515646D01*
X142545356Y-75515646D01*
X142429526Y-75604526D01*
X142340646Y-75720356D01*
X142340645Y-75720358D01*
X142330169Y-75745649D01*
X142284771Y-75855247D01*
X142265715Y-75999999D01*
X142265715Y-76000000D01*
X142284771Y-76144752D01*
X142340644Y-76279641D01*
X142340649Y-76279649D01*
X142429525Y-76395474D01*
X142544399Y-76483620D01*
X142545357Y-76484355D01*
X142680246Y-76540228D01*
X142752623Y-76549756D01*
X142824999Y-76559285D01*
X142824999Y-76559284D01*
X142825000Y-76559285D01*
X142969754Y-76540228D01*
X143104643Y-76484355D01*
X143220474Y-76395474D01*
X143239109Y-76371189D01*
X143274038Y-76325669D01*
X143331376Y-76283802D01*
X143402247Y-76279580D01*
X143464150Y-76314344D01*
X143497431Y-76377057D01*
X143500000Y-76402373D01*
X143500000Y-83874000D01*
X143479998Y-83942121D01*
X143426342Y-83988614D01*
X143374000Y-84000000D01*
X105126000Y-84000000D01*
X105057879Y-83979998D01*
X105011386Y-83926342D01*
X105000000Y-83874000D01*
X105000000Y-82725000D01*
X121165715Y-82725000D01*
X121184771Y-82869752D01*
X121240644Y-83004641D01*
X121240649Y-83004649D01*
X121329525Y-83120474D01*
X121445350Y-83209350D01*
X121445357Y-83209355D01*
X121580246Y-83265228D01*
X121725000Y-83284285D01*
X121869754Y-83265228D01*
X122004643Y-83209355D01*
X122120474Y-83120474D01*
X122209355Y-83004643D01*
X122265228Y-82869754D01*
X122284285Y-82725000D01*
X122265228Y-82580246D01*
X122209355Y-82445358D01*
X122120474Y-82329526D01*
X122120472Y-82329524D01*
X122120471Y-82329523D01*
X122016835Y-82250000D01*
X136190715Y-82250000D01*
X136209771Y-82394752D01*
X136265644Y-82529641D01*
X136265649Y-82529649D01*
X136354525Y-82645474D01*
X136458164Y-82724999D01*
X136470357Y-82734355D01*
X136605246Y-82790228D01*
X136750000Y-82809285D01*
X136894754Y-82790228D01*
X137029643Y-82734355D01*
X137145474Y-82645474D01*
X137234355Y-82529643D01*
X137290228Y-82394754D01*
X137309285Y-82250000D01*
X137308053Y-82240645D01*
X137290228Y-82105247D01*
X137290228Y-82105246D01*
X137234355Y-81970358D01*
X137145474Y-81854526D01*
X137145472Y-81854524D01*
X137145471Y-81854523D01*
X137029649Y-81765649D01*
X137029641Y-81765644D01*
X136894752Y-81709771D01*
X136750000Y-81690715D01*
X136605247Y-81709771D01*
X136537802Y-81737708D01*
X136470358Y-81765645D01*
X136470357Y-81765646D01*
X136470356Y-81765646D01*
X136354526Y-81854526D01*
X136265646Y-81970356D01*
X136265645Y-81970358D01*
X136237708Y-82037801D01*
X136209771Y-82105247D01*
X136190715Y-82249999D01*
X136190715Y-82250000D01*
X122016835Y-82250000D01*
X122004649Y-82240649D01*
X122004641Y-82240644D01*
X121869752Y-82184771D01*
X121725000Y-82165715D01*
X121580247Y-82184771D01*
X121512802Y-82212708D01*
X121445358Y-82240645D01*
X121445357Y-82240646D01*
X121445356Y-82240646D01*
X121329526Y-82329526D01*
X121240646Y-82445356D01*
X121240645Y-82445358D01*
X121212708Y-82512801D01*
X121184771Y-82580247D01*
X121165715Y-82724999D01*
X121165715Y-82725000D01*
X105000000Y-82725000D01*
X105000000Y-81400000D01*
X122240715Y-81400000D01*
X122259771Y-81544752D01*
X122315644Y-81679641D01*
X122315649Y-81679649D01*
X122404525Y-81795474D01*
X122481483Y-81854526D01*
X122520357Y-81884355D01*
X122655246Y-81940228D01*
X122800000Y-81959285D01*
X122944754Y-81940228D01*
X123079643Y-81884355D01*
X123195474Y-81795474D01*
X123284355Y-81679643D01*
X123340228Y-81544754D01*
X123340228Y-81544752D01*
X123343388Y-81537124D01*
X123345631Y-81538053D01*
X123376136Y-81487998D01*
X123439994Y-81456971D01*
X123477342Y-81456302D01*
X123500000Y-81459285D01*
X123644754Y-81440228D01*
X123779643Y-81384355D01*
X123895474Y-81295474D01*
X123984355Y-81179643D01*
X123997732Y-81147345D01*
X124042280Y-81092065D01*
X124109643Y-81069644D01*
X124162354Y-81079154D01*
X124255246Y-81117631D01*
X124400000Y-81136688D01*
X124544754Y-81117631D01*
X124679643Y-81061758D01*
X124795474Y-80972877D01*
X124884355Y-80857046D01*
X124940228Y-80722157D01*
X124959285Y-80577403D01*
X124940228Y-80432649D01*
X124884355Y-80297761D01*
X124795474Y-80181929D01*
X124795472Y-80181927D01*
X124795471Y-80181926D01*
X124679649Y-80093052D01*
X124679641Y-80093047D01*
X124544752Y-80037174D01*
X124400000Y-80018118D01*
X124255247Y-80037174D01*
X124187801Y-80065111D01*
X124120358Y-80093048D01*
X124120357Y-80093049D01*
X124120356Y-80093049D01*
X124004526Y-80181929D01*
X123915646Y-80297759D01*
X123915642Y-80297766D01*
X123902265Y-80330060D01*
X123857715Y-80385339D01*
X123790351Y-80407758D01*
X123737641Y-80398247D01*
X123644754Y-80359772D01*
X123644752Y-80359771D01*
X123500000Y-80340715D01*
X123355247Y-80359771D01*
X123295910Y-80384350D01*
X123220358Y-80415645D01*
X123220357Y-80415646D01*
X123220356Y-80415646D01*
X123104526Y-80504526D01*
X123015646Y-80620356D01*
X123015645Y-80620358D01*
X122965168Y-80742220D01*
X122956612Y-80762876D01*
X122954371Y-80761947D01*
X122923842Y-80812020D01*
X122859977Y-80843033D01*
X122822654Y-80843697D01*
X122800002Y-80840715D01*
X122800000Y-80840715D01*
X122655247Y-80859771D01*
X122587801Y-80887708D01*
X122520358Y-80915645D01*
X122520357Y-80915646D01*
X122520356Y-80915646D01*
X122404526Y-81004526D01*
X122315646Y-81120356D01*
X122315645Y-81120358D01*
X122308881Y-81136688D01*
X122259771Y-81255247D01*
X122240715Y-81399999D01*
X122240715Y-81400000D01*
X105000000Y-81400000D01*
X105000000Y-80040000D01*
X110890715Y-80040000D01*
X110909771Y-80184752D01*
X110965644Y-80319641D01*
X110965649Y-80319649D01*
X111054525Y-80435474D01*
X111170350Y-80524350D01*
X111170357Y-80524355D01*
X111305246Y-80580228D01*
X111377622Y-80589756D01*
X111449999Y-80599285D01*
X111449999Y-80599284D01*
X111450000Y-80599285D01*
X111594754Y-80580228D01*
X111729643Y-80524355D01*
X111845474Y-80435474D01*
X111934355Y-80319643D01*
X111990228Y-80184754D01*
X112009285Y-80040000D01*
X111990854Y-79900000D01*
X126640715Y-79900000D01*
X126659771Y-80044752D01*
X126715644Y-80179641D01*
X126715649Y-80179649D01*
X126804525Y-80295474D01*
X126920350Y-80384350D01*
X126920357Y-80384355D01*
X127055246Y-80440228D01*
X127200000Y-80459285D01*
X127344754Y-80440228D01*
X127353327Y-80436676D01*
X127423914Y-80429086D01*
X127487402Y-80460864D01*
X127501508Y-80476381D01*
X127554525Y-80545474D01*
X127663125Y-80628806D01*
X127670357Y-80634355D01*
X127805246Y-80690228D01*
X127950000Y-80709285D01*
X128094754Y-80690228D01*
X128229643Y-80634355D01*
X128345474Y-80545474D01*
X128345474Y-80545473D01*
X128349544Y-80541405D01*
X128411856Y-80507379D01*
X128438639Y-80504500D01*
X129087510Y-80504500D01*
X129113366Y-80507181D01*
X129122491Y-80509095D01*
X129155478Y-80504983D01*
X129163267Y-80504500D01*
X129166718Y-80504500D01*
X129166721Y-80504500D01*
X129187184Y-80501084D01*
X129189744Y-80500712D01*
X129211528Y-80497996D01*
X129239895Y-80494461D01*
X129239899Y-80494458D01*
X129247038Y-80492333D01*
X129254040Y-80489929D01*
X129254042Y-80489929D01*
X129298476Y-80465882D01*
X129300773Y-80464698D01*
X129346184Y-80442499D01*
X129346189Y-80442493D01*
X129352231Y-80438179D01*
X129358086Y-80433622D01*
X129358093Y-80433619D01*
X129392345Y-80396410D01*
X129394080Y-80394601D01*
X132397277Y-77391404D01*
X132459589Y-77357379D01*
X132486372Y-77354500D01*
X133450166Y-77354500D01*
X133476022Y-77357181D01*
X133485147Y-77359095D01*
X133518134Y-77354983D01*
X133525923Y-77354500D01*
X133529374Y-77354500D01*
X133529377Y-77354500D01*
X133549840Y-77351084D01*
X133552400Y-77350712D01*
X133574184Y-77347996D01*
X133602551Y-77344461D01*
X133602555Y-77344458D01*
X133609694Y-77342333D01*
X133616696Y-77339929D01*
X133616698Y-77339929D01*
X133661132Y-77315882D01*
X133663429Y-77314698D01*
X133708840Y-77292499D01*
X133708845Y-77292493D01*
X133714887Y-77288179D01*
X133720742Y-77283622D01*
X133720749Y-77283619D01*
X133755001Y-77246410D01*
X133756736Y-77244601D01*
X135501336Y-75500000D01*
X139440715Y-75500000D01*
X139459771Y-75644752D01*
X139515644Y-75779641D01*
X139515649Y-75779649D01*
X139604525Y-75895474D01*
X139720350Y-75984350D01*
X139720357Y-75984355D01*
X139855246Y-76040228D01*
X140000000Y-76059285D01*
X140144754Y-76040228D01*
X140279643Y-75984355D01*
X140395474Y-75895474D01*
X140484355Y-75779643D01*
X140540228Y-75644754D01*
X140559285Y-75500000D01*
X140556958Y-75482328D01*
X140540228Y-75355247D01*
X140540228Y-75355246D01*
X140484355Y-75220358D01*
X140395474Y-75104526D01*
X140395472Y-75104524D01*
X140395471Y-75104523D01*
X140279649Y-75015649D01*
X140279641Y-75015644D01*
X140144752Y-74959771D01*
X140000000Y-74940715D01*
X139855247Y-74959771D01*
X139795910Y-74984350D01*
X139720358Y-75015645D01*
X139720357Y-75015646D01*
X139720356Y-75015646D01*
X139604526Y-75104526D01*
X139515646Y-75220356D01*
X139515645Y-75220358D01*
X139487708Y-75287801D01*
X139459771Y-75355247D01*
X139440715Y-75499999D01*
X139440715Y-75500000D01*
X135501336Y-75500000D01*
X136715428Y-74285908D01*
X136735606Y-74269523D01*
X136743416Y-74264421D01*
X136763843Y-74238174D01*
X136768991Y-74232346D01*
X136771442Y-74229896D01*
X136783521Y-74212976D01*
X136785015Y-74210972D01*
X136816085Y-74171056D01*
X136816088Y-74171045D01*
X136819627Y-74164506D01*
X136822884Y-74157847D01*
X136837312Y-74109381D01*
X136838083Y-74106975D01*
X136854500Y-74059156D01*
X136854500Y-74059149D01*
X136855724Y-74051810D01*
X136856642Y-74044452D01*
X136854554Y-73993973D01*
X136854500Y-73991369D01*
X136854500Y-73000000D01*
X139440715Y-73000000D01*
X139459771Y-73144752D01*
X139515644Y-73279641D01*
X139515649Y-73279649D01*
X139604525Y-73395474D01*
X139692198Y-73462748D01*
X139720357Y-73484355D01*
X139855246Y-73540228D01*
X140000000Y-73559285D01*
X140144754Y-73540228D01*
X140279643Y-73484355D01*
X140395474Y-73395474D01*
X140484355Y-73279643D01*
X140540228Y-73144754D01*
X140559285Y-73000000D01*
X140555186Y-72968868D01*
X140549756Y-72927623D01*
X140540228Y-72855246D01*
X140484355Y-72720358D01*
X140395474Y-72604526D01*
X140395472Y-72604524D01*
X140395471Y-72604523D01*
X140279649Y-72515649D01*
X140279641Y-72515644D01*
X140144752Y-72459771D01*
X140000000Y-72440715D01*
X139855247Y-72459771D01*
X139787802Y-72487708D01*
X139720358Y-72515645D01*
X139720357Y-72515646D01*
X139720356Y-72515646D01*
X139604526Y-72604526D01*
X139515646Y-72720356D01*
X139515645Y-72720358D01*
X139501492Y-72754526D01*
X139459771Y-72855247D01*
X139440715Y-72999999D01*
X139440715Y-73000000D01*
X136854500Y-73000000D01*
X136854500Y-69900000D01*
X139140715Y-69900000D01*
X139159771Y-70044752D01*
X139215644Y-70179641D01*
X139215649Y-70179649D01*
X139304525Y-70295474D01*
X139420350Y-70384350D01*
X139420357Y-70384355D01*
X139555246Y-70440228D01*
X139589610Y-70444752D01*
X139699999Y-70459285D01*
X139699999Y-70459284D01*
X139700000Y-70459285D01*
X139844754Y-70440228D01*
X139979643Y-70384355D01*
X140095474Y-70295474D01*
X140184355Y-70179643D01*
X140240228Y-70044754D01*
X140259285Y-69900000D01*
X140254348Y-69862500D01*
X140940715Y-69862500D01*
X140959771Y-70007252D01*
X141015644Y-70142141D01*
X141015649Y-70142149D01*
X141104525Y-70257974D01*
X141165189Y-70304523D01*
X141220357Y-70346855D01*
X141355246Y-70402728D01*
X141427623Y-70412256D01*
X141499999Y-70421785D01*
X141499999Y-70421784D01*
X141500000Y-70421785D01*
X141644754Y-70402728D01*
X141779643Y-70346855D01*
X141840706Y-70299999D01*
X141898296Y-70255809D01*
X141964516Y-70230208D01*
X142034065Y-70244472D01*
X142051704Y-70255809D01*
X142115189Y-70304523D01*
X142170357Y-70346855D01*
X142305246Y-70402728D01*
X142450000Y-70421785D01*
X142594754Y-70402728D01*
X142729643Y-70346855D01*
X142845474Y-70257974D01*
X142934355Y-70142143D01*
X142990228Y-70007254D01*
X143009285Y-69862500D01*
X143007722Y-69850631D01*
X142990228Y-69717747D01*
X142979035Y-69690725D01*
X142934355Y-69582858D01*
X142845474Y-69467026D01*
X142845472Y-69467024D01*
X142845471Y-69467023D01*
X142729649Y-69378149D01*
X142729641Y-69378144D01*
X142594752Y-69322271D01*
X142450000Y-69303215D01*
X142305247Y-69322271D01*
X142260721Y-69340715D01*
X142170358Y-69378145D01*
X142170356Y-69378146D01*
X142170357Y-69378146D01*
X142170352Y-69378149D01*
X142051703Y-69469191D01*
X141985483Y-69494791D01*
X141915934Y-69480526D01*
X141898296Y-69469191D01*
X141800041Y-69393797D01*
X141779643Y-69378145D01*
X141776114Y-69376683D01*
X141644752Y-69322271D01*
X141500000Y-69303215D01*
X141355247Y-69322271D01*
X141310721Y-69340715D01*
X141220358Y-69378145D01*
X141220357Y-69378146D01*
X141220356Y-69378146D01*
X141104526Y-69467026D01*
X141015646Y-69582856D01*
X141015645Y-69582858D01*
X141000053Y-69620500D01*
X140959771Y-69717747D01*
X140940715Y-69862499D01*
X140940715Y-69862500D01*
X140254348Y-69862500D01*
X140240228Y-69755246D01*
X140184355Y-69620358D01*
X140095474Y-69504526D01*
X140095472Y-69504524D01*
X140095471Y-69504523D01*
X139979649Y-69415649D01*
X139979641Y-69415644D01*
X139844752Y-69359771D01*
X139700000Y-69340715D01*
X139555247Y-69359771D01*
X139507259Y-69379649D01*
X139420358Y-69415645D01*
X139420357Y-69415646D01*
X139420356Y-69415646D01*
X139304526Y-69504526D01*
X139215646Y-69620356D01*
X139215645Y-69620358D01*
X139214420Y-69623316D01*
X139159771Y-69755247D01*
X139140715Y-69899999D01*
X139140715Y-69900000D01*
X136854500Y-69900000D01*
X136854500Y-68044502D01*
X137383534Y-68044502D01*
X137402590Y-68189254D01*
X137458463Y-68324143D01*
X137458468Y-68324151D01*
X137547344Y-68439976D01*
X137625337Y-68499822D01*
X137663176Y-68528857D01*
X137798065Y-68584730D01*
X137942819Y-68603787D01*
X138087573Y-68584730D01*
X138222462Y-68528857D01*
X138338293Y-68439976D01*
X138427174Y-68324145D01*
X138483047Y-68189256D01*
X138502104Y-68044502D01*
X138483047Y-67899748D01*
X138427174Y-67764860D01*
X138338293Y-67649028D01*
X138338291Y-67649026D01*
X138338290Y-67649025D01*
X138222468Y-67560151D01*
X138222460Y-67560146D01*
X138087571Y-67504273D01*
X137942819Y-67485217D01*
X137798066Y-67504273D01*
X137741918Y-67527531D01*
X137663177Y-67560147D01*
X137663176Y-67560148D01*
X137663175Y-67560148D01*
X137547345Y-67649028D01*
X137458465Y-67764858D01*
X137458464Y-67764860D01*
X137438627Y-67812750D01*
X137402590Y-67899749D01*
X137383534Y-68044501D01*
X137383534Y-68044502D01*
X136854500Y-68044502D01*
X136854500Y-63199028D01*
X136874502Y-63130907D01*
X136891405Y-63109933D01*
X137001338Y-63000000D01*
X139440715Y-63000000D01*
X139459771Y-63144752D01*
X139515644Y-63279641D01*
X139515649Y-63279649D01*
X139604525Y-63395474D01*
X139720350Y-63484350D01*
X139720357Y-63484355D01*
X139855246Y-63540228D01*
X140000000Y-63559285D01*
X140144754Y-63540228D01*
X140279643Y-63484355D01*
X140395474Y-63395474D01*
X140484355Y-63279643D01*
X140540228Y-63144754D01*
X140559285Y-63000000D01*
X140540228Y-62855246D01*
X140484355Y-62720358D01*
X140395474Y-62604526D01*
X140395472Y-62604524D01*
X140395471Y-62604523D01*
X140279649Y-62515649D01*
X140279641Y-62515644D01*
X140144752Y-62459771D01*
X140000000Y-62440715D01*
X139855247Y-62459771D01*
X139796212Y-62484225D01*
X139720358Y-62515645D01*
X139720357Y-62515646D01*
X139720356Y-62515646D01*
X139604526Y-62604526D01*
X139515646Y-62720356D01*
X139515645Y-62720358D01*
X139487708Y-62787801D01*
X139459771Y-62855247D01*
X139440715Y-62999999D01*
X139440715Y-63000000D01*
X137001338Y-63000000D01*
X137517113Y-62484225D01*
X138165432Y-61835905D01*
X138185599Y-61819527D01*
X138193416Y-61814421D01*
X138213843Y-61788174D01*
X138218991Y-61782346D01*
X138221442Y-61779896D01*
X138233521Y-61762976D01*
X138235015Y-61760972D01*
X138266085Y-61721056D01*
X138266088Y-61721045D01*
X138269627Y-61714506D01*
X138272884Y-61707847D01*
X138287312Y-61659381D01*
X138288083Y-61656975D01*
X138304500Y-61609156D01*
X138304500Y-61609149D01*
X138305724Y-61601810D01*
X138306642Y-61594452D01*
X138304554Y-61543973D01*
X138304500Y-61541369D01*
X138304500Y-60343750D01*
X139284465Y-60343750D01*
X139303521Y-60488502D01*
X139359394Y-60623391D01*
X139359399Y-60623399D01*
X139448275Y-60739224D01*
X139564100Y-60828100D01*
X139564107Y-60828105D01*
X139698996Y-60883978D01*
X139843750Y-60903035D01*
X139988504Y-60883978D01*
X140123393Y-60828105D01*
X140239224Y-60739224D01*
X140328105Y-60623393D01*
X140383978Y-60488504D01*
X140403035Y-60343750D01*
X140383978Y-60198996D01*
X140328105Y-60064108D01*
X140239224Y-59948276D01*
X140239222Y-59948274D01*
X140239221Y-59948273D01*
X140123399Y-59859399D01*
X140123391Y-59859394D01*
X139988502Y-59803521D01*
X139843750Y-59784465D01*
X139698997Y-59803521D01*
X139631551Y-59831458D01*
X139564108Y-59859395D01*
X139564107Y-59859396D01*
X139564106Y-59859396D01*
X139448276Y-59948276D01*
X139359396Y-60064106D01*
X139359395Y-60064108D01*
X139342653Y-60104526D01*
X139303521Y-60198997D01*
X139284465Y-60343749D01*
X139284465Y-60343750D01*
X138304500Y-60343750D01*
X138304500Y-59799029D01*
X138324502Y-59730908D01*
X138341405Y-59709933D01*
X138342499Y-59708840D01*
X138394461Y-59602550D01*
X138404500Y-59533646D01*
X138404500Y-58191354D01*
X138394461Y-58122450D01*
X138342499Y-58016160D01*
X138342498Y-58016158D01*
X138258841Y-57932501D01*
X138258839Y-57932500D01*
X138152552Y-57880540D01*
X138152550Y-57880539D01*
X138083647Y-57870500D01*
X138083646Y-57870500D01*
X137816354Y-57870500D01*
X137816352Y-57870500D01*
X137747449Y-57880539D01*
X137747444Y-57880540D01*
X137680338Y-57913347D01*
X137610355Y-57925296D01*
X137569662Y-57913347D01*
X137502555Y-57880540D01*
X137502550Y-57880539D01*
X137433647Y-57870500D01*
X137433646Y-57870500D01*
X137166354Y-57870500D01*
X137166352Y-57870500D01*
X137097449Y-57880539D01*
X137097444Y-57880540D01*
X137030338Y-57913347D01*
X136960355Y-57925296D01*
X136919662Y-57913347D01*
X136852555Y-57880540D01*
X136852550Y-57880539D01*
X136783647Y-57870500D01*
X136783646Y-57870500D01*
X136516354Y-57870500D01*
X136516352Y-57870500D01*
X136447449Y-57880539D01*
X136447444Y-57880540D01*
X136380338Y-57913347D01*
X136310355Y-57925296D01*
X136269662Y-57913347D01*
X136202555Y-57880540D01*
X136202550Y-57880539D01*
X136133647Y-57870500D01*
X136133646Y-57870500D01*
X135866354Y-57870500D01*
X135866352Y-57870500D01*
X135797449Y-57880539D01*
X135797447Y-57880540D01*
X135691160Y-57932500D01*
X135691158Y-57932501D01*
X135607501Y-58016158D01*
X135607500Y-58016160D01*
X135555540Y-58122447D01*
X135555539Y-58122449D01*
X135545500Y-58191352D01*
X135545500Y-59533647D01*
X135555539Y-59602550D01*
X135555540Y-59602552D01*
X135607498Y-59708836D01*
X135607500Y-59708838D01*
X135607501Y-59708840D01*
X135608591Y-59709930D01*
X135609604Y-59711785D01*
X135613567Y-59717335D01*
X135612896Y-59717813D01*
X135642619Y-59772239D01*
X135645500Y-59799029D01*
X135645500Y-61913625D01*
X135625498Y-61981746D01*
X135608595Y-62002720D01*
X135303569Y-62307746D01*
X135283397Y-62324129D01*
X135275586Y-62329232D01*
X135275585Y-62329233D01*
X135255172Y-62355459D01*
X135250006Y-62361309D01*
X135247558Y-62363757D01*
X135235494Y-62380653D01*
X135233941Y-62382736D01*
X135202912Y-62422603D01*
X135199378Y-62429132D01*
X135196115Y-62435808D01*
X135181700Y-62484225D01*
X135180907Y-62486702D01*
X135164499Y-62534501D01*
X135163277Y-62541826D01*
X135162357Y-62549201D01*
X135164446Y-62599670D01*
X135164500Y-62602274D01*
X135164500Y-73394627D01*
X135144498Y-73462748D01*
X135127595Y-73483722D01*
X133002722Y-75608595D01*
X132940410Y-75642621D01*
X132913627Y-75645500D01*
X131949834Y-75645500D01*
X131923977Y-75642818D01*
X131922137Y-75642432D01*
X131914851Y-75640904D01*
X131894283Y-75643468D01*
X131881865Y-75645016D01*
X131874077Y-75645500D01*
X131870619Y-75645500D01*
X131850155Y-75648914D01*
X131847582Y-75649289D01*
X131797448Y-75655538D01*
X131790299Y-75657666D01*
X131783304Y-75660069D01*
X131738847Y-75684127D01*
X131736535Y-75685317D01*
X131691158Y-75707501D01*
X131685108Y-75711820D01*
X131679248Y-75716382D01*
X131645031Y-75753553D01*
X131643227Y-75755432D01*
X130549884Y-76848777D01*
X129490066Y-77908595D01*
X129427754Y-77942620D01*
X129400971Y-77945500D01*
X127888639Y-77945500D01*
X127820518Y-77925498D01*
X127799544Y-77908595D01*
X127795475Y-77904526D01*
X127679649Y-77815649D01*
X127679641Y-77815644D01*
X127544752Y-77759771D01*
X127400000Y-77740715D01*
X127255247Y-77759771D01*
X127211170Y-77778029D01*
X127120358Y-77815645D01*
X127120357Y-77815646D01*
X127120356Y-77815646D01*
X127004526Y-77904526D01*
X126915646Y-78020356D01*
X126915645Y-78020358D01*
X126896714Y-78066061D01*
X126859771Y-78155247D01*
X126840715Y-78299999D01*
X126840715Y-78300000D01*
X126859771Y-78444752D01*
X126915644Y-78579641D01*
X126915649Y-78579649D01*
X127004525Y-78695474D01*
X127120350Y-78784350D01*
X127120357Y-78784355D01*
X127255246Y-78840228D01*
X127255247Y-78840228D01*
X127262876Y-78843388D01*
X127262282Y-78844820D01*
X127314981Y-78876938D01*
X127346005Y-78940798D01*
X127346672Y-78945250D01*
X127359772Y-79044754D01*
X127384414Y-79104247D01*
X127392003Y-79174837D01*
X127360223Y-79238324D01*
X127357100Y-79241558D01*
X127294848Y-79303811D01*
X127232539Y-79337835D01*
X127205755Y-79340715D01*
X127200000Y-79340715D01*
X127055247Y-79359771D01*
X126987802Y-79387708D01*
X126920358Y-79415645D01*
X126920357Y-79415646D01*
X126920356Y-79415646D01*
X126804526Y-79504526D01*
X126715646Y-79620356D01*
X126715645Y-79620358D01*
X126687932Y-79687262D01*
X126659771Y-79755247D01*
X126640715Y-79899999D01*
X126640715Y-79900000D01*
X111990854Y-79900000D01*
X111990228Y-79895246D01*
X111934355Y-79760358D01*
X111845474Y-79644526D01*
X111845472Y-79644524D01*
X111845471Y-79644523D01*
X111729649Y-79555649D01*
X111729641Y-79555644D01*
X111594752Y-79499771D01*
X111450000Y-79480715D01*
X111305247Y-79499771D01*
X111237802Y-79527708D01*
X111170358Y-79555645D01*
X111170357Y-79555646D01*
X111170356Y-79555646D01*
X111054526Y-79644526D01*
X110965646Y-79760356D01*
X110965645Y-79760358D01*
X110937708Y-79827802D01*
X110909771Y-79895247D01*
X110890715Y-80039999D01*
X110890715Y-80040000D01*
X105000000Y-80040000D01*
X105000000Y-76230000D01*
X110890715Y-76230000D01*
X110909771Y-76374752D01*
X110965644Y-76509641D01*
X110965649Y-76509649D01*
X111054525Y-76625474D01*
X111170350Y-76714350D01*
X111170357Y-76714355D01*
X111305246Y-76770228D01*
X111450000Y-76789285D01*
X111594754Y-76770228D01*
X111729643Y-76714355D01*
X111845474Y-76625474D01*
X111934355Y-76509643D01*
X111990228Y-76374754D01*
X112009285Y-76230000D01*
X111990228Y-76085246D01*
X111934355Y-75950358D01*
X111845474Y-75834526D01*
X111845472Y-75834524D01*
X111845471Y-75834523D01*
X111729649Y-75745649D01*
X111729641Y-75745644D01*
X111708453Y-75736868D01*
X111646987Y-75711407D01*
X111591708Y-75666861D01*
X111569287Y-75599497D01*
X111586845Y-75530706D01*
X111638807Y-75482328D01*
X111646977Y-75478596D01*
X111729643Y-75444355D01*
X111845474Y-75355474D01*
X111934355Y-75239643D01*
X111990228Y-75104754D01*
X112009285Y-74960000D01*
X111990228Y-74815246D01*
X111934355Y-74680358D01*
X111845474Y-74564526D01*
X111845472Y-74564524D01*
X111845471Y-74564523D01*
X111729649Y-74475649D01*
X111729641Y-74475644D01*
X111594752Y-74419771D01*
X111450000Y-74400715D01*
X111305247Y-74419771D01*
X111237802Y-74447708D01*
X111170358Y-74475645D01*
X111170357Y-74475646D01*
X111170356Y-74475646D01*
X111054526Y-74564526D01*
X110965646Y-74680356D01*
X110965645Y-74680358D01*
X110937708Y-74747802D01*
X110909771Y-74815247D01*
X110890715Y-74959999D01*
X110890715Y-74960000D01*
X110909771Y-75104752D01*
X110965644Y-75239641D01*
X110965649Y-75239649D01*
X111054525Y-75355474D01*
X111165613Y-75440715D01*
X111170357Y-75444355D01*
X111253012Y-75478592D01*
X111308291Y-75523138D01*
X111330712Y-75590501D01*
X111313154Y-75659293D01*
X111261192Y-75707671D01*
X111253012Y-75711407D01*
X111170361Y-75745643D01*
X111170356Y-75745646D01*
X111054526Y-75834526D01*
X110965646Y-75950356D01*
X110965645Y-75950358D01*
X110937708Y-76017801D01*
X110909771Y-76085247D01*
X110890715Y-76229999D01*
X110890715Y-76230000D01*
X105000000Y-76230000D01*
X105000000Y-74960000D01*
X107040715Y-74960000D01*
X107059771Y-75104752D01*
X107115644Y-75239641D01*
X107115649Y-75239649D01*
X107204525Y-75355474D01*
X107315613Y-75440715D01*
X107320357Y-75444355D01*
X107455246Y-75500228D01*
X107600000Y-75519285D01*
X107744754Y-75500228D01*
X107879643Y-75444355D01*
X107995474Y-75355474D01*
X108084355Y-75239643D01*
X108140228Y-75104754D01*
X108159285Y-74960000D01*
X108140228Y-74815246D01*
X108084355Y-74680358D01*
X107995474Y-74564526D01*
X107995472Y-74564524D01*
X107995471Y-74564523D01*
X107879649Y-74475649D01*
X107879641Y-74475644D01*
X107744752Y-74419771D01*
X107600000Y-74400715D01*
X107455247Y-74419771D01*
X107387801Y-74447708D01*
X107320358Y-74475645D01*
X107320357Y-74475646D01*
X107320356Y-74475646D01*
X107204526Y-74564526D01*
X107115646Y-74680356D01*
X107115645Y-74680358D01*
X107087708Y-74747801D01*
X107059771Y-74815247D01*
X107040715Y-74959999D01*
X107040715Y-74960000D01*
X105000000Y-74960000D01*
X105000000Y-72460000D01*
X116940715Y-72460000D01*
X116959771Y-72604752D01*
X117015644Y-72739641D01*
X117015649Y-72739649D01*
X117104525Y-72855474D01*
X117220350Y-72944350D01*
X117220357Y-72944355D01*
X117355246Y-73000228D01*
X117393370Y-73005247D01*
X117481162Y-73016805D01*
X117546089Y-73045527D01*
X117585181Y-73104792D01*
X117589467Y-73141742D01*
X117590715Y-73141742D01*
X117590715Y-73150000D01*
X117609771Y-73294752D01*
X117665644Y-73429641D01*
X117665649Y-73429649D01*
X117754525Y-73545474D01*
X117870350Y-73634350D01*
X117870357Y-73634355D01*
X118005246Y-73690228D01*
X118150000Y-73709285D01*
X118294754Y-73690228D01*
X118429643Y-73634355D01*
X118545474Y-73545474D01*
X118634355Y-73429643D01*
X118690228Y-73294754D01*
X118709285Y-73150000D01*
X118690228Y-73005246D01*
X118634355Y-72870358D01*
X118580367Y-72800000D01*
X132740715Y-72800000D01*
X132759771Y-72944752D01*
X132815644Y-73079641D01*
X132815649Y-73079649D01*
X132904525Y-73195474D01*
X133014216Y-73279643D01*
X133020357Y-73284355D01*
X133155246Y-73340228D01*
X133227623Y-73349756D01*
X133299999Y-73359285D01*
X133299999Y-73359284D01*
X133300000Y-73359285D01*
X133444754Y-73340228D01*
X133579643Y-73284355D01*
X133695474Y-73195474D01*
X133784355Y-73079643D01*
X133840228Y-72944754D01*
X133859285Y-72800000D01*
X133840228Y-72655246D01*
X133784355Y-72520358D01*
X133695474Y-72404526D01*
X133695472Y-72404524D01*
X133695471Y-72404523D01*
X133579649Y-72315649D01*
X133579641Y-72315644D01*
X133444752Y-72259771D01*
X133300000Y-72240715D01*
X133155247Y-72259771D01*
X133087802Y-72287708D01*
X133020358Y-72315645D01*
X133020357Y-72315646D01*
X133020356Y-72315646D01*
X132904526Y-72404526D01*
X132815646Y-72520356D01*
X132815645Y-72520358D01*
X132806430Y-72542605D01*
X132759771Y-72655247D01*
X132740715Y-72799999D01*
X132740715Y-72800000D01*
X118580367Y-72800000D01*
X118545474Y-72754526D01*
X118545472Y-72754524D01*
X118545471Y-72754523D01*
X118429649Y-72665649D01*
X118429641Y-72665644D01*
X118294752Y-72609771D01*
X118168836Y-72593194D01*
X118103909Y-72564471D01*
X118064818Y-72505206D01*
X118061937Y-72468258D01*
X118059285Y-72468258D01*
X118059284Y-72460007D01*
X118059285Y-72460000D01*
X118040228Y-72315246D01*
X117984355Y-72180358D01*
X117895474Y-72064526D01*
X117895472Y-72064524D01*
X117895471Y-72064523D01*
X117779649Y-71975649D01*
X117779641Y-71975644D01*
X117644752Y-71919771D01*
X117500000Y-71900715D01*
X117355247Y-71919771D01*
X117293839Y-71945208D01*
X117220358Y-71975645D01*
X117220357Y-71975646D01*
X117220356Y-71975646D01*
X117104526Y-72064526D01*
X117015646Y-72180356D01*
X117015645Y-72180358D01*
X116995081Y-72230003D01*
X116959771Y-72315247D01*
X116940715Y-72459999D01*
X116940715Y-72460000D01*
X105000000Y-72460000D01*
X105000000Y-70500000D01*
X115840715Y-70500000D01*
X115859771Y-70644752D01*
X115915644Y-70779641D01*
X115915649Y-70779649D01*
X116004525Y-70895474D01*
X116114216Y-70979643D01*
X116120357Y-70984355D01*
X116255246Y-71040228D01*
X116354749Y-71053327D01*
X116419675Y-71082049D01*
X116456133Y-71137322D01*
X116456612Y-71137124D01*
X116457639Y-71139604D01*
X116458767Y-71141314D01*
X116459715Y-71144617D01*
X116515644Y-71279641D01*
X116515649Y-71279649D01*
X116604525Y-71395474D01*
X116668748Y-71444754D01*
X116720357Y-71484355D01*
X116855246Y-71540228D01*
X117000000Y-71559285D01*
X117144754Y-71540228D01*
X117279643Y-71484355D01*
X117395474Y-71395474D01*
X117484355Y-71279643D01*
X117540228Y-71144754D01*
X117559285Y-71000000D01*
X117540228Y-70855246D01*
X117484355Y-70720358D01*
X117395474Y-70604526D01*
X117395472Y-70604524D01*
X117395471Y-70604523D01*
X117279649Y-70515649D01*
X117279641Y-70515644D01*
X117144752Y-70459771D01*
X117045250Y-70446672D01*
X116980323Y-70417949D01*
X116943866Y-70362678D01*
X116943388Y-70362877D01*
X116942358Y-70360392D01*
X116941232Y-70358684D01*
X116940284Y-70355383D01*
X116940228Y-70355247D01*
X116940228Y-70355246D01*
X116931836Y-70334987D01*
X121357795Y-70334987D01*
X121376851Y-70479739D01*
X121432724Y-70614628D01*
X121432729Y-70614636D01*
X121521605Y-70730461D01*
X121632619Y-70815645D01*
X121637437Y-70819342D01*
X121772326Y-70875215D01*
X121812645Y-70880523D01*
X121917079Y-70894272D01*
X121917079Y-70894271D01*
X121917080Y-70894272D01*
X122061834Y-70875215D01*
X122144876Y-70840817D01*
X122215462Y-70833229D01*
X122278949Y-70865008D01*
X122293053Y-70880523D01*
X122304525Y-70895474D01*
X122351393Y-70931437D01*
X122393260Y-70988775D01*
X122397482Y-71059646D01*
X122391098Y-71079616D01*
X122359773Y-71155242D01*
X122359771Y-71155246D01*
X122340715Y-71299999D01*
X122340715Y-71300000D01*
X122359771Y-71444752D01*
X122415644Y-71579641D01*
X122415649Y-71579649D01*
X122504525Y-71695474D01*
X122614216Y-71779643D01*
X122620357Y-71784355D01*
X122755246Y-71840228D01*
X122827623Y-71849756D01*
X122899999Y-71859285D01*
X122899999Y-71859284D01*
X122900000Y-71859285D01*
X123044754Y-71840228D01*
X123179643Y-71784355D01*
X123295474Y-71695474D01*
X123384355Y-71579643D01*
X123440228Y-71444754D01*
X123459285Y-71300000D01*
X123440228Y-71155246D01*
X123384355Y-71020358D01*
X123295474Y-70904526D01*
X123295472Y-70904524D01*
X123295471Y-70904523D01*
X123248606Y-70868562D01*
X123206739Y-70811224D01*
X123202517Y-70740353D01*
X123208896Y-70720393D01*
X123240228Y-70644754D01*
X123259285Y-70500000D01*
X123240228Y-70355246D01*
X123184355Y-70220358D01*
X123095474Y-70104526D01*
X123095472Y-70104524D01*
X123095471Y-70104523D01*
X122979649Y-70015649D01*
X122979641Y-70015644D01*
X122844752Y-69959771D01*
X122700000Y-69940715D01*
X122555246Y-69959771D01*
X122555245Y-69959772D01*
X122472206Y-69994168D01*
X122401616Y-70001757D01*
X122338129Y-69969977D01*
X122324028Y-69954467D01*
X122312554Y-69939513D01*
X122312552Y-69939511D01*
X122312551Y-69939510D01*
X122196729Y-69850636D01*
X122196721Y-69850631D01*
X122061832Y-69794758D01*
X121917080Y-69775702D01*
X121772327Y-69794758D01*
X121704881Y-69822695D01*
X121637438Y-69850632D01*
X121637437Y-69850633D01*
X121637436Y-69850633D01*
X121521606Y-69939513D01*
X121432726Y-70055343D01*
X121432725Y-70055345D01*
X121404788Y-70122788D01*
X121376851Y-70190234D01*
X121357795Y-70334986D01*
X121357795Y-70334987D01*
X116931836Y-70334987D01*
X116884355Y-70220358D01*
X116795474Y-70104526D01*
X116795472Y-70104524D01*
X116795471Y-70104523D01*
X116679649Y-70015649D01*
X116679641Y-70015644D01*
X116544752Y-69959771D01*
X116400000Y-69940715D01*
X116255247Y-69959771D01*
X116187801Y-69987708D01*
X116120358Y-70015645D01*
X116120357Y-70015646D01*
X116120356Y-70015646D01*
X116004526Y-70104526D01*
X115915646Y-70220356D01*
X115915645Y-70220358D01*
X115911565Y-70230208D01*
X115859771Y-70355247D01*
X115840715Y-70499999D01*
X115840715Y-70500000D01*
X105000000Y-70500000D01*
X105000000Y-68734228D01*
X106910784Y-68734228D01*
X106915747Y-68825770D01*
X106920682Y-68916777D01*
X106920683Y-68916788D01*
X106969589Y-69092934D01*
X106969591Y-69092939D01*
X107055223Y-69254457D01*
X107173579Y-69393796D01*
X107173580Y-69393797D01*
X107319122Y-69504435D01*
X107485045Y-69581199D01*
X107485048Y-69581199D01*
X107485049Y-69581200D01*
X107522225Y-69589383D01*
X107663590Y-69620500D01*
X107663592Y-69620500D01*
X107800562Y-69620500D01*
X107800570Y-69620500D01*
X107811688Y-69619290D01*
X107936741Y-69605691D01*
X107936742Y-69605690D01*
X107936748Y-69605690D01*
X108109998Y-69547315D01*
X108266648Y-69453062D01*
X108399374Y-69327337D01*
X108501971Y-69176019D01*
X108532259Y-69100000D01*
X123940715Y-69100000D01*
X123959771Y-69244752D01*
X124015644Y-69379641D01*
X124015649Y-69379649D01*
X124104525Y-69495474D01*
X124226909Y-69589383D01*
X124224756Y-69592188D01*
X124262522Y-69631705D01*
X124276037Y-69701403D01*
X124267005Y-69737782D01*
X124259772Y-69755245D01*
X124240715Y-69899999D01*
X124240715Y-69900000D01*
X124259771Y-70044752D01*
X124315644Y-70179641D01*
X124315649Y-70179649D01*
X124404525Y-70295474D01*
X124520350Y-70384350D01*
X124520357Y-70384355D01*
X124655246Y-70440228D01*
X124800000Y-70459285D01*
X124861363Y-70451206D01*
X124931510Y-70462145D01*
X124984609Y-70509273D01*
X124994214Y-70527904D01*
X125005540Y-70555247D01*
X125015644Y-70579641D01*
X125015649Y-70579649D01*
X125104525Y-70695474D01*
X125214216Y-70779643D01*
X125220357Y-70784355D01*
X125355246Y-70840228D01*
X125500000Y-70859285D01*
X125644754Y-70840228D01*
X125779643Y-70784355D01*
X125889576Y-70700000D01*
X129440715Y-70700000D01*
X129459771Y-70844752D01*
X129515644Y-70979641D01*
X129515649Y-70979649D01*
X129604525Y-71095474D01*
X129720350Y-71184350D01*
X129720357Y-71184355D01*
X129855246Y-71240228D01*
X130000000Y-71259285D01*
X130144754Y-71240228D01*
X130279643Y-71184355D01*
X130395474Y-71095474D01*
X130484355Y-70979643D01*
X130540228Y-70844754D01*
X130559285Y-70700000D01*
X130540228Y-70555246D01*
X130484355Y-70420358D01*
X130395474Y-70304526D01*
X130395472Y-70304524D01*
X130395471Y-70304523D01*
X130279649Y-70215649D01*
X130279641Y-70215644D01*
X130144752Y-70159771D01*
X130000000Y-70140715D01*
X129855247Y-70159771D01*
X129807259Y-70179649D01*
X129720358Y-70215645D01*
X129720357Y-70215646D01*
X129720356Y-70215646D01*
X129604526Y-70304526D01*
X129515646Y-70420356D01*
X129515645Y-70420358D01*
X129499319Y-70459772D01*
X129459771Y-70555247D01*
X129440715Y-70699999D01*
X129440715Y-70700000D01*
X125889576Y-70700000D01*
X125895474Y-70695474D01*
X125984355Y-70579643D01*
X126040228Y-70444754D01*
X126059285Y-70300000D01*
X126040228Y-70155246D01*
X125984355Y-70020358D01*
X125895474Y-69904526D01*
X125895472Y-69904524D01*
X125895471Y-69904523D01*
X125779649Y-69815649D01*
X125779641Y-69815644D01*
X125644752Y-69759771D01*
X125500000Y-69740715D01*
X125499998Y-69740715D01*
X125438636Y-69748793D01*
X125368488Y-69737853D01*
X125315389Y-69690725D01*
X125305786Y-69672097D01*
X125284355Y-69620358D01*
X125195474Y-69504526D01*
X125195472Y-69504524D01*
X125195471Y-69504523D01*
X125073091Y-69410617D01*
X125075211Y-69407853D01*
X125037319Y-69367986D01*
X125023995Y-69298251D01*
X125032995Y-69262215D01*
X125040228Y-69244754D01*
X125059285Y-69100000D01*
X125040228Y-68955246D01*
X124984355Y-68820358D01*
X124895474Y-68704526D01*
X124895472Y-68704524D01*
X124895471Y-68704523D01*
X124779649Y-68615649D01*
X124779641Y-68615644D01*
X124644752Y-68559771D01*
X124500000Y-68540715D01*
X124355247Y-68559771D01*
X124294993Y-68584730D01*
X124220358Y-68615645D01*
X124220357Y-68615646D01*
X124220356Y-68615646D01*
X124104526Y-68704526D01*
X124015646Y-68820356D01*
X124015645Y-68820358D01*
X123987708Y-68887801D01*
X123959771Y-68955247D01*
X123940715Y-69099999D01*
X123940715Y-69100000D01*
X108532259Y-69100000D01*
X108569639Y-69006183D01*
X108599216Y-68825772D01*
X108589735Y-68650922D01*
X108606019Y-68581821D01*
X108657079Y-68532492D01*
X108726702Y-68518598D01*
X108727901Y-68518710D01*
X108734998Y-68519409D01*
X108735000Y-68519409D01*
X108735003Y-68519409D01*
X108933870Y-68499822D01*
X108933871Y-68499821D01*
X108933877Y-68499821D01*
X109125111Y-68441811D01*
X109301353Y-68347608D01*
X109455831Y-68220831D01*
X109582608Y-68066353D01*
X109676811Y-67890111D01*
X109734821Y-67698877D01*
X109747555Y-67569594D01*
X109754409Y-67500003D01*
X109754409Y-67499996D01*
X109734822Y-67301129D01*
X109734821Y-67301127D01*
X109734821Y-67301123D01*
X109676811Y-67109889D01*
X109582608Y-66933647D01*
X109455831Y-66779169D01*
X109301353Y-66652392D01*
X109125111Y-66558189D01*
X108933877Y-66500179D01*
X108933876Y-66500178D01*
X108933870Y-66500177D01*
X108735003Y-66480591D01*
X108734997Y-66480591D01*
X108536129Y-66500177D01*
X108344888Y-66558189D01*
X108168646Y-66652392D01*
X108014169Y-66779169D01*
X107887392Y-66933646D01*
X107793189Y-67109888D01*
X107735177Y-67301129D01*
X107715591Y-67499996D01*
X107715591Y-67500003D01*
X107735177Y-67698868D01*
X107735178Y-67698870D01*
X107735179Y-67698877D01*
X107760909Y-67783697D01*
X107761542Y-67854689D01*
X107723693Y-67914755D01*
X107659378Y-67944824D01*
X107653957Y-67945532D01*
X107573257Y-67954308D01*
X107573246Y-67954311D01*
X107400004Y-68012683D01*
X107400003Y-68012684D01*
X107243354Y-68106936D01*
X107243345Y-68106944D01*
X107110628Y-68232660D01*
X107110625Y-68232663D01*
X107110626Y-68232663D01*
X107032692Y-68347607D01*
X107008026Y-68383986D01*
X106940361Y-68553814D01*
X106940360Y-68553817D01*
X106915654Y-68704523D01*
X106910784Y-68734228D01*
X105000000Y-68734228D01*
X105000000Y-65285063D01*
X107720500Y-65285063D01*
X107720501Y-65285073D01*
X107735265Y-65359300D01*
X107791516Y-65443484D01*
X107875697Y-65499733D01*
X107875699Y-65499734D01*
X107949933Y-65514500D01*
X109520066Y-65514499D01*
X109520069Y-65514498D01*
X109520073Y-65514498D01*
X109569326Y-65504701D01*
X109594301Y-65499734D01*
X109678484Y-65443484D01*
X109734734Y-65359301D01*
X109749500Y-65285067D01*
X109749499Y-64225000D01*
X120140715Y-64225000D01*
X120159771Y-64369752D01*
X120215644Y-64504641D01*
X120215649Y-64504649D01*
X120304525Y-64620474D01*
X120420350Y-64709350D01*
X120420357Y-64709355D01*
X120555246Y-64765228D01*
X120700000Y-64784285D01*
X120844754Y-64765228D01*
X120979643Y-64709355D01*
X121095474Y-64620474D01*
X121184355Y-64504643D01*
X121240228Y-64369754D01*
X121259285Y-64225000D01*
X121240228Y-64080246D01*
X121184355Y-63945358D01*
X121095474Y-63829526D01*
X121095472Y-63829524D01*
X121095471Y-63829523D01*
X120979649Y-63740649D01*
X120979641Y-63740644D01*
X120844752Y-63684771D01*
X120700000Y-63665715D01*
X120555247Y-63684771D01*
X120510919Y-63703133D01*
X120420358Y-63740645D01*
X120420357Y-63740646D01*
X120420356Y-63740646D01*
X120304526Y-63829526D01*
X120215646Y-63945356D01*
X120215645Y-63945358D01*
X120207014Y-63966195D01*
X120159771Y-64080247D01*
X120140715Y-64224999D01*
X120140715Y-64225000D01*
X109749499Y-64225000D01*
X109749499Y-63714934D01*
X109749498Y-63714930D01*
X109749498Y-63714926D01*
X109734734Y-63640699D01*
X109678483Y-63556515D01*
X109594302Y-63500266D01*
X109520067Y-63485500D01*
X107949936Y-63485500D01*
X107949926Y-63485501D01*
X107875699Y-63500265D01*
X107791515Y-63556516D01*
X107735266Y-63640697D01*
X107720500Y-63714930D01*
X107720500Y-65285063D01*
X105000000Y-65285063D01*
X105000000Y-60500000D01*
X115940715Y-60500000D01*
X115959771Y-60644752D01*
X116015644Y-60779641D01*
X116015649Y-60779649D01*
X116104525Y-60895474D01*
X116187685Y-60959285D01*
X116220357Y-60984355D01*
X116355246Y-61040228D01*
X116427623Y-61049756D01*
X116499999Y-61059285D01*
X116499999Y-61059284D01*
X116500000Y-61059285D01*
X116644754Y-61040228D01*
X116779643Y-60984355D01*
X116895474Y-60895474D01*
X116984355Y-60779643D01*
X117040228Y-60644754D01*
X117059285Y-60500000D01*
X117046120Y-60400000D01*
X132940715Y-60400000D01*
X132959771Y-60544752D01*
X133015644Y-60679641D01*
X133015649Y-60679649D01*
X133104525Y-60795474D01*
X133220350Y-60884350D01*
X133220357Y-60884355D01*
X133355246Y-60940228D01*
X133500000Y-60959285D01*
X133644754Y-60940228D01*
X133779643Y-60884355D01*
X133895474Y-60795474D01*
X133984355Y-60679643D01*
X134040228Y-60544754D01*
X134059285Y-60400000D01*
X134040228Y-60255246D01*
X133984355Y-60120358D01*
X133935894Y-60057203D01*
X133910295Y-59990983D01*
X133924560Y-59921435D01*
X133974161Y-59870639D01*
X134035858Y-59854500D01*
X134183640Y-59854500D01*
X134183646Y-59854500D01*
X134252550Y-59844461D01*
X134319662Y-59811651D01*
X134389644Y-59799703D01*
X134430335Y-59811650D01*
X134497450Y-59844461D01*
X134566354Y-59854500D01*
X134566360Y-59854500D01*
X134833640Y-59854500D01*
X134833646Y-59854500D01*
X134902550Y-59844461D01*
X135008840Y-59792499D01*
X135092499Y-59708840D01*
X135144461Y-59602550D01*
X135154500Y-59533646D01*
X135154500Y-58191354D01*
X135144461Y-58122450D01*
X135092499Y-58016160D01*
X135092498Y-58016158D01*
X135008841Y-57932501D01*
X135008839Y-57932500D01*
X134902552Y-57880540D01*
X134902550Y-57880539D01*
X134833647Y-57870500D01*
X134833646Y-57870500D01*
X134566354Y-57870500D01*
X134566352Y-57870500D01*
X134497449Y-57880539D01*
X134497444Y-57880540D01*
X134430338Y-57913347D01*
X134360355Y-57925296D01*
X134319662Y-57913347D01*
X134252555Y-57880540D01*
X134252550Y-57880539D01*
X134183647Y-57870500D01*
X134183646Y-57870500D01*
X133916354Y-57870500D01*
X133916352Y-57870500D01*
X133847449Y-57880539D01*
X133847447Y-57880540D01*
X133741160Y-57932500D01*
X133741158Y-57932501D01*
X133657501Y-58016158D01*
X133657500Y-58016160D01*
X133605540Y-58122447D01*
X133605539Y-58122449D01*
X133595500Y-58191352D01*
X133595499Y-58191360D01*
X133595499Y-59533639D01*
X133595500Y-59533647D01*
X133605539Y-59602550D01*
X133605540Y-59602552D01*
X133634135Y-59661045D01*
X133646084Y-59731029D01*
X133618300Y-59796363D01*
X133559604Y-59836305D01*
X133504496Y-59841306D01*
X133500000Y-59840715D01*
X133499999Y-59840715D01*
X133499998Y-59840715D01*
X133355247Y-59859771D01*
X133287801Y-59887708D01*
X133220358Y-59915645D01*
X133220357Y-59915646D01*
X133220356Y-59915646D01*
X133104526Y-60004526D01*
X133015646Y-60120356D01*
X133015645Y-60120358D01*
X133010116Y-60133707D01*
X132959771Y-60255247D01*
X132940715Y-60399999D01*
X132940715Y-60400000D01*
X117046120Y-60400000D01*
X117040228Y-60355246D01*
X116984355Y-60220358D01*
X116895474Y-60104526D01*
X116895472Y-60104524D01*
X116895471Y-60104523D01*
X116779649Y-60015649D01*
X116779641Y-60015644D01*
X116644752Y-59959771D01*
X116500000Y-59940715D01*
X116355247Y-59959771D01*
X116287801Y-59987708D01*
X116220358Y-60015645D01*
X116220357Y-60015646D01*
X116220356Y-60015646D01*
X116104526Y-60104526D01*
X116015646Y-60220356D01*
X116015645Y-60220358D01*
X115997098Y-60265135D01*
X115959771Y-60355247D01*
X115940715Y-60499999D01*
X115940715Y-60500000D01*
X105000000Y-60500000D01*
X105000000Y-59100000D01*
X130940715Y-59100000D01*
X130959771Y-59244752D01*
X131015644Y-59379641D01*
X131015649Y-59379649D01*
X131104525Y-59495474D01*
X131168946Y-59544906D01*
X131220357Y-59584355D01*
X131355246Y-59640228D01*
X131500000Y-59659285D01*
X131644754Y-59640228D01*
X131779643Y-59584355D01*
X131895474Y-59495474D01*
X131984355Y-59379643D01*
X132040228Y-59244754D01*
X132059285Y-59100000D01*
X132040228Y-58955246D01*
X131984355Y-58820358D01*
X131895474Y-58704526D01*
X131895472Y-58704524D01*
X131895471Y-58704523D01*
X131779649Y-58615649D01*
X131779641Y-58615644D01*
X131644752Y-58559771D01*
X131500000Y-58540715D01*
X131355247Y-58559771D01*
X131287801Y-58587708D01*
X131220358Y-58615645D01*
X131220357Y-58615646D01*
X131220356Y-58615646D01*
X131104526Y-58704526D01*
X131015646Y-58820356D01*
X131015645Y-58820358D01*
X130987708Y-58887802D01*
X130959771Y-58955247D01*
X130940715Y-59099999D01*
X130940715Y-59100000D01*
X105000000Y-59100000D01*
X105000000Y-57234228D01*
X106875784Y-57234228D01*
X106880747Y-57325770D01*
X106885682Y-57416777D01*
X106885683Y-57416788D01*
X106934589Y-57592934D01*
X106934591Y-57592939D01*
X107020223Y-57754457D01*
X107130560Y-57884355D01*
X107138580Y-57893797D01*
X107284122Y-58004435D01*
X107450045Y-58081199D01*
X107450048Y-58081199D01*
X107450049Y-58081200D01*
X107509559Y-58094299D01*
X107628590Y-58120500D01*
X107628592Y-58120500D01*
X107765562Y-58120500D01*
X107765570Y-58120500D01*
X107776688Y-58119290D01*
X107901741Y-58105691D01*
X107901742Y-58105690D01*
X107901748Y-58105690D01*
X108074998Y-58047315D01*
X108231648Y-57953062D01*
X108364374Y-57827337D01*
X108466971Y-57676019D01*
X108534639Y-57506183D01*
X108564216Y-57325772D01*
X108554735Y-57150922D01*
X108571019Y-57081821D01*
X108622079Y-57032492D01*
X108691702Y-57018598D01*
X108692901Y-57018710D01*
X108699998Y-57019409D01*
X108700000Y-57019409D01*
X108700003Y-57019409D01*
X108898870Y-56999822D01*
X108898871Y-56999821D01*
X108898877Y-56999821D01*
X109090111Y-56941811D01*
X109266353Y-56847608D01*
X109420831Y-56720831D01*
X109547608Y-56566353D01*
X109641811Y-56390111D01*
X109699821Y-56198877D01*
X109701223Y-56184649D01*
X109719409Y-56000003D01*
X110680591Y-56000003D01*
X110700177Y-56198870D01*
X110700178Y-56198876D01*
X110700179Y-56198877D01*
X110758189Y-56390111D01*
X110852392Y-56566353D01*
X110979169Y-56720831D01*
X111133647Y-56847608D01*
X111309889Y-56941811D01*
X111501123Y-56999821D01*
X111501127Y-56999821D01*
X111501129Y-56999822D01*
X111699997Y-57019409D01*
X111700000Y-57019409D01*
X111700003Y-57019409D01*
X111898870Y-56999822D01*
X111898871Y-56999821D01*
X111898877Y-56999821D01*
X112090111Y-56941811D01*
X112158980Y-56905000D01*
X122465715Y-56905000D01*
X122484771Y-57049752D01*
X122540644Y-57184641D01*
X122540649Y-57184649D01*
X122629525Y-57300474D01*
X122710359Y-57362500D01*
X122745357Y-57389355D01*
X122880246Y-57445228D01*
X123025000Y-57464285D01*
X123169754Y-57445228D01*
X123278944Y-57400000D01*
X139140715Y-57400000D01*
X139159771Y-57544752D01*
X139215644Y-57679641D01*
X139215649Y-57679649D01*
X139304525Y-57795474D01*
X139415385Y-57880540D01*
X139420357Y-57884355D01*
X139555246Y-57940228D01*
X139700000Y-57959285D01*
X139844754Y-57940228D01*
X139979643Y-57884355D01*
X140095474Y-57795474D01*
X140184355Y-57679643D01*
X140240228Y-57544754D01*
X140259285Y-57400000D01*
X140254348Y-57362500D01*
X140940715Y-57362500D01*
X140959771Y-57507252D01*
X141015644Y-57642141D01*
X141015649Y-57642149D01*
X141104525Y-57757974D01*
X141194923Y-57827339D01*
X141220357Y-57846855D01*
X141355246Y-57902728D01*
X141500000Y-57921785D01*
X141644754Y-57902728D01*
X141779643Y-57846855D01*
X141837584Y-57802394D01*
X141898296Y-57755809D01*
X141964516Y-57730208D01*
X142034065Y-57744472D01*
X142051704Y-57755809D01*
X142144923Y-57827339D01*
X142170357Y-57846855D01*
X142305246Y-57902728D01*
X142450000Y-57921785D01*
X142594754Y-57902728D01*
X142729643Y-57846855D01*
X142845474Y-57757974D01*
X142934355Y-57642143D01*
X142990228Y-57507254D01*
X143009285Y-57362500D01*
X143004449Y-57325770D01*
X142990228Y-57217747D01*
X142990228Y-57217746D01*
X142934355Y-57082858D01*
X142845474Y-56967026D01*
X142845472Y-56967024D01*
X142845471Y-56967023D01*
X142729649Y-56878149D01*
X142729641Y-56878144D01*
X142594752Y-56822271D01*
X142450000Y-56803215D01*
X142305247Y-56822271D01*
X142244080Y-56847608D01*
X142170358Y-56878145D01*
X142170356Y-56878146D01*
X142170357Y-56878146D01*
X142170352Y-56878149D01*
X142051703Y-56969191D01*
X141985483Y-56994791D01*
X141915934Y-56980526D01*
X141898296Y-56969191D01*
X141814641Y-56905000D01*
X141779643Y-56878145D01*
X141735285Y-56859771D01*
X141644752Y-56822271D01*
X141500000Y-56803215D01*
X141355247Y-56822271D01*
X141294080Y-56847608D01*
X141220358Y-56878145D01*
X141220357Y-56878146D01*
X141220356Y-56878146D01*
X141104526Y-56967026D01*
X141015646Y-57082856D01*
X141015645Y-57082858D01*
X141000112Y-57120358D01*
X140959771Y-57217747D01*
X140940715Y-57362499D01*
X140940715Y-57362500D01*
X140254348Y-57362500D01*
X140240228Y-57255246D01*
X140184355Y-57120358D01*
X140095474Y-57004526D01*
X140095472Y-57004524D01*
X140095471Y-57004523D01*
X139979649Y-56915649D01*
X139979641Y-56915644D01*
X139844752Y-56859771D01*
X139700000Y-56840715D01*
X139555247Y-56859771D01*
X139510880Y-56878149D01*
X139420358Y-56915645D01*
X139420357Y-56915646D01*
X139420356Y-56915646D01*
X139304526Y-57004526D01*
X139215646Y-57120356D01*
X139215645Y-57120358D01*
X139202984Y-57150925D01*
X139159771Y-57255247D01*
X139140715Y-57399999D01*
X139140715Y-57400000D01*
X123278944Y-57400000D01*
X123304643Y-57389355D01*
X123420474Y-57300474D01*
X123509355Y-57184643D01*
X123565228Y-57049754D01*
X123584285Y-56905000D01*
X123565228Y-56760246D01*
X123509355Y-56625358D01*
X123420474Y-56509526D01*
X123420472Y-56509525D01*
X123420472Y-56509524D01*
X123414524Y-56504960D01*
X123372658Y-56447621D01*
X123368438Y-56376750D01*
X123403203Y-56314848D01*
X123414514Y-56305047D01*
X123420474Y-56300474D01*
X123509355Y-56184643D01*
X123565228Y-56049754D01*
X123584285Y-55905000D01*
X123565228Y-55760246D01*
X123509355Y-55625358D01*
X123420474Y-55509526D01*
X123420472Y-55509524D01*
X123420471Y-55509523D01*
X123408060Y-55500000D01*
X137940715Y-55500000D01*
X137959771Y-55644752D01*
X138015644Y-55779641D01*
X138015649Y-55779649D01*
X138104525Y-55895474D01*
X138220350Y-55984350D01*
X138220357Y-55984355D01*
X138355246Y-56040228D01*
X138500000Y-56059285D01*
X138644754Y-56040228D01*
X138779643Y-55984355D01*
X138895474Y-55895474D01*
X138984355Y-55779643D01*
X139040228Y-55644754D01*
X139059285Y-55500000D01*
X139040228Y-55355246D01*
X138984355Y-55220358D01*
X138895474Y-55104526D01*
X138895472Y-55104524D01*
X138895471Y-55104523D01*
X138779649Y-55015649D01*
X138779641Y-55015644D01*
X138644752Y-54959771D01*
X138500000Y-54940715D01*
X138355247Y-54959771D01*
X138324595Y-54972468D01*
X138220358Y-55015645D01*
X138220357Y-55015646D01*
X138220356Y-55015646D01*
X138104526Y-55104526D01*
X138015646Y-55220356D01*
X138015645Y-55220358D01*
X137987708Y-55287801D01*
X137959771Y-55355247D01*
X137940715Y-55499999D01*
X137940715Y-55500000D01*
X123408060Y-55500000D01*
X123304649Y-55420649D01*
X123304641Y-55420644D01*
X123169752Y-55364771D01*
X123025000Y-55345715D01*
X122880247Y-55364771D01*
X122812802Y-55392708D01*
X122745358Y-55420645D01*
X122745357Y-55420646D01*
X122745356Y-55420646D01*
X122629526Y-55509526D01*
X122540646Y-55625356D01*
X122540645Y-55625358D01*
X122519150Y-55677252D01*
X122484771Y-55760247D01*
X122465715Y-55904999D01*
X122465715Y-55905000D01*
X122484771Y-56049752D01*
X122540644Y-56184641D01*
X122540649Y-56184649D01*
X122629524Y-56300472D01*
X122629526Y-56300474D01*
X122635474Y-56305038D01*
X122677341Y-56362377D01*
X122681562Y-56433248D01*
X122646797Y-56495150D01*
X122635474Y-56504962D01*
X122629526Y-56509525D01*
X122540646Y-56625356D01*
X122540645Y-56625358D01*
X122512708Y-56692801D01*
X122484771Y-56760247D01*
X122465715Y-56904999D01*
X122465715Y-56905000D01*
X112158980Y-56905000D01*
X112266353Y-56847608D01*
X112420831Y-56720831D01*
X112547608Y-56566353D01*
X112641811Y-56390111D01*
X112699821Y-56198877D01*
X112701223Y-56184649D01*
X112719409Y-56000003D01*
X112719409Y-55999996D01*
X112699822Y-55801129D01*
X112699821Y-55801127D01*
X112699821Y-55801123D01*
X112641811Y-55609889D01*
X112547608Y-55433647D01*
X112420831Y-55279169D01*
X112266353Y-55152392D01*
X112090111Y-55058189D01*
X111898877Y-55000179D01*
X111898876Y-55000178D01*
X111898870Y-55000177D01*
X111700003Y-54980591D01*
X111699997Y-54980591D01*
X111501129Y-55000177D01*
X111309888Y-55058189D01*
X111133646Y-55152392D01*
X110979169Y-55279169D01*
X110852392Y-55433646D01*
X110758189Y-55609888D01*
X110700177Y-55801129D01*
X110680591Y-55999996D01*
X110680591Y-56000003D01*
X109719409Y-56000003D01*
X109719409Y-55999996D01*
X109699822Y-55801129D01*
X109699821Y-55801127D01*
X109699821Y-55801123D01*
X109641811Y-55609889D01*
X109547608Y-55433647D01*
X109420831Y-55279169D01*
X109266353Y-55152392D01*
X109090111Y-55058189D01*
X108898877Y-55000179D01*
X108898876Y-55000178D01*
X108898870Y-55000177D01*
X108700003Y-54980591D01*
X108699997Y-54980591D01*
X108501129Y-55000177D01*
X108309888Y-55058189D01*
X108133646Y-55152392D01*
X107979169Y-55279169D01*
X107852392Y-55433646D01*
X107758189Y-55609888D01*
X107700177Y-55801129D01*
X107680591Y-55999996D01*
X107680591Y-56000003D01*
X107700177Y-56198868D01*
X107700178Y-56198870D01*
X107700179Y-56198877D01*
X107725909Y-56283697D01*
X107726542Y-56354689D01*
X107688693Y-56414755D01*
X107624378Y-56444824D01*
X107618957Y-56445532D01*
X107538257Y-56454308D01*
X107538246Y-56454311D01*
X107365004Y-56512683D01*
X107365003Y-56512684D01*
X107208354Y-56606936D01*
X107208345Y-56606944D01*
X107075628Y-56732660D01*
X107075625Y-56732663D01*
X107075626Y-56732663D01*
X106976984Y-56878149D01*
X106973026Y-56883986D01*
X106905361Y-57053814D01*
X106905360Y-57053817D01*
X106883913Y-57184641D01*
X106875784Y-57234228D01*
X105000000Y-57234228D01*
X105000000Y-54595000D01*
X121415715Y-54595000D01*
X121434771Y-54739752D01*
X121490644Y-54874641D01*
X121490649Y-54874649D01*
X121579525Y-54990474D01*
X121695350Y-55079350D01*
X121695357Y-55079355D01*
X121830246Y-55135228D01*
X121975000Y-55154285D01*
X122119754Y-55135228D01*
X122254643Y-55079355D01*
X122370474Y-54990474D01*
X122459355Y-54874643D01*
X122515228Y-54739754D01*
X122534285Y-54595000D01*
X122515228Y-54450246D01*
X122459355Y-54315358D01*
X122370474Y-54199526D01*
X122370472Y-54199524D01*
X122370471Y-54199523D01*
X122254649Y-54110649D01*
X122254641Y-54110644D01*
X122119752Y-54054771D01*
X121975000Y-54035715D01*
X121830247Y-54054771D01*
X121765374Y-54081643D01*
X121695358Y-54110645D01*
X121695357Y-54110646D01*
X121695356Y-54110646D01*
X121579526Y-54199526D01*
X121490646Y-54315356D01*
X121490645Y-54315358D01*
X121462708Y-54382802D01*
X121434771Y-54450247D01*
X121415715Y-54594999D01*
X121415715Y-54595000D01*
X105000000Y-54595000D01*
X105000000Y-53000003D01*
X107680591Y-53000003D01*
X107700177Y-53198870D01*
X107700178Y-53198876D01*
X107700179Y-53198877D01*
X107758189Y-53390111D01*
X107852392Y-53566353D01*
X107979169Y-53720831D01*
X108133647Y-53847608D01*
X108309889Y-53941811D01*
X108501123Y-53999821D01*
X108501127Y-53999821D01*
X108501129Y-53999822D01*
X108699997Y-54019409D01*
X108700000Y-54019409D01*
X108700003Y-54019409D01*
X108898870Y-53999822D01*
X108898871Y-53999821D01*
X108898877Y-53999821D01*
X109090111Y-53941811D01*
X109266353Y-53847608D01*
X109420831Y-53720831D01*
X109547608Y-53566353D01*
X109641811Y-53390111D01*
X109699821Y-53198877D01*
X109701179Y-53185095D01*
X109719409Y-53000003D01*
X110680591Y-53000003D01*
X110700177Y-53198870D01*
X110700178Y-53198876D01*
X110700179Y-53198877D01*
X110758189Y-53390111D01*
X110852392Y-53566353D01*
X110979169Y-53720831D01*
X111133647Y-53847608D01*
X111309889Y-53941811D01*
X111501123Y-53999821D01*
X111501127Y-53999821D01*
X111501129Y-53999822D01*
X111699997Y-54019409D01*
X111700000Y-54019409D01*
X111700003Y-54019409D01*
X111898870Y-53999822D01*
X111898871Y-53999821D01*
X111898877Y-53999821D01*
X112090111Y-53941811D01*
X112266353Y-53847608D01*
X112313837Y-53808639D01*
X133595499Y-53808639D01*
X133595500Y-53808647D01*
X133605539Y-53877550D01*
X133605540Y-53877552D01*
X133657500Y-53983839D01*
X133657501Y-53983841D01*
X133741158Y-54067498D01*
X133741160Y-54067499D01*
X133847450Y-54119461D01*
X133916354Y-54129500D01*
X133916360Y-54129500D01*
X134183640Y-54129500D01*
X134183646Y-54129500D01*
X134252550Y-54119461D01*
X134319662Y-54086651D01*
X134389644Y-54074703D01*
X134430335Y-54086650D01*
X134497450Y-54119461D01*
X134566354Y-54129500D01*
X134566360Y-54129500D01*
X134833640Y-54129500D01*
X134833646Y-54129500D01*
X134902550Y-54119461D01*
X134969662Y-54086651D01*
X135039644Y-54074703D01*
X135080335Y-54086650D01*
X135147450Y-54119461D01*
X135216354Y-54129500D01*
X135216360Y-54129500D01*
X135483640Y-54129500D01*
X135483646Y-54129500D01*
X135552550Y-54119461D01*
X135619662Y-54086651D01*
X135689644Y-54074703D01*
X135730335Y-54086650D01*
X135797450Y-54119461D01*
X135866354Y-54129500D01*
X135866360Y-54129500D01*
X136133640Y-54129500D01*
X136133646Y-54129500D01*
X136202550Y-54119461D01*
X136269662Y-54086651D01*
X136339644Y-54074703D01*
X136380335Y-54086650D01*
X136447450Y-54119461D01*
X136516354Y-54129500D01*
X136516360Y-54129500D01*
X136783640Y-54129500D01*
X136783646Y-54129500D01*
X136852550Y-54119461D01*
X136958840Y-54067499D01*
X137042499Y-53983840D01*
X137094461Y-53877550D01*
X137104500Y-53808647D01*
X137495500Y-53808647D01*
X137505539Y-53877550D01*
X137505540Y-53877552D01*
X137557500Y-53983839D01*
X137557501Y-53983841D01*
X137641158Y-54067498D01*
X137641160Y-54067499D01*
X137747450Y-54119461D01*
X137816354Y-54129500D01*
X137816360Y-54129500D01*
X138083640Y-54129500D01*
X138083646Y-54129500D01*
X138152550Y-54119461D01*
X138258840Y-54067499D01*
X138342499Y-53983840D01*
X138394461Y-53877550D01*
X138404500Y-53808646D01*
X138404500Y-52466354D01*
X138394461Y-52397450D01*
X138342499Y-52291160D01*
X138342498Y-52291158D01*
X138258841Y-52207501D01*
X138258839Y-52207500D01*
X138152552Y-52155540D01*
X138152550Y-52155539D01*
X138083647Y-52145500D01*
X138083646Y-52145500D01*
X137816354Y-52145500D01*
X137816352Y-52145500D01*
X137747449Y-52155539D01*
X137747447Y-52155540D01*
X137641160Y-52207500D01*
X137641158Y-52207501D01*
X137557501Y-52291158D01*
X137557500Y-52291160D01*
X137505540Y-52397447D01*
X137505539Y-52397449D01*
X137495500Y-52466352D01*
X137495500Y-53808647D01*
X137104500Y-53808647D01*
X137104500Y-53808646D01*
X137104500Y-52466354D01*
X137094461Y-52397450D01*
X137042499Y-52291160D01*
X137042498Y-52291158D01*
X136958841Y-52207501D01*
X136958839Y-52207500D01*
X136852552Y-52155540D01*
X136852550Y-52155539D01*
X136783647Y-52145500D01*
X136783646Y-52145500D01*
X136675774Y-52145500D01*
X136607653Y-52125498D01*
X136561160Y-52071842D01*
X136550852Y-52035946D01*
X136548179Y-52015645D01*
X136540228Y-51955246D01*
X136484355Y-51820358D01*
X136395474Y-51704526D01*
X136395472Y-51704524D01*
X136395471Y-51704523D01*
X136279649Y-51615649D01*
X136279641Y-51615644D01*
X136144752Y-51559771D01*
X136000000Y-51540715D01*
X135855247Y-51559771D01*
X135787801Y-51587708D01*
X135720358Y-51615645D01*
X135720357Y-51615646D01*
X135720356Y-51615646D01*
X135604526Y-51704526D01*
X135515646Y-51820356D01*
X135515645Y-51820358D01*
X135501925Y-51853481D01*
X135459771Y-51955247D01*
X135449148Y-52035946D01*
X135420426Y-52100873D01*
X135361161Y-52139965D01*
X135324226Y-52145500D01*
X135216352Y-52145500D01*
X135147449Y-52155539D01*
X135147444Y-52155540D01*
X135080338Y-52188347D01*
X135010355Y-52200296D01*
X134969662Y-52188347D01*
X134902555Y-52155540D01*
X134902550Y-52155539D01*
X134833647Y-52145500D01*
X134833646Y-52145500D01*
X134566354Y-52145500D01*
X134566352Y-52145500D01*
X134497449Y-52155539D01*
X134497444Y-52155540D01*
X134430338Y-52188347D01*
X134360355Y-52200296D01*
X134319662Y-52188347D01*
X134252555Y-52155540D01*
X134252550Y-52155539D01*
X134183647Y-52145500D01*
X134183646Y-52145500D01*
X133916354Y-52145500D01*
X133916352Y-52145500D01*
X133847449Y-52155539D01*
X133847447Y-52155540D01*
X133741160Y-52207500D01*
X133741158Y-52207501D01*
X133657501Y-52291158D01*
X133657500Y-52291160D01*
X133605540Y-52397447D01*
X133605539Y-52397449D01*
X133595500Y-52466352D01*
X133595499Y-52466360D01*
X133595499Y-53808639D01*
X112313837Y-53808639D01*
X112420831Y-53720831D01*
X112547608Y-53566353D01*
X112641811Y-53390111D01*
X112699821Y-53198877D01*
X112701179Y-53185095D01*
X112719409Y-53000003D01*
X112719409Y-52999996D01*
X112699822Y-52801129D01*
X112699821Y-52801127D01*
X112699821Y-52801123D01*
X112641811Y-52609889D01*
X112583074Y-52500000D01*
X115940715Y-52500000D01*
X115959771Y-52644752D01*
X116015644Y-52779641D01*
X116015649Y-52779649D01*
X116104525Y-52895474D01*
X116204877Y-52972477D01*
X116220357Y-52984355D01*
X116355246Y-53040228D01*
X116500000Y-53059285D01*
X116644754Y-53040228D01*
X116779643Y-52984355D01*
X116895474Y-52895474D01*
X116984355Y-52779643D01*
X117040228Y-52644754D01*
X117059285Y-52500000D01*
X117040228Y-52355246D01*
X116984355Y-52220358D01*
X116895474Y-52104526D01*
X116895472Y-52104524D01*
X116895471Y-52104523D01*
X116779649Y-52015649D01*
X116779641Y-52015644D01*
X116644752Y-51959771D01*
X116500000Y-51940715D01*
X116355247Y-51959771D01*
X116304985Y-51980591D01*
X116220358Y-52015645D01*
X116220357Y-52015646D01*
X116220356Y-52015646D01*
X116104526Y-52104526D01*
X116015646Y-52220356D01*
X116015645Y-52220358D01*
X115987708Y-52287802D01*
X115959771Y-52355247D01*
X115940715Y-52499999D01*
X115940715Y-52500000D01*
X112583074Y-52500000D01*
X112547608Y-52433647D01*
X112420831Y-52279169D01*
X112266353Y-52152392D01*
X112090111Y-52058189D01*
X111898877Y-52000179D01*
X111898876Y-52000178D01*
X111898870Y-52000177D01*
X111700003Y-51980591D01*
X111699997Y-51980591D01*
X111501129Y-52000177D01*
X111309888Y-52058189D01*
X111133646Y-52152392D01*
X110979169Y-52279169D01*
X110852392Y-52433646D01*
X110758189Y-52609888D01*
X110700177Y-52801129D01*
X110680591Y-52999996D01*
X110680591Y-53000003D01*
X109719409Y-53000003D01*
X109719409Y-52999996D01*
X109699822Y-52801129D01*
X109699821Y-52801127D01*
X109699821Y-52801123D01*
X109641811Y-52609889D01*
X109547608Y-52433647D01*
X109420831Y-52279169D01*
X109266353Y-52152392D01*
X109090111Y-52058189D01*
X108898877Y-52000179D01*
X108898876Y-52000178D01*
X108898870Y-52000177D01*
X108700003Y-51980591D01*
X108699997Y-51980591D01*
X108501129Y-52000177D01*
X108309888Y-52058189D01*
X108133646Y-52152392D01*
X107979169Y-52279169D01*
X107852392Y-52433646D01*
X107758189Y-52609888D01*
X107700177Y-52801129D01*
X107680591Y-52999996D01*
X107680591Y-53000003D01*
X105000000Y-53000003D01*
X105000000Y-50785063D01*
X110685500Y-50785063D01*
X110685501Y-50785073D01*
X110700265Y-50859300D01*
X110756516Y-50943484D01*
X110840697Y-50999733D01*
X110840699Y-50999734D01*
X110914933Y-51014500D01*
X112485066Y-51014499D01*
X112485069Y-51014498D01*
X112485073Y-51014498D01*
X112534326Y-51004701D01*
X112559301Y-50999734D01*
X112643484Y-50943484D01*
X112699734Y-50859301D01*
X112714500Y-50785067D01*
X112714500Y-50405000D01*
X121415715Y-50405000D01*
X121434771Y-50549752D01*
X121490644Y-50684641D01*
X121490649Y-50684649D01*
X121579525Y-50800474D01*
X121656190Y-50859301D01*
X121695357Y-50889355D01*
X121830246Y-50945228D01*
X121902623Y-50954756D01*
X121974999Y-50964285D01*
X121974999Y-50964284D01*
X121975000Y-50964285D01*
X122119754Y-50945228D01*
X122254643Y-50889355D01*
X122370474Y-50800474D01*
X122459355Y-50684643D01*
X122515228Y-50549754D01*
X122521778Y-50500000D01*
X139440715Y-50500000D01*
X139459771Y-50644752D01*
X139515644Y-50779641D01*
X139515649Y-50779649D01*
X139604525Y-50895474D01*
X139694201Y-50964285D01*
X139720357Y-50984355D01*
X139855246Y-51040228D01*
X140000000Y-51059285D01*
X140144754Y-51040228D01*
X140279643Y-50984355D01*
X140395474Y-50895474D01*
X140484355Y-50779643D01*
X140540228Y-50644754D01*
X140559285Y-50500000D01*
X140540228Y-50355246D01*
X140484355Y-50220358D01*
X140395474Y-50104526D01*
X140395472Y-50104524D01*
X140395471Y-50104523D01*
X140279649Y-50015649D01*
X140279641Y-50015644D01*
X140144752Y-49959771D01*
X140000000Y-49940715D01*
X139855247Y-49959771D01*
X139795910Y-49984350D01*
X139720358Y-50015645D01*
X139720357Y-50015646D01*
X139720356Y-50015646D01*
X139604526Y-50104526D01*
X139515646Y-50220356D01*
X139515645Y-50220358D01*
X139487708Y-50287802D01*
X139459771Y-50355247D01*
X139440715Y-50499999D01*
X139440715Y-50500000D01*
X122521778Y-50500000D01*
X122534285Y-50405000D01*
X122515228Y-50260246D01*
X122459355Y-50125358D01*
X122370474Y-50009526D01*
X122370472Y-50009524D01*
X122370471Y-50009523D01*
X122254649Y-49920649D01*
X122254641Y-49920644D01*
X122119752Y-49864771D01*
X121975000Y-49845715D01*
X121830247Y-49864771D01*
X121762802Y-49892708D01*
X121695358Y-49920645D01*
X121695357Y-49920646D01*
X121695356Y-49920646D01*
X121579526Y-50009526D01*
X121490646Y-50125356D01*
X121490645Y-50125358D01*
X121462708Y-50192802D01*
X121434771Y-50260247D01*
X121415715Y-50404999D01*
X121415715Y-50405000D01*
X112714500Y-50405000D01*
X112714499Y-49214934D01*
X112714498Y-49214930D01*
X112714498Y-49214926D01*
X112699734Y-49140699D01*
X112699733Y-49140697D01*
X112643484Y-49056516D01*
X112643483Y-49056515D01*
X112559302Y-49000266D01*
X112485067Y-48985500D01*
X110914936Y-48985500D01*
X110914926Y-48985501D01*
X110840699Y-49000265D01*
X110756515Y-49056516D01*
X110700266Y-49140697D01*
X110685500Y-49214930D01*
X110685500Y-50785063D01*
X105000000Y-50785063D01*
X105000000Y-47900000D01*
X132840715Y-47900000D01*
X132859771Y-48044752D01*
X132915644Y-48179641D01*
X132915649Y-48179649D01*
X133004525Y-48295474D01*
X133120350Y-48384350D01*
X133120357Y-48384355D01*
X133255246Y-48440228D01*
X133327623Y-48449756D01*
X133399999Y-48459285D01*
X133399999Y-48459284D01*
X133400000Y-48459285D01*
X133544754Y-48440228D01*
X133679643Y-48384355D01*
X133795474Y-48295474D01*
X133884355Y-48179643D01*
X133940228Y-48044754D01*
X133959285Y-47900000D01*
X133940228Y-47755246D01*
X133884355Y-47620358D01*
X133863938Y-47593750D01*
X139534465Y-47593750D01*
X139553521Y-47738502D01*
X139609394Y-47873391D01*
X139609399Y-47873399D01*
X139698275Y-47989224D01*
X139770643Y-48044754D01*
X139814107Y-48078105D01*
X139948996Y-48133978D01*
X140093750Y-48153035D01*
X140238504Y-48133978D01*
X140373393Y-48078105D01*
X140489224Y-47989224D01*
X140578105Y-47873393D01*
X140633978Y-47738504D01*
X140653035Y-47593750D01*
X140633978Y-47448996D01*
X140578105Y-47314108D01*
X140489224Y-47198276D01*
X140489222Y-47198274D01*
X140489221Y-47198273D01*
X140373399Y-47109399D01*
X140373391Y-47109394D01*
X140238502Y-47053521D01*
X140093750Y-47034465D01*
X139948997Y-47053521D01*
X139881552Y-47081458D01*
X139814108Y-47109395D01*
X139814107Y-47109396D01*
X139814106Y-47109396D01*
X139698276Y-47198276D01*
X139609396Y-47314106D01*
X139609395Y-47314108D01*
X139598374Y-47340715D01*
X139553521Y-47448997D01*
X139534465Y-47593749D01*
X139534465Y-47593750D01*
X133863938Y-47593750D01*
X133795474Y-47504526D01*
X133795472Y-47504524D01*
X133795471Y-47504523D01*
X133679649Y-47415649D01*
X133679641Y-47415644D01*
X133544752Y-47359771D01*
X133400000Y-47340715D01*
X133255247Y-47359771D01*
X133187801Y-47387708D01*
X133120358Y-47415645D01*
X133120357Y-47415646D01*
X133120356Y-47415646D01*
X133004526Y-47504526D01*
X132915646Y-47620356D01*
X132915645Y-47620358D01*
X132910116Y-47633707D01*
X132859771Y-47755247D01*
X132840715Y-47899999D01*
X132840715Y-47900000D01*
X105000000Y-47900000D01*
X105000000Y-46600000D01*
X131240715Y-46600000D01*
X131259771Y-46744752D01*
X131315644Y-46879641D01*
X131315649Y-46879649D01*
X131404525Y-46995474D01*
X131487685Y-47059285D01*
X131520357Y-47084355D01*
X131655246Y-47140228D01*
X131800000Y-47159285D01*
X131944754Y-47140228D01*
X132079643Y-47084355D01*
X132195474Y-46995474D01*
X132284355Y-46879643D01*
X132340228Y-46744754D01*
X132359285Y-46600000D01*
X132340228Y-46455246D01*
X132284355Y-46320358D01*
X132195474Y-46204526D01*
X132195472Y-46204524D01*
X132195471Y-46204523D01*
X132079649Y-46115649D01*
X132079641Y-46115644D01*
X131944752Y-46059771D01*
X131800000Y-46040715D01*
X131655247Y-46059771D01*
X131587801Y-46087708D01*
X131520358Y-46115645D01*
X131520357Y-46115646D01*
X131520356Y-46115646D01*
X131404526Y-46204526D01*
X131315646Y-46320356D01*
X131315645Y-46320358D01*
X131287708Y-46387801D01*
X131259771Y-46455247D01*
X131240715Y-46599999D01*
X131240715Y-46600000D01*
X105000000Y-46600000D01*
X105000000Y-45000000D01*
X138440715Y-45000000D01*
X138459771Y-45144752D01*
X138515644Y-45279641D01*
X138515649Y-45279649D01*
X138604525Y-45395474D01*
X138720350Y-45484350D01*
X138720357Y-45484355D01*
X138855246Y-45540228D01*
X139000000Y-45559285D01*
X139144754Y-45540228D01*
X139279643Y-45484355D01*
X139395474Y-45395474D01*
X139484355Y-45279643D01*
X139540228Y-45144754D01*
X139559285Y-45000000D01*
X139541183Y-44862500D01*
X140940715Y-44862500D01*
X140959771Y-45007252D01*
X141015644Y-45142141D01*
X141015649Y-45142149D01*
X141104525Y-45257974D01*
X141220350Y-45346850D01*
X141220357Y-45346855D01*
X141355246Y-45402728D01*
X141500000Y-45421785D01*
X141644754Y-45402728D01*
X141779643Y-45346855D01*
X141867235Y-45279643D01*
X141898296Y-45255809D01*
X141964516Y-45230208D01*
X142034065Y-45244472D01*
X142051704Y-45255809D01*
X142082765Y-45279643D01*
X142170357Y-45346855D01*
X142305246Y-45402728D01*
X142450000Y-45421785D01*
X142594754Y-45402728D01*
X142729643Y-45346855D01*
X142845474Y-45257974D01*
X142934355Y-45142143D01*
X142990228Y-45007254D01*
X143009285Y-44862500D01*
X142990228Y-44717746D01*
X142934355Y-44582858D01*
X142845474Y-44467026D01*
X142845472Y-44467024D01*
X142845471Y-44467023D01*
X142729649Y-44378149D01*
X142729641Y-44378144D01*
X142594752Y-44322271D01*
X142450000Y-44303215D01*
X142305247Y-44322271D01*
X142237801Y-44350208D01*
X142170358Y-44378145D01*
X142170356Y-44378146D01*
X142170357Y-44378146D01*
X142170352Y-44378149D01*
X142051703Y-44469191D01*
X141985483Y-44494791D01*
X141915934Y-44480526D01*
X141898296Y-44469191D01*
X141779644Y-44378146D01*
X141779643Y-44378145D01*
X141644754Y-44322272D01*
X141644752Y-44322271D01*
X141500000Y-44303215D01*
X141355247Y-44322271D01*
X141287801Y-44350208D01*
X141220358Y-44378145D01*
X141220357Y-44378146D01*
X141220356Y-44378146D01*
X141104526Y-44467026D01*
X141015646Y-44582856D01*
X141015645Y-44582858D01*
X141006671Y-44604523D01*
X140959771Y-44717747D01*
X140940715Y-44862499D01*
X140940715Y-44862500D01*
X139541183Y-44862500D01*
X139540228Y-44855246D01*
X139484355Y-44720358D01*
X139395474Y-44604526D01*
X139395472Y-44604524D01*
X139395471Y-44604523D01*
X139279649Y-44515649D01*
X139279641Y-44515644D01*
X139144752Y-44459771D01*
X139000000Y-44440715D01*
X138855247Y-44459771D01*
X138805142Y-44480526D01*
X138720358Y-44515645D01*
X138720357Y-44515646D01*
X138720356Y-44515646D01*
X138604526Y-44604526D01*
X138515646Y-44720356D01*
X138515645Y-44720358D01*
X138487708Y-44787801D01*
X138459771Y-44855247D01*
X138440715Y-44999999D01*
X138440715Y-45000000D01*
X105000000Y-45000000D01*
X105000000Y-43000000D01*
X137940715Y-43000000D01*
X137959771Y-43144752D01*
X138015644Y-43279641D01*
X138015649Y-43279649D01*
X138104525Y-43395474D01*
X138220350Y-43484350D01*
X138220357Y-43484355D01*
X138355246Y-43540228D01*
X138500000Y-43559285D01*
X138644754Y-43540228D01*
X138779643Y-43484355D01*
X138895474Y-43395474D01*
X138984355Y-43279643D01*
X139040228Y-43144754D01*
X139059285Y-43000000D01*
X139040228Y-42855246D01*
X138984355Y-42720358D01*
X138895474Y-42604526D01*
X138895472Y-42604524D01*
X138895471Y-42604523D01*
X138779649Y-42515649D01*
X138779641Y-42515644D01*
X138644752Y-42459771D01*
X138500000Y-42440715D01*
X138355247Y-42459771D01*
X138287801Y-42487708D01*
X138220358Y-42515645D01*
X138220357Y-42515646D01*
X138220356Y-42515646D01*
X138104526Y-42604526D01*
X138015646Y-42720356D01*
X138015645Y-42720358D01*
X137987708Y-42787801D01*
X137959771Y-42855247D01*
X137940715Y-42999999D01*
X137940715Y-43000000D01*
X105000000Y-43000000D01*
X105000000Y-39500000D01*
X123940715Y-39500000D01*
X123959771Y-39644752D01*
X124015644Y-39779641D01*
X124015649Y-39779649D01*
X124104525Y-39895474D01*
X124210554Y-39976833D01*
X124220357Y-39984355D01*
X124355246Y-40040228D01*
X124500000Y-40059285D01*
X124644754Y-40040228D01*
X124779643Y-39984355D01*
X124895474Y-39895474D01*
X124984355Y-39779643D01*
X125040228Y-39644754D01*
X125059285Y-39500000D01*
X125040228Y-39355246D01*
X124984355Y-39220358D01*
X124895474Y-39104526D01*
X124895472Y-39104524D01*
X124895471Y-39104523D01*
X124779649Y-39015649D01*
X124779641Y-39015644D01*
X124644752Y-38959771D01*
X124500000Y-38940715D01*
X124355247Y-38959771D01*
X124287801Y-38987708D01*
X124220358Y-39015645D01*
X124220357Y-39015646D01*
X124220356Y-39015646D01*
X124104526Y-39104526D01*
X124015646Y-39220356D01*
X124015645Y-39220358D01*
X123987708Y-39287801D01*
X123959771Y-39355247D01*
X123940715Y-39499999D01*
X123940715Y-39500000D01*
X105000000Y-39500000D01*
X105000000Y-36350000D01*
X118440715Y-36350000D01*
X118459771Y-36494752D01*
X118515644Y-36629641D01*
X118515649Y-36629649D01*
X118604525Y-36745474D01*
X118720350Y-36834350D01*
X118720357Y-36834355D01*
X118855246Y-36890228D01*
X119000000Y-36909285D01*
X119144754Y-36890228D01*
X119279643Y-36834355D01*
X119395474Y-36745474D01*
X119484355Y-36629643D01*
X119540228Y-36494754D01*
X119559285Y-36350000D01*
X119540228Y-36205246D01*
X119484355Y-36070358D01*
X119395474Y-35954526D01*
X119395472Y-35954524D01*
X119395471Y-35954523D01*
X119279649Y-35865649D01*
X119279641Y-35865644D01*
X119144752Y-35809771D01*
X119000000Y-35790715D01*
X118855247Y-35809771D01*
X118787801Y-35837708D01*
X118720358Y-35865645D01*
X118720357Y-35865646D01*
X118720356Y-35865646D01*
X118604526Y-35954526D01*
X118515646Y-36070356D01*
X118515645Y-36070358D01*
X118487708Y-36137801D01*
X118459771Y-36205247D01*
X118440715Y-36349999D01*
X118440715Y-36350000D01*
X105000000Y-36350000D01*
X105000000Y-35126000D01*
X105020002Y-35057879D01*
X105073658Y-35011386D01*
X105126000Y-35000000D01*
X122947810Y-35000000D01*
X123015931Y-35020002D01*
G37*
%TD.AperFunction*%
%TD*%
M02*
