%TF.GenerationSoftware,KiCad,Pcbnew,7.0.5-1.fc38*%
%TF.CreationDate,2023-06-18T19:22:27-04:00*%
%TF.ProjectId,radome_dish_controller,7261646f-6d65-45f6-9469-73685f636f6e,rev?*%
%TF.SameCoordinates,Original*%
%TF.FileFunction,Legend,Top*%
%TF.FilePolarity,Positive*%
%FSLAX46Y46*%
G04 Gerber Fmt 4.6, Leading zero omitted, Abs format (unit mm)*
G04 Created by KiCad (PCBNEW 7.0.5-1.fc38) date 2023-06-18 19:22:27*
%MOMM*%
%LPD*%
G01*
G04 APERTURE LIST*
%ADD10C,0.150000*%
%ADD11C,0.120000*%
%ADD12C,0.127000*%
G04 APERTURE END LIST*
D10*
X167369819Y-80163220D02*
X166369819Y-80163220D01*
X166369819Y-80163220D02*
X166369819Y-79782268D01*
X166369819Y-79782268D02*
X166417438Y-79687030D01*
X166417438Y-79687030D02*
X166465057Y-79639411D01*
X166465057Y-79639411D02*
X166560295Y-79591792D01*
X166560295Y-79591792D02*
X166703152Y-79591792D01*
X166703152Y-79591792D02*
X166798390Y-79639411D01*
X166798390Y-79639411D02*
X166846009Y-79687030D01*
X166846009Y-79687030D02*
X166893628Y-79782268D01*
X166893628Y-79782268D02*
X166893628Y-80163220D01*
X167369819Y-79163220D02*
X166369819Y-79163220D01*
X166846009Y-79163220D02*
X166846009Y-78591792D01*
X167369819Y-78591792D02*
X166369819Y-78591792D01*
X167084104Y-78163220D02*
X167084104Y-77687030D01*
X167369819Y-78258458D02*
X166369819Y-77925125D01*
X166369819Y-77925125D02*
X167369819Y-77591792D01*
X167322200Y-77306077D02*
X167369819Y-77163220D01*
X167369819Y-77163220D02*
X167369819Y-76925125D01*
X167369819Y-76925125D02*
X167322200Y-76829887D01*
X167322200Y-76829887D02*
X167274580Y-76782268D01*
X167274580Y-76782268D02*
X167179342Y-76734649D01*
X167179342Y-76734649D02*
X167084104Y-76734649D01*
X167084104Y-76734649D02*
X166988866Y-76782268D01*
X166988866Y-76782268D02*
X166941247Y-76829887D01*
X166941247Y-76829887D02*
X166893628Y-76925125D01*
X166893628Y-76925125D02*
X166846009Y-77115601D01*
X166846009Y-77115601D02*
X166798390Y-77210839D01*
X166798390Y-77210839D02*
X166750771Y-77258458D01*
X166750771Y-77258458D02*
X166655533Y-77306077D01*
X166655533Y-77306077D02*
X166560295Y-77306077D01*
X166560295Y-77306077D02*
X166465057Y-77258458D01*
X166465057Y-77258458D02*
X166417438Y-77210839D01*
X166417438Y-77210839D02*
X166369819Y-77115601D01*
X166369819Y-77115601D02*
X166369819Y-76877506D01*
X166369819Y-76877506D02*
X166417438Y-76734649D01*
X166846009Y-76306077D02*
X166846009Y-75972744D01*
X167369819Y-75829887D02*
X167369819Y-76306077D01*
X167369819Y-76306077D02*
X166369819Y-76306077D01*
X166369819Y-76306077D02*
X166369819Y-75829887D01*
X166369819Y-74734648D02*
X167369819Y-74496553D01*
X167369819Y-74496553D02*
X166655533Y-74306077D01*
X166655533Y-74306077D02*
X167369819Y-74115601D01*
X167369819Y-74115601D02*
X166369819Y-73877506D01*
X167369819Y-67663220D02*
X166369819Y-67663220D01*
X166369819Y-67663220D02*
X166369819Y-67282268D01*
X166369819Y-67282268D02*
X166417438Y-67187030D01*
X166417438Y-67187030D02*
X166465057Y-67139411D01*
X166465057Y-67139411D02*
X166560295Y-67091792D01*
X166560295Y-67091792D02*
X166703152Y-67091792D01*
X166703152Y-67091792D02*
X166798390Y-67139411D01*
X166798390Y-67139411D02*
X166846009Y-67187030D01*
X166846009Y-67187030D02*
X166893628Y-67282268D01*
X166893628Y-67282268D02*
X166893628Y-67663220D01*
X167369819Y-66663220D02*
X166369819Y-66663220D01*
X166846009Y-66663220D02*
X166846009Y-66091792D01*
X167369819Y-66091792D02*
X166369819Y-66091792D01*
X167084104Y-65663220D02*
X167084104Y-65187030D01*
X167369819Y-65758458D02*
X166369819Y-65425125D01*
X166369819Y-65425125D02*
X167369819Y-65091792D01*
X167322200Y-64806077D02*
X167369819Y-64663220D01*
X167369819Y-64663220D02*
X167369819Y-64425125D01*
X167369819Y-64425125D02*
X167322200Y-64329887D01*
X167322200Y-64329887D02*
X167274580Y-64282268D01*
X167274580Y-64282268D02*
X167179342Y-64234649D01*
X167179342Y-64234649D02*
X167084104Y-64234649D01*
X167084104Y-64234649D02*
X166988866Y-64282268D01*
X166988866Y-64282268D02*
X166941247Y-64329887D01*
X166941247Y-64329887D02*
X166893628Y-64425125D01*
X166893628Y-64425125D02*
X166846009Y-64615601D01*
X166846009Y-64615601D02*
X166798390Y-64710839D01*
X166798390Y-64710839D02*
X166750771Y-64758458D01*
X166750771Y-64758458D02*
X166655533Y-64806077D01*
X166655533Y-64806077D02*
X166560295Y-64806077D01*
X166560295Y-64806077D02*
X166465057Y-64758458D01*
X166465057Y-64758458D02*
X166417438Y-64710839D01*
X166417438Y-64710839D02*
X166369819Y-64615601D01*
X166369819Y-64615601D02*
X166369819Y-64377506D01*
X166369819Y-64377506D02*
X166417438Y-64234649D01*
X166846009Y-63806077D02*
X166846009Y-63472744D01*
X167369819Y-63329887D02*
X167369819Y-63806077D01*
X167369819Y-63806077D02*
X166369819Y-63806077D01*
X166369819Y-63806077D02*
X166369819Y-63329887D01*
X166369819Y-62282267D02*
X167369819Y-61948934D01*
X167369819Y-61948934D02*
X166369819Y-61615601D01*
X167369819Y-55163220D02*
X166369819Y-55163220D01*
X166369819Y-55163220D02*
X166369819Y-54782268D01*
X166369819Y-54782268D02*
X166417438Y-54687030D01*
X166417438Y-54687030D02*
X166465057Y-54639411D01*
X166465057Y-54639411D02*
X166560295Y-54591792D01*
X166560295Y-54591792D02*
X166703152Y-54591792D01*
X166703152Y-54591792D02*
X166798390Y-54639411D01*
X166798390Y-54639411D02*
X166846009Y-54687030D01*
X166846009Y-54687030D02*
X166893628Y-54782268D01*
X166893628Y-54782268D02*
X166893628Y-55163220D01*
X167369819Y-54163220D02*
X166369819Y-54163220D01*
X166846009Y-54163220D02*
X166846009Y-53591792D01*
X167369819Y-53591792D02*
X166369819Y-53591792D01*
X167084104Y-53163220D02*
X167084104Y-52687030D01*
X167369819Y-53258458D02*
X166369819Y-52925125D01*
X166369819Y-52925125D02*
X167369819Y-52591792D01*
X167322200Y-52306077D02*
X167369819Y-52163220D01*
X167369819Y-52163220D02*
X167369819Y-51925125D01*
X167369819Y-51925125D02*
X167322200Y-51829887D01*
X167322200Y-51829887D02*
X167274580Y-51782268D01*
X167274580Y-51782268D02*
X167179342Y-51734649D01*
X167179342Y-51734649D02*
X167084104Y-51734649D01*
X167084104Y-51734649D02*
X166988866Y-51782268D01*
X166988866Y-51782268D02*
X166941247Y-51829887D01*
X166941247Y-51829887D02*
X166893628Y-51925125D01*
X166893628Y-51925125D02*
X166846009Y-52115601D01*
X166846009Y-52115601D02*
X166798390Y-52210839D01*
X166798390Y-52210839D02*
X166750771Y-52258458D01*
X166750771Y-52258458D02*
X166655533Y-52306077D01*
X166655533Y-52306077D02*
X166560295Y-52306077D01*
X166560295Y-52306077D02*
X166465057Y-52258458D01*
X166465057Y-52258458D02*
X166417438Y-52210839D01*
X166417438Y-52210839D02*
X166369819Y-52115601D01*
X166369819Y-52115601D02*
X166369819Y-51877506D01*
X166369819Y-51877506D02*
X166417438Y-51734649D01*
X166846009Y-51306077D02*
X166846009Y-50972744D01*
X167369819Y-50829887D02*
X167369819Y-51306077D01*
X167369819Y-51306077D02*
X166369819Y-51306077D01*
X166369819Y-51306077D02*
X166369819Y-50829887D01*
X166369819Y-49639410D02*
X167179342Y-49639410D01*
X167179342Y-49639410D02*
X167274580Y-49591791D01*
X167274580Y-49591791D02*
X167322200Y-49544172D01*
X167322200Y-49544172D02*
X167369819Y-49448934D01*
X167369819Y-49448934D02*
X167369819Y-49258458D01*
X167369819Y-49258458D02*
X167322200Y-49163220D01*
X167322200Y-49163220D02*
X167274580Y-49115601D01*
X167274580Y-49115601D02*
X167179342Y-49067982D01*
X167179342Y-49067982D02*
X166369819Y-49067982D01*
X160860588Y-27917438D02*
X160765350Y-27869819D01*
X160765350Y-27869819D02*
X160622493Y-27869819D01*
X160622493Y-27869819D02*
X160479636Y-27917438D01*
X160479636Y-27917438D02*
X160384398Y-28012676D01*
X160384398Y-28012676D02*
X160336779Y-28107914D01*
X160336779Y-28107914D02*
X160289160Y-28298390D01*
X160289160Y-28298390D02*
X160289160Y-28441247D01*
X160289160Y-28441247D02*
X160336779Y-28631723D01*
X160336779Y-28631723D02*
X160384398Y-28726961D01*
X160384398Y-28726961D02*
X160479636Y-28822200D01*
X160479636Y-28822200D02*
X160622493Y-28869819D01*
X160622493Y-28869819D02*
X160717731Y-28869819D01*
X160717731Y-28869819D02*
X160860588Y-28822200D01*
X160860588Y-28822200D02*
X160908207Y-28774580D01*
X160908207Y-28774580D02*
X160908207Y-28441247D01*
X160908207Y-28441247D02*
X160717731Y-28441247D01*
X161336779Y-28869819D02*
X161336779Y-27869819D01*
X161336779Y-27869819D02*
X161908207Y-28869819D01*
X161908207Y-28869819D02*
X161908207Y-27869819D01*
X162384398Y-28869819D02*
X162384398Y-27869819D01*
X162384398Y-27869819D02*
X162622493Y-27869819D01*
X162622493Y-27869819D02*
X162765350Y-27917438D01*
X162765350Y-27917438D02*
X162860588Y-28012676D01*
X162860588Y-28012676D02*
X162908207Y-28107914D01*
X162908207Y-28107914D02*
X162955826Y-28298390D01*
X162955826Y-28298390D02*
X162955826Y-28441247D01*
X162955826Y-28441247D02*
X162908207Y-28631723D01*
X162908207Y-28631723D02*
X162860588Y-28726961D01*
X162860588Y-28726961D02*
X162765350Y-28822200D01*
X162765350Y-28822200D02*
X162622493Y-28869819D01*
X162622493Y-28869819D02*
X162384398Y-28869819D01*
X139336779Y-22988866D02*
X140098684Y-22988866D01*
X139717731Y-23369819D02*
X139717731Y-22607914D01*
X141003445Y-22703152D02*
X141003445Y-23369819D01*
X140765350Y-22322200D02*
X140527255Y-23036485D01*
X140527255Y-23036485D02*
X141146302Y-23036485D01*
X141670112Y-22798390D02*
X141574874Y-22750771D01*
X141574874Y-22750771D02*
X141527255Y-22703152D01*
X141527255Y-22703152D02*
X141479636Y-22607914D01*
X141479636Y-22607914D02*
X141479636Y-22560295D01*
X141479636Y-22560295D02*
X141527255Y-22465057D01*
X141527255Y-22465057D02*
X141574874Y-22417438D01*
X141574874Y-22417438D02*
X141670112Y-22369819D01*
X141670112Y-22369819D02*
X141860588Y-22369819D01*
X141860588Y-22369819D02*
X141955826Y-22417438D01*
X141955826Y-22417438D02*
X142003445Y-22465057D01*
X142003445Y-22465057D02*
X142051064Y-22560295D01*
X142051064Y-22560295D02*
X142051064Y-22607914D01*
X142051064Y-22607914D02*
X142003445Y-22703152D01*
X142003445Y-22703152D02*
X141955826Y-22750771D01*
X141955826Y-22750771D02*
X141860588Y-22798390D01*
X141860588Y-22798390D02*
X141670112Y-22798390D01*
X141670112Y-22798390D02*
X141574874Y-22846009D01*
X141574874Y-22846009D02*
X141527255Y-22893628D01*
X141527255Y-22893628D02*
X141479636Y-22988866D01*
X141479636Y-22988866D02*
X141479636Y-23179342D01*
X141479636Y-23179342D02*
X141527255Y-23274580D01*
X141527255Y-23274580D02*
X141574874Y-23322200D01*
X141574874Y-23322200D02*
X141670112Y-23369819D01*
X141670112Y-23369819D02*
X141860588Y-23369819D01*
X141860588Y-23369819D02*
X141955826Y-23322200D01*
X141955826Y-23322200D02*
X142003445Y-23274580D01*
X142003445Y-23274580D02*
X142051064Y-23179342D01*
X142051064Y-23179342D02*
X142051064Y-22988866D01*
X142051064Y-22988866D02*
X142003445Y-22893628D01*
X142003445Y-22893628D02*
X141955826Y-22846009D01*
X141955826Y-22846009D02*
X141860588Y-22798390D01*
X142384398Y-22703152D02*
X142622493Y-23369819D01*
X142622493Y-23369819D02*
X142860588Y-22703152D01*
X98289160Y-56322200D02*
X98432017Y-56369819D01*
X98432017Y-56369819D02*
X98670112Y-56369819D01*
X98670112Y-56369819D02*
X98765350Y-56322200D01*
X98765350Y-56322200D02*
X98812969Y-56274580D01*
X98812969Y-56274580D02*
X98860588Y-56179342D01*
X98860588Y-56179342D02*
X98860588Y-56084104D01*
X98860588Y-56084104D02*
X98812969Y-55988866D01*
X98812969Y-55988866D02*
X98765350Y-55941247D01*
X98765350Y-55941247D02*
X98670112Y-55893628D01*
X98670112Y-55893628D02*
X98479636Y-55846009D01*
X98479636Y-55846009D02*
X98384398Y-55798390D01*
X98384398Y-55798390D02*
X98336779Y-55750771D01*
X98336779Y-55750771D02*
X98289160Y-55655533D01*
X98289160Y-55655533D02*
X98289160Y-55560295D01*
X98289160Y-55560295D02*
X98336779Y-55465057D01*
X98336779Y-55465057D02*
X98384398Y-55417438D01*
X98384398Y-55417438D02*
X98479636Y-55369819D01*
X98479636Y-55369819D02*
X98717731Y-55369819D01*
X98717731Y-55369819D02*
X98860588Y-55417438D01*
X99860588Y-56274580D02*
X99812969Y-56322200D01*
X99812969Y-56322200D02*
X99670112Y-56369819D01*
X99670112Y-56369819D02*
X99574874Y-56369819D01*
X99574874Y-56369819D02*
X99432017Y-56322200D01*
X99432017Y-56322200D02*
X99336779Y-56226961D01*
X99336779Y-56226961D02*
X99289160Y-56131723D01*
X99289160Y-56131723D02*
X99241541Y-55941247D01*
X99241541Y-55941247D02*
X99241541Y-55798390D01*
X99241541Y-55798390D02*
X99289160Y-55607914D01*
X99289160Y-55607914D02*
X99336779Y-55512676D01*
X99336779Y-55512676D02*
X99432017Y-55417438D01*
X99432017Y-55417438D02*
X99574874Y-55369819D01*
X99574874Y-55369819D02*
X99670112Y-55369819D01*
X99670112Y-55369819D02*
X99812969Y-55417438D01*
X99812969Y-55417438D02*
X99860588Y-55465057D01*
X100289160Y-56369819D02*
X100289160Y-55369819D01*
X100860588Y-56369819D02*
X100432017Y-55798390D01*
X100860588Y-55369819D02*
X100289160Y-55941247D01*
X102051065Y-55988866D02*
X102812970Y-55988866D01*
X102432017Y-56369819D02*
X102432017Y-55607914D01*
X104051065Y-55988866D02*
X104812970Y-55988866D01*
X97836779Y-53369819D02*
X97836779Y-52369819D01*
X97836779Y-52369819D02*
X98170112Y-53084104D01*
X98170112Y-53084104D02*
X98503445Y-52369819D01*
X98503445Y-52369819D02*
X98503445Y-53369819D01*
X98979636Y-53369819D02*
X98979636Y-52369819D01*
X99408207Y-53322200D02*
X99551064Y-53369819D01*
X99551064Y-53369819D02*
X99789159Y-53369819D01*
X99789159Y-53369819D02*
X99884397Y-53322200D01*
X99884397Y-53322200D02*
X99932016Y-53274580D01*
X99932016Y-53274580D02*
X99979635Y-53179342D01*
X99979635Y-53179342D02*
X99979635Y-53084104D01*
X99979635Y-53084104D02*
X99932016Y-52988866D01*
X99932016Y-52988866D02*
X99884397Y-52941247D01*
X99884397Y-52941247D02*
X99789159Y-52893628D01*
X99789159Y-52893628D02*
X99598683Y-52846009D01*
X99598683Y-52846009D02*
X99503445Y-52798390D01*
X99503445Y-52798390D02*
X99455826Y-52750771D01*
X99455826Y-52750771D02*
X99408207Y-52655533D01*
X99408207Y-52655533D02*
X99408207Y-52560295D01*
X99408207Y-52560295D02*
X99455826Y-52465057D01*
X99455826Y-52465057D02*
X99503445Y-52417438D01*
X99503445Y-52417438D02*
X99598683Y-52369819D01*
X99598683Y-52369819D02*
X99836778Y-52369819D01*
X99836778Y-52369819D02*
X99979635Y-52417438D01*
X100598683Y-52369819D02*
X100789159Y-52369819D01*
X100789159Y-52369819D02*
X100884397Y-52417438D01*
X100884397Y-52417438D02*
X100979635Y-52512676D01*
X100979635Y-52512676D02*
X101027254Y-52703152D01*
X101027254Y-52703152D02*
X101027254Y-53036485D01*
X101027254Y-53036485D02*
X100979635Y-53226961D01*
X100979635Y-53226961D02*
X100884397Y-53322200D01*
X100884397Y-53322200D02*
X100789159Y-53369819D01*
X100789159Y-53369819D02*
X100598683Y-53369819D01*
X100598683Y-53369819D02*
X100503445Y-53322200D01*
X100503445Y-53322200D02*
X100408207Y-53226961D01*
X100408207Y-53226961D02*
X100360588Y-53036485D01*
X100360588Y-53036485D02*
X100360588Y-52703152D01*
X100360588Y-52703152D02*
X100408207Y-52512676D01*
X100408207Y-52512676D02*
X100503445Y-52417438D01*
X100503445Y-52417438D02*
X100598683Y-52369819D01*
X102217731Y-52988866D02*
X102979636Y-52988866D01*
X102598683Y-53369819D02*
X102598683Y-52607914D01*
X104217731Y-52988866D02*
X104979636Y-52988866D01*
X98360588Y-49417438D02*
X98265350Y-49369819D01*
X98265350Y-49369819D02*
X98122493Y-49369819D01*
X98122493Y-49369819D02*
X97979636Y-49417438D01*
X97979636Y-49417438D02*
X97884398Y-49512676D01*
X97884398Y-49512676D02*
X97836779Y-49607914D01*
X97836779Y-49607914D02*
X97789160Y-49798390D01*
X97789160Y-49798390D02*
X97789160Y-49941247D01*
X97789160Y-49941247D02*
X97836779Y-50131723D01*
X97836779Y-50131723D02*
X97884398Y-50226961D01*
X97884398Y-50226961D02*
X97979636Y-50322200D01*
X97979636Y-50322200D02*
X98122493Y-50369819D01*
X98122493Y-50369819D02*
X98217731Y-50369819D01*
X98217731Y-50369819D02*
X98360588Y-50322200D01*
X98360588Y-50322200D02*
X98408207Y-50274580D01*
X98408207Y-50274580D02*
X98408207Y-49941247D01*
X98408207Y-49941247D02*
X98217731Y-49941247D01*
X98836779Y-50369819D02*
X98836779Y-49369819D01*
X98836779Y-49369819D02*
X99408207Y-50369819D01*
X99408207Y-50369819D02*
X99408207Y-49369819D01*
X99884398Y-50369819D02*
X99884398Y-49369819D01*
X99884398Y-49369819D02*
X100122493Y-49369819D01*
X100122493Y-49369819D02*
X100265350Y-49417438D01*
X100265350Y-49417438D02*
X100360588Y-49512676D01*
X100360588Y-49512676D02*
X100408207Y-49607914D01*
X100408207Y-49607914D02*
X100455826Y-49798390D01*
X100455826Y-49798390D02*
X100455826Y-49941247D01*
X100455826Y-49941247D02*
X100408207Y-50131723D01*
X100408207Y-50131723D02*
X100360588Y-50226961D01*
X100360588Y-50226961D02*
X100265350Y-50322200D01*
X100265350Y-50322200D02*
X100122493Y-50369819D01*
X100122493Y-50369819D02*
X99884398Y-50369819D01*
X101646303Y-49988866D02*
X102408208Y-49988866D01*
X102027255Y-50369819D02*
X102027255Y-49607914D01*
X103360588Y-49369819D02*
X102884398Y-49369819D01*
X102884398Y-49369819D02*
X102836779Y-49846009D01*
X102836779Y-49846009D02*
X102884398Y-49798390D01*
X102884398Y-49798390D02*
X102979636Y-49750771D01*
X102979636Y-49750771D02*
X103217731Y-49750771D01*
X103217731Y-49750771D02*
X103312969Y-49798390D01*
X103312969Y-49798390D02*
X103360588Y-49846009D01*
X103360588Y-49846009D02*
X103408207Y-49941247D01*
X103408207Y-49941247D02*
X103408207Y-50179342D01*
X103408207Y-50179342D02*
X103360588Y-50274580D01*
X103360588Y-50274580D02*
X103312969Y-50322200D01*
X103312969Y-50322200D02*
X103217731Y-50369819D01*
X103217731Y-50369819D02*
X102979636Y-50369819D01*
X102979636Y-50369819D02*
X102884398Y-50322200D01*
X102884398Y-50322200D02*
X102836779Y-50274580D01*
X103693922Y-49369819D02*
X104027255Y-50369819D01*
X104027255Y-50369819D02*
X104360588Y-49369819D01*
X98908207Y-60274580D02*
X98860588Y-60322200D01*
X98860588Y-60322200D02*
X98717731Y-60369819D01*
X98717731Y-60369819D02*
X98622493Y-60369819D01*
X98622493Y-60369819D02*
X98479636Y-60322200D01*
X98479636Y-60322200D02*
X98384398Y-60226961D01*
X98384398Y-60226961D02*
X98336779Y-60131723D01*
X98336779Y-60131723D02*
X98289160Y-59941247D01*
X98289160Y-59941247D02*
X98289160Y-59798390D01*
X98289160Y-59798390D02*
X98336779Y-59607914D01*
X98336779Y-59607914D02*
X98384398Y-59512676D01*
X98384398Y-59512676D02*
X98479636Y-59417438D01*
X98479636Y-59417438D02*
X98622493Y-59369819D01*
X98622493Y-59369819D02*
X98717731Y-59369819D01*
X98717731Y-59369819D02*
X98860588Y-59417438D01*
X98860588Y-59417438D02*
X98908207Y-59465057D01*
X99289160Y-60084104D02*
X99765350Y-60084104D01*
X99193922Y-60369819D02*
X99527255Y-59369819D01*
X99527255Y-59369819D02*
X99860588Y-60369819D01*
X100193922Y-60369819D02*
X100193922Y-59369819D01*
X100193922Y-59369819D02*
X100765350Y-60369819D01*
X100765350Y-60369819D02*
X100765350Y-59369819D01*
X101241541Y-59988866D02*
X102003446Y-59988866D01*
X98908207Y-72274580D02*
X98860588Y-72322200D01*
X98860588Y-72322200D02*
X98717731Y-72369819D01*
X98717731Y-72369819D02*
X98622493Y-72369819D01*
X98622493Y-72369819D02*
X98479636Y-72322200D01*
X98479636Y-72322200D02*
X98384398Y-72226961D01*
X98384398Y-72226961D02*
X98336779Y-72131723D01*
X98336779Y-72131723D02*
X98289160Y-71941247D01*
X98289160Y-71941247D02*
X98289160Y-71798390D01*
X98289160Y-71798390D02*
X98336779Y-71607914D01*
X98336779Y-71607914D02*
X98384398Y-71512676D01*
X98384398Y-71512676D02*
X98479636Y-71417438D01*
X98479636Y-71417438D02*
X98622493Y-71369819D01*
X98622493Y-71369819D02*
X98717731Y-71369819D01*
X98717731Y-71369819D02*
X98860588Y-71417438D01*
X98860588Y-71417438D02*
X98908207Y-71465057D01*
X99289160Y-72084104D02*
X99765350Y-72084104D01*
X99193922Y-72369819D02*
X99527255Y-71369819D01*
X99527255Y-71369819D02*
X99860588Y-72369819D01*
X100193922Y-72369819D02*
X100193922Y-71369819D01*
X100193922Y-71369819D02*
X100765350Y-72369819D01*
X100765350Y-72369819D02*
X100765350Y-71369819D01*
X101241541Y-71988866D02*
X102003446Y-71988866D01*
X101622493Y-72369819D02*
X101622493Y-71607914D01*
%TO.C,J108*%
X94183019Y-67535714D02*
X94897304Y-67535714D01*
X94897304Y-67535714D02*
X95040161Y-67583333D01*
X95040161Y-67583333D02*
X95135400Y-67678571D01*
X95135400Y-67678571D02*
X95183019Y-67821428D01*
X95183019Y-67821428D02*
X95183019Y-67916666D01*
X95183019Y-66535714D02*
X95183019Y-67107142D01*
X95183019Y-66821428D02*
X94183019Y-66821428D01*
X94183019Y-66821428D02*
X94325876Y-66916666D01*
X94325876Y-66916666D02*
X94421114Y-67011904D01*
X94421114Y-67011904D02*
X94468733Y-67107142D01*
X94183019Y-65916666D02*
X94183019Y-65821428D01*
X94183019Y-65821428D02*
X94230638Y-65726190D01*
X94230638Y-65726190D02*
X94278257Y-65678571D01*
X94278257Y-65678571D02*
X94373495Y-65630952D01*
X94373495Y-65630952D02*
X94563971Y-65583333D01*
X94563971Y-65583333D02*
X94802066Y-65583333D01*
X94802066Y-65583333D02*
X94992542Y-65630952D01*
X94992542Y-65630952D02*
X95087780Y-65678571D01*
X95087780Y-65678571D02*
X95135400Y-65726190D01*
X95135400Y-65726190D02*
X95183019Y-65821428D01*
X95183019Y-65821428D02*
X95183019Y-65916666D01*
X95183019Y-65916666D02*
X95135400Y-66011904D01*
X95135400Y-66011904D02*
X95087780Y-66059523D01*
X95087780Y-66059523D02*
X94992542Y-66107142D01*
X94992542Y-66107142D02*
X94802066Y-66154761D01*
X94802066Y-66154761D02*
X94563971Y-66154761D01*
X94563971Y-66154761D02*
X94373495Y-66107142D01*
X94373495Y-66107142D02*
X94278257Y-66059523D01*
X94278257Y-66059523D02*
X94230638Y-66011904D01*
X94230638Y-66011904D02*
X94183019Y-65916666D01*
X94611590Y-65011904D02*
X94563971Y-65107142D01*
X94563971Y-65107142D02*
X94516352Y-65154761D01*
X94516352Y-65154761D02*
X94421114Y-65202380D01*
X94421114Y-65202380D02*
X94373495Y-65202380D01*
X94373495Y-65202380D02*
X94278257Y-65154761D01*
X94278257Y-65154761D02*
X94230638Y-65107142D01*
X94230638Y-65107142D02*
X94183019Y-65011904D01*
X94183019Y-65011904D02*
X94183019Y-64821428D01*
X94183019Y-64821428D02*
X94230638Y-64726190D01*
X94230638Y-64726190D02*
X94278257Y-64678571D01*
X94278257Y-64678571D02*
X94373495Y-64630952D01*
X94373495Y-64630952D02*
X94421114Y-64630952D01*
X94421114Y-64630952D02*
X94516352Y-64678571D01*
X94516352Y-64678571D02*
X94563971Y-64726190D01*
X94563971Y-64726190D02*
X94611590Y-64821428D01*
X94611590Y-64821428D02*
X94611590Y-65011904D01*
X94611590Y-65011904D02*
X94659209Y-65107142D01*
X94659209Y-65107142D02*
X94706828Y-65154761D01*
X94706828Y-65154761D02*
X94802066Y-65202380D01*
X94802066Y-65202380D02*
X94992542Y-65202380D01*
X94992542Y-65202380D02*
X95087780Y-65154761D01*
X95087780Y-65154761D02*
X95135400Y-65107142D01*
X95135400Y-65107142D02*
X95183019Y-65011904D01*
X95183019Y-65011904D02*
X95183019Y-64821428D01*
X95183019Y-64821428D02*
X95135400Y-64726190D01*
X95135400Y-64726190D02*
X95087780Y-64678571D01*
X95087780Y-64678571D02*
X94992542Y-64630952D01*
X94992542Y-64630952D02*
X94802066Y-64630952D01*
X94802066Y-64630952D02*
X94706828Y-64678571D01*
X94706828Y-64678571D02*
X94659209Y-64726190D01*
X94659209Y-64726190D02*
X94611590Y-64821428D01*
D11*
%TO.C,R312*%
X141737258Y-83522500D02*
X141262742Y-83522500D01*
X141737258Y-82477500D02*
X141262742Y-82477500D01*
%TO.C,C308*%
X139490000Y-54640580D02*
X139490000Y-54359420D01*
X140510000Y-54640580D02*
X140510000Y-54359420D01*
%TO.C,U201*%
X126110000Y-79610000D02*
X125635000Y-79610000D01*
X118890000Y-79135000D02*
X118890000Y-79610000D01*
X126110000Y-79135000D02*
X126110000Y-79610000D01*
X118890000Y-72865000D02*
X118890000Y-72390000D01*
X126110000Y-72865000D02*
X126110000Y-72390000D01*
X118890000Y-72390000D02*
X119365000Y-72390000D01*
X126110000Y-72390000D02*
X125635000Y-72390000D01*
%TO.C,Q302*%
X164570000Y-50600000D02*
X164570000Y-56945000D01*
X159430000Y-51055000D02*
X159430000Y-56945000D01*
%TO.C,U302*%
X135000000Y-58440000D02*
X131550000Y-58440000D01*
X135000000Y-58440000D02*
X136950000Y-58440000D01*
X135000000Y-63560000D02*
X133050000Y-63560000D01*
X135000000Y-63560000D02*
X136950000Y-63560000D01*
%TO.C,R306*%
X141762742Y-75477500D02*
X142237258Y-75477500D01*
X141762742Y-76522500D02*
X142237258Y-76522500D01*
%TO.C,D302*%
X134860000Y-58000000D02*
X134860000Y-56000000D01*
X134860000Y-58000000D02*
X130850000Y-58000000D01*
X134860000Y-56000000D02*
X130850000Y-56000000D01*
%TO.C,R304*%
X141762742Y-62977500D02*
X142237258Y-62977500D01*
X141762742Y-64022500D02*
X142237258Y-64022500D01*
%TO.C,L101*%
X155950000Y-29050000D02*
X155950000Y-41950000D01*
X151450000Y-29050000D02*
X155950000Y-29050000D01*
X147550000Y-29050000D02*
X143050000Y-29050000D01*
X143050000Y-29050000D02*
X143050000Y-41950000D01*
X155950000Y-41950000D02*
X151450000Y-41950000D01*
X143050000Y-41950000D02*
X147550000Y-41950000D01*
%TO.C,R309*%
X162540000Y-71800000D02*
X159340000Y-71800000D01*
X160660000Y-75200000D02*
X157460000Y-75200000D01*
%TO.C,C103*%
X149415748Y-56110000D02*
X146584252Y-56110000D01*
X149415748Y-50890000D02*
X146584252Y-50890000D01*
%TO.C,U202*%
X116000000Y-67560000D02*
X119450000Y-67560000D01*
X116000000Y-67560000D02*
X114050000Y-67560000D01*
X116000000Y-62440000D02*
X117950000Y-62440000D01*
X116000000Y-62440000D02*
X114050000Y-62440000D01*
D12*
%TO.C,J106*%
X105370000Y-57925000D02*
X105370000Y-53700000D01*
X106950000Y-57925000D02*
X105370000Y-57925000D01*
X113630000Y-57925000D02*
X108500000Y-57925000D01*
X105370000Y-53700000D02*
X105370000Y-52300000D01*
X105370000Y-52300000D02*
X105370000Y-48075000D01*
X105370000Y-48075000D02*
X113630000Y-48075000D01*
X113630000Y-48075000D02*
X113630000Y-57925000D01*
X111700000Y-47600000D02*
X111400000Y-47100000D01*
X111400000Y-47100000D02*
X112000000Y-47100000D01*
X112000000Y-47100000D02*
X111700000Y-47600000D01*
D11*
%TO.C,U105*%
X108090000Y-43600000D02*
X108090000Y-37590000D01*
X114910000Y-41350000D02*
X114910000Y-37590000D01*
X108090000Y-37590000D02*
X109350000Y-37590000D01*
X114910000Y-37590000D02*
X113650000Y-37590000D01*
%TO.C,C203*%
X129510000Y-76359420D02*
X129510000Y-76640580D01*
X128490000Y-76359420D02*
X128490000Y-76640580D01*
%TO.C,R305*%
X141762742Y-73977500D02*
X142237258Y-73977500D01*
X141762742Y-75022500D02*
X142237258Y-75022500D01*
%TO.C,D303*%
X134860000Y-70500000D02*
X134860000Y-68500000D01*
X134860000Y-70500000D02*
X130850000Y-70500000D01*
X134860000Y-68500000D02*
X130850000Y-68500000D01*
%TO.C,C204*%
X129510000Y-73359420D02*
X129510000Y-73640580D01*
X128490000Y-73359420D02*
X128490000Y-73640580D01*
%TO.C,C310*%
X128640580Y-57510000D02*
X128359420Y-57510000D01*
X128640580Y-56490000D02*
X128359420Y-56490000D01*
%TO.C,C304*%
X141359420Y-79490000D02*
X141640580Y-79490000D01*
X141359420Y-80510000D02*
X141640580Y-80510000D01*
%TO.C,R311*%
X135974516Y-82500000D02*
X135500000Y-82500000D01*
X135974516Y-81455000D02*
X135500000Y-81455000D01*
%TO.C,C313*%
X140990000Y-67140580D02*
X140990000Y-66859420D01*
X142010000Y-67140580D02*
X142010000Y-66859420D01*
%TO.C,Q305*%
X158900000Y-81070000D02*
X152555000Y-81070000D01*
X158445000Y-75930000D02*
X152555000Y-75930000D01*
%TO.C,C106*%
X149415748Y-68610000D02*
X146584252Y-68610000D01*
X149415748Y-63390000D02*
X146584252Y-63390000D01*
D12*
%TO.C,J107*%
X105335000Y-69425000D02*
X107035000Y-69425000D01*
X105335000Y-69425000D02*
X105335000Y-62575000D01*
X108535000Y-69425000D02*
X110665000Y-69425000D01*
X104285000Y-64700000D02*
X104285000Y-63900000D01*
X105085000Y-64300000D02*
X104285000Y-64700000D01*
X104285000Y-63900000D02*
X105085000Y-64300000D01*
X105335000Y-62575000D02*
X110665000Y-62575000D01*
X110665000Y-62575000D02*
X110665000Y-69425000D01*
D11*
%TO.C,FB201*%
X126990000Y-73662779D02*
X126990000Y-73337221D01*
X128010000Y-73662779D02*
X128010000Y-73337221D01*
%TO.C,C202*%
X116640580Y-79510000D02*
X116359420Y-79510000D01*
X116640580Y-78490000D02*
X116359420Y-78490000D01*
%TO.C,C107*%
X131410000Y-23288748D02*
X131410000Y-24711252D01*
X129590000Y-23288748D02*
X129590000Y-24711252D01*
%TO.C,D301*%
X134860000Y-45500000D02*
X134860000Y-43500000D01*
X134860000Y-45500000D02*
X130850000Y-45500000D01*
X134860000Y-43500000D02*
X130850000Y-43500000D01*
%TO.C,Q301*%
X158900000Y-56070000D02*
X152555000Y-56070000D01*
X158445000Y-50930000D02*
X152555000Y-50930000D01*
%TO.C,U305*%
X139940000Y-58500000D02*
X139940000Y-60300000D01*
X139940000Y-58500000D02*
X139940000Y-57700000D01*
X143060000Y-58500000D02*
X143060000Y-59300000D01*
X143060000Y-58500000D02*
X143060000Y-57700000D01*
%TO.C,C109*%
X149415748Y-81110000D02*
X146584252Y-81110000D01*
X149415748Y-75890000D02*
X146584252Y-75890000D01*
%TO.C,C309*%
X140990000Y-54640580D02*
X140990000Y-54359420D01*
X142010000Y-54640580D02*
X142010000Y-54359420D01*
%TO.C,C110*%
X128910000Y-23288748D02*
X128910000Y-24711252D01*
X127090000Y-23288748D02*
X127090000Y-24711252D01*
%TO.C,U303*%
X135000000Y-70940000D02*
X131550000Y-70940000D01*
X135000000Y-70940000D02*
X136950000Y-70940000D01*
X135000000Y-76060000D02*
X133050000Y-76060000D01*
X135000000Y-76060000D02*
X136950000Y-76060000D01*
%TO.C,R310*%
X135500000Y-79955000D02*
X135974516Y-79955000D01*
X135500000Y-81000000D02*
X135974516Y-81000000D01*
%TO.C,R313*%
X141262742Y-80977500D02*
X141737258Y-80977500D01*
X141262742Y-82022500D02*
X141737258Y-82022500D01*
%TO.C,Q303*%
X158900000Y-68570000D02*
X152555000Y-68570000D01*
X158445000Y-63430000D02*
X152555000Y-63430000D01*
%TO.C,R303*%
X141762742Y-61477500D02*
X142237258Y-61477500D01*
X141762742Y-62522500D02*
X142237258Y-62522500D01*
%TO.C,C307*%
X128640580Y-45010000D02*
X128359420Y-45010000D01*
X128640580Y-43990000D02*
X128359420Y-43990000D01*
%TO.C,C303*%
X136640580Y-70510000D02*
X136359420Y-70510000D01*
X136640580Y-69490000D02*
X136359420Y-69490000D01*
%TO.C,R307*%
X162540000Y-46800000D02*
X159340000Y-46800000D01*
X160660000Y-50200000D02*
X157460000Y-50200000D01*
%TO.C,C113*%
X117884420Y-59895000D02*
X118165580Y-59895000D01*
X117884420Y-60915000D02*
X118165580Y-60915000D01*
%TO.C,Q306*%
X164570000Y-75600000D02*
X164570000Y-81945000D01*
X159430000Y-76055000D02*
X159430000Y-81945000D01*
%TO.C,R101*%
X156790000Y-41177064D02*
X156790000Y-36822936D01*
X160210000Y-41177064D02*
X160210000Y-36822936D01*
%TO.C,U301*%
X135000000Y-45940000D02*
X131550000Y-45940000D01*
X135000000Y-45940000D02*
X136950000Y-45940000D01*
X135000000Y-51060000D02*
X133050000Y-51060000D01*
X135000000Y-51060000D02*
X136950000Y-51060000D01*
%TO.C,C101*%
X160682918Y-33425000D02*
X161932918Y-33425000D01*
X161307918Y-32800000D02*
X161307918Y-34050000D01*
X167500000Y-30670000D02*
X167500000Y-43330000D01*
X167540000Y-30670000D02*
X167540000Y-43330000D01*
X167580000Y-30670000D02*
X167580000Y-43330000D01*
X167620000Y-30671000D02*
X167620000Y-43329000D01*
X167660000Y-30672000D02*
X167660000Y-43328000D01*
X167700000Y-30673000D02*
X167700000Y-43327000D01*
X167740000Y-30674000D02*
X167740000Y-43326000D01*
X167780000Y-30676000D02*
X167780000Y-43324000D01*
X167820000Y-30678000D02*
X167820000Y-43322000D01*
X167860000Y-30680000D02*
X167860000Y-43320000D01*
X167900000Y-30682000D02*
X167900000Y-43318000D01*
X167940000Y-30685000D02*
X167940000Y-43315000D01*
X167980000Y-30688000D02*
X167980000Y-43312000D01*
X168020000Y-30691000D02*
X168020000Y-43309000D01*
X168060000Y-30694000D02*
X168060000Y-43306000D01*
X168100000Y-30698000D02*
X168100000Y-43302000D01*
X168140000Y-30702000D02*
X168140000Y-43298000D01*
X168180000Y-30706000D02*
X168180000Y-43294000D01*
X168221000Y-30710000D02*
X168221000Y-43290000D01*
X168261000Y-30715000D02*
X168261000Y-43285000D01*
X168301000Y-30720000D02*
X168301000Y-43280000D01*
X168341000Y-30725000D02*
X168341000Y-43275000D01*
X168381000Y-30731000D02*
X168381000Y-43269000D01*
X168421000Y-30736000D02*
X168421000Y-43264000D01*
X168461000Y-30742000D02*
X168461000Y-43258000D01*
X168501000Y-30748000D02*
X168501000Y-43252000D01*
X168541000Y-30755000D02*
X168541000Y-43245000D01*
X168581000Y-30762000D02*
X168581000Y-35560000D01*
X168581000Y-38440000D02*
X168581000Y-43238000D01*
X168621000Y-30769000D02*
X168621000Y-35560000D01*
X168621000Y-38440000D02*
X168621000Y-43231000D01*
X168661000Y-30776000D02*
X168661000Y-35560000D01*
X168661000Y-38440000D02*
X168661000Y-43224000D01*
X168701000Y-30784000D02*
X168701000Y-35560000D01*
X168701000Y-38440000D02*
X168701000Y-43216000D01*
X168741000Y-30791000D02*
X168741000Y-35560000D01*
X168741000Y-38440000D02*
X168741000Y-43209000D01*
X168781000Y-30799000D02*
X168781000Y-35560000D01*
X168781000Y-38440000D02*
X168781000Y-43201000D01*
X168821000Y-30808000D02*
X168821000Y-35560000D01*
X168821000Y-38440000D02*
X168821000Y-43192000D01*
X168861000Y-30816000D02*
X168861000Y-35560000D01*
X168861000Y-38440000D02*
X168861000Y-43184000D01*
X168901000Y-30825000D02*
X168901000Y-35560000D01*
X168901000Y-38440000D02*
X168901000Y-43175000D01*
X168941000Y-30834000D02*
X168941000Y-35560000D01*
X168941000Y-38440000D02*
X168941000Y-43166000D01*
X168981000Y-30844000D02*
X168981000Y-35560000D01*
X168981000Y-38440000D02*
X168981000Y-43156000D01*
X169021000Y-30854000D02*
X169021000Y-35560000D01*
X169021000Y-38440000D02*
X169021000Y-43146000D01*
X169061000Y-30863000D02*
X169061000Y-35560000D01*
X169061000Y-38440000D02*
X169061000Y-43137000D01*
X169101000Y-30874000D02*
X169101000Y-35560000D01*
X169101000Y-38440000D02*
X169101000Y-43126000D01*
X169141000Y-30884000D02*
X169141000Y-35560000D01*
X169141000Y-38440000D02*
X169141000Y-43116000D01*
X169181000Y-30895000D02*
X169181000Y-35560000D01*
X169181000Y-38440000D02*
X169181000Y-43105000D01*
X169221000Y-30906000D02*
X169221000Y-35560000D01*
X169221000Y-38440000D02*
X169221000Y-43094000D01*
X169261000Y-30917000D02*
X169261000Y-35560000D01*
X169261000Y-38440000D02*
X169261000Y-43083000D01*
X169301000Y-30929000D02*
X169301000Y-35560000D01*
X169301000Y-38440000D02*
X169301000Y-43071000D01*
X169341000Y-30941000D02*
X169341000Y-35560000D01*
X169341000Y-38440000D02*
X169341000Y-43059000D01*
X169381000Y-30953000D02*
X169381000Y-35560000D01*
X169381000Y-38440000D02*
X169381000Y-43047000D01*
X169421000Y-30966000D02*
X169421000Y-35560000D01*
X169421000Y-38440000D02*
X169421000Y-43034000D01*
X169461000Y-30979000D02*
X169461000Y-35560000D01*
X169461000Y-38440000D02*
X169461000Y-43021000D01*
X169501000Y-30992000D02*
X169501000Y-35560000D01*
X169501000Y-38440000D02*
X169501000Y-43008000D01*
X169541000Y-31005000D02*
X169541000Y-35560000D01*
X169541000Y-38440000D02*
X169541000Y-42995000D01*
X169581000Y-31019000D02*
X169581000Y-35560000D01*
X169581000Y-38440000D02*
X169581000Y-42981000D01*
X169621000Y-31033000D02*
X169621000Y-35560000D01*
X169621000Y-38440000D02*
X169621000Y-42967000D01*
X169661000Y-31047000D02*
X169661000Y-35560000D01*
X169661000Y-38440000D02*
X169661000Y-42953000D01*
X169701000Y-31061000D02*
X169701000Y-35560000D01*
X169701000Y-38440000D02*
X169701000Y-42939000D01*
X169741000Y-31076000D02*
X169741000Y-35560000D01*
X169741000Y-38440000D02*
X169741000Y-42924000D01*
X169781000Y-31092000D02*
X169781000Y-35560000D01*
X169781000Y-38440000D02*
X169781000Y-42908000D01*
X169821000Y-31107000D02*
X169821000Y-35560000D01*
X169821000Y-38440000D02*
X169821000Y-42893000D01*
X169861000Y-31123000D02*
X169861000Y-35560000D01*
X169861000Y-38440000D02*
X169861000Y-42877000D01*
X169901000Y-31139000D02*
X169901000Y-35560000D01*
X169901000Y-38440000D02*
X169901000Y-42861000D01*
X169941000Y-31155000D02*
X169941000Y-35560000D01*
X169941000Y-38440000D02*
X169941000Y-42845000D01*
X169981000Y-31172000D02*
X169981000Y-35560000D01*
X169981000Y-38440000D02*
X169981000Y-42828000D01*
X170021000Y-31189000D02*
X170021000Y-35560000D01*
X170021000Y-38440000D02*
X170021000Y-42811000D01*
X170061000Y-31207000D02*
X170061000Y-35560000D01*
X170061000Y-38440000D02*
X170061000Y-42793000D01*
X170101000Y-31224000D02*
X170101000Y-35560000D01*
X170101000Y-38440000D02*
X170101000Y-42776000D01*
X170141000Y-31242000D02*
X170141000Y-35560000D01*
X170141000Y-38440000D02*
X170141000Y-42758000D01*
X170181000Y-31261000D02*
X170181000Y-35560000D01*
X170181000Y-38440000D02*
X170181000Y-42739000D01*
X170221000Y-31279000D02*
X170221000Y-35560000D01*
X170221000Y-38440000D02*
X170221000Y-42721000D01*
X170261000Y-31298000D02*
X170261000Y-35560000D01*
X170261000Y-38440000D02*
X170261000Y-42702000D01*
X170301000Y-31318000D02*
X170301000Y-35560000D01*
X170301000Y-38440000D02*
X170301000Y-42682000D01*
X170341000Y-31338000D02*
X170341000Y-35560000D01*
X170341000Y-38440000D02*
X170341000Y-42662000D01*
X170381000Y-31358000D02*
X170381000Y-35560000D01*
X170381000Y-38440000D02*
X170381000Y-42642000D01*
X170421000Y-31378000D02*
X170421000Y-35560000D01*
X170421000Y-38440000D02*
X170421000Y-42622000D01*
X170461000Y-31399000D02*
X170461000Y-35560000D01*
X170461000Y-38440000D02*
X170461000Y-42601000D01*
X170501000Y-31420000D02*
X170501000Y-35560000D01*
X170501000Y-38440000D02*
X170501000Y-42580000D01*
X170541000Y-31442000D02*
X170541000Y-35560000D01*
X170541000Y-38440000D02*
X170541000Y-42558000D01*
X170581000Y-31464000D02*
X170581000Y-35560000D01*
X170581000Y-38440000D02*
X170581000Y-42536000D01*
X170621000Y-31486000D02*
X170621000Y-35560000D01*
X170621000Y-38440000D02*
X170621000Y-42514000D01*
X170661000Y-31509000D02*
X170661000Y-35560000D01*
X170661000Y-38440000D02*
X170661000Y-42491000D01*
X170701000Y-31532000D02*
X170701000Y-35560000D01*
X170701000Y-38440000D02*
X170701000Y-42468000D01*
X170741000Y-31555000D02*
X170741000Y-35560000D01*
X170741000Y-38440000D02*
X170741000Y-42445000D01*
X170781000Y-31579000D02*
X170781000Y-35560000D01*
X170781000Y-38440000D02*
X170781000Y-42421000D01*
X170821000Y-31603000D02*
X170821000Y-35560000D01*
X170821000Y-38440000D02*
X170821000Y-42397000D01*
X170861000Y-31628000D02*
X170861000Y-35560000D01*
X170861000Y-38440000D02*
X170861000Y-42372000D01*
X170901000Y-31653000D02*
X170901000Y-35560000D01*
X170901000Y-38440000D02*
X170901000Y-42347000D01*
X170941000Y-31678000D02*
X170941000Y-35560000D01*
X170941000Y-38440000D02*
X170941000Y-42322000D01*
X170981000Y-31704000D02*
X170981000Y-35560000D01*
X170981000Y-38440000D02*
X170981000Y-42296000D01*
X171021000Y-31730000D02*
X171021000Y-35560000D01*
X171021000Y-38440000D02*
X171021000Y-42270000D01*
X171061000Y-31757000D02*
X171061000Y-35560000D01*
X171061000Y-38440000D02*
X171061000Y-42243000D01*
X171101000Y-31784000D02*
X171101000Y-35560000D01*
X171101000Y-38440000D02*
X171101000Y-42216000D01*
X171141000Y-31812000D02*
X171141000Y-35560000D01*
X171141000Y-38440000D02*
X171141000Y-42188000D01*
X171181000Y-31840000D02*
X171181000Y-35560000D01*
X171181000Y-38440000D02*
X171181000Y-42160000D01*
X171221000Y-31869000D02*
X171221000Y-35560000D01*
X171221000Y-38440000D02*
X171221000Y-42131000D01*
X171261000Y-31898000D02*
X171261000Y-35560000D01*
X171261000Y-38440000D02*
X171261000Y-42102000D01*
X171301000Y-31927000D02*
X171301000Y-35560000D01*
X171301000Y-38440000D02*
X171301000Y-42073000D01*
X171341000Y-31957000D02*
X171341000Y-35560000D01*
X171341000Y-38440000D02*
X171341000Y-42043000D01*
X171381000Y-31988000D02*
X171381000Y-35560000D01*
X171381000Y-38440000D02*
X171381000Y-42012000D01*
X171421000Y-32018000D02*
X171421000Y-35560000D01*
X171421000Y-38440000D02*
X171421000Y-41982000D01*
X171461000Y-32050000D02*
X171461000Y-41950000D01*
X171501000Y-32082000D02*
X171501000Y-41918000D01*
X171541000Y-32115000D02*
X171541000Y-41885000D01*
X171581000Y-32148000D02*
X171581000Y-41852000D01*
X171621000Y-32181000D02*
X171621000Y-41819000D01*
X171661000Y-32215000D02*
X171661000Y-41785000D01*
X171701000Y-32250000D02*
X171701000Y-41750000D01*
X171741000Y-32286000D02*
X171741000Y-41714000D01*
X171781000Y-32322000D02*
X171781000Y-41678000D01*
X171821000Y-32358000D02*
X171821000Y-41642000D01*
X171861000Y-32395000D02*
X171861000Y-41605000D01*
X171901000Y-32433000D02*
X171901000Y-41567000D01*
X171941000Y-32472000D02*
X171941000Y-41528000D01*
X171981000Y-32511000D02*
X171981000Y-41489000D01*
X172021000Y-32551000D02*
X172021000Y-41449000D01*
X172061000Y-32592000D02*
X172061000Y-41408000D01*
X172101000Y-32633000D02*
X172101000Y-41367000D01*
X172141000Y-32675000D02*
X172141000Y-41325000D01*
X172181000Y-32718000D02*
X172181000Y-41282000D01*
X172221000Y-32762000D02*
X172221000Y-41238000D01*
X172261000Y-32806000D02*
X172261000Y-41194000D01*
X172301000Y-32852000D02*
X172301000Y-41148000D01*
X172341000Y-32898000D02*
X172341000Y-41102000D01*
X172381000Y-32945000D02*
X172381000Y-41055000D01*
X172421000Y-32993000D02*
X172421000Y-41007000D01*
X172461000Y-33043000D02*
X172461000Y-40957000D01*
X172501000Y-33093000D02*
X172501000Y-40907000D01*
X172541000Y-33144000D02*
X172541000Y-40856000D01*
X172581000Y-33196000D02*
X172581000Y-40804000D01*
X172621000Y-33250000D02*
X172621000Y-40750000D01*
X172661000Y-33304000D02*
X172661000Y-40696000D01*
X172701000Y-33360000D02*
X172701000Y-40640000D01*
X172741000Y-33417000D02*
X172741000Y-40583000D01*
X172781000Y-33476000D02*
X172781000Y-40524000D01*
X172821000Y-33536000D02*
X172821000Y-40464000D01*
X172861000Y-33598000D02*
X172861000Y-40402000D01*
X172901000Y-33661000D02*
X172901000Y-40339000D01*
X172941000Y-33725000D02*
X172941000Y-40275000D01*
X172981000Y-33792000D02*
X172981000Y-40208000D01*
X173021000Y-33860000D02*
X173021000Y-40140000D01*
X173061000Y-33931000D02*
X173061000Y-40069000D01*
X173101000Y-34004000D02*
X173101000Y-39996000D01*
X173141000Y-34079000D02*
X173141000Y-39921000D01*
X173181000Y-34156000D02*
X173181000Y-39844000D01*
X173221000Y-34236000D02*
X173221000Y-39764000D01*
X173261000Y-34319000D02*
X173261000Y-39681000D01*
X173301000Y-34406000D02*
X173301000Y-39594000D01*
X173341000Y-34496000D02*
X173341000Y-39504000D01*
X173381000Y-34590000D02*
X173381000Y-39410000D01*
X173421000Y-34688000D02*
X173421000Y-39312000D01*
X173461000Y-34791000D02*
X173461000Y-39209000D01*
X173501000Y-34900000D02*
X173501000Y-39100000D01*
X173541000Y-35016000D02*
X173541000Y-38984000D01*
X173581000Y-35139000D02*
X173581000Y-38861000D01*
X173621000Y-35272000D02*
X173621000Y-38728000D01*
X173661000Y-35417000D02*
X173661000Y-38583000D01*
X173701000Y-35578000D02*
X173701000Y-38422000D01*
X173741000Y-35759000D02*
X173741000Y-38241000D01*
X173781000Y-35972000D02*
X173781000Y-38028000D01*
X173821000Y-36243000D02*
X173821000Y-37757000D01*
X173861000Y-36683000D02*
X173861000Y-37317000D01*
X173870000Y-37000000D02*
G75*
G03*
X173870000Y-37000000I-6370000J0D01*
G01*
%TO.C,C206*%
X121210000Y-64859420D02*
X121210000Y-65140580D01*
X120190000Y-64859420D02*
X120190000Y-65140580D01*
%TO.C,C305*%
X137990000Y-42140580D02*
X137990000Y-41859420D01*
X139010000Y-42140580D02*
X139010000Y-41859420D01*
%TO.C,R204*%
X113762742Y-68477500D02*
X114237258Y-68477500D01*
X113762742Y-69522500D02*
X114237258Y-69522500D01*
%TO.C,C112*%
X107410000Y-36788748D02*
X107410000Y-38211252D01*
X105590000Y-36788748D02*
X105590000Y-38211252D01*
%TO.C,C311*%
X128640580Y-70010000D02*
X128359420Y-70010000D01*
X128640580Y-68990000D02*
X128359420Y-68990000D01*
%TO.C,Y201*%
X117300000Y-84000000D02*
X119300000Y-84000000D01*
X119300000Y-84000000D02*
X119700000Y-84000000D01*
X117300000Y-83800000D02*
X117300000Y-82800000D01*
X119300000Y-83800000D02*
X117300000Y-83800000D01*
X119300000Y-83800000D02*
X119700000Y-83800000D01*
X119700000Y-82800000D02*
X119700000Y-83800000D01*
X119700000Y-82800000D02*
X120100000Y-82800000D01*
X117300000Y-81000000D02*
X117300000Y-80200000D01*
X117300000Y-80200000D02*
X119300000Y-80200000D01*
X119300000Y-80200000D02*
X119700000Y-80200000D01*
X119700000Y-80200000D02*
X119700000Y-81000000D01*
%TO.C,C111*%
X125410000Y-40788748D02*
X125410000Y-42211252D01*
X123590000Y-40788748D02*
X123590000Y-42211252D01*
%TO.C,U103*%
X119500000Y-51060000D02*
X122950000Y-51060000D01*
X119500000Y-51060000D02*
X117550000Y-51060000D01*
X119500000Y-45940000D02*
X121450000Y-45940000D01*
X119500000Y-45940000D02*
X117550000Y-45940000D01*
%TO.C,Q304*%
X164570000Y-63100000D02*
X164570000Y-69445000D01*
X159430000Y-63555000D02*
X159430000Y-69445000D01*
%TO.C,C114*%
X117884420Y-51990000D02*
X118165580Y-51990000D01*
X117884420Y-53010000D02*
X118165580Y-53010000D01*
%TO.C,C312*%
X139490000Y-67140580D02*
X139490000Y-66859420D01*
X140510000Y-67140580D02*
X140510000Y-66859420D01*
%TO.C,C108*%
X149415748Y-74860000D02*
X146584252Y-74860000D01*
X149415748Y-69640000D02*
X146584252Y-69640000D01*
%TO.C,U102*%
X119500000Y-59060000D02*
X122950000Y-59060000D01*
X119500000Y-59060000D02*
X117550000Y-59060000D01*
X119500000Y-53940000D02*
X121450000Y-53940000D01*
X119500000Y-53940000D02*
X117550000Y-53940000D01*
%TO.C,C205*%
X122359420Y-82215000D02*
X122640580Y-82215000D01*
X122359420Y-83235000D02*
X122640580Y-83235000D01*
%TO.C,U104*%
X115590000Y-43600000D02*
X115590000Y-37590000D01*
X122410000Y-41350000D02*
X122410000Y-37590000D01*
X115590000Y-37590000D02*
X116850000Y-37590000D01*
X122410000Y-37590000D02*
X121150000Y-37590000D01*
D12*
%TO.C,J108*%
X97100000Y-69425000D02*
X98800000Y-69425000D01*
X97100000Y-69425000D02*
X97100000Y-62575000D01*
X100300000Y-69425000D02*
X102430000Y-69425000D01*
X96050000Y-64700000D02*
X96050000Y-63900000D01*
X96850000Y-64300000D02*
X96050000Y-64700000D01*
X96050000Y-63900000D02*
X96850000Y-64300000D01*
X97100000Y-62575000D02*
X102430000Y-62575000D01*
X102430000Y-62575000D02*
X102430000Y-69425000D01*
D11*
%TO.C,ANACAP201*%
X128010000Y-76359420D02*
X128010000Y-76640580D01*
X126990000Y-76359420D02*
X126990000Y-76640580D01*
%TO.C,R302*%
X141762742Y-50477500D02*
X142237258Y-50477500D01*
X141762742Y-51522500D02*
X142237258Y-51522500D01*
%TO.C,C302*%
X136640580Y-58010000D02*
X136359420Y-58010000D01*
X136640580Y-56990000D02*
X136359420Y-56990000D01*
%TO.C,J201*%
X106410000Y-73060000D02*
X107735000Y-73060000D01*
X107735000Y-72995000D02*
X107735000Y-73060000D01*
X107735000Y-72995000D02*
X111265000Y-72995000D01*
X107735000Y-81940000D02*
X107735000Y-82005000D01*
X107735000Y-82005000D02*
X111265000Y-82005000D01*
X111265000Y-72995000D02*
X111265000Y-73060000D01*
X111265000Y-81940000D02*
X111265000Y-82005000D01*
%TO.C,C104*%
X139575000Y-25182918D02*
X139575000Y-26432918D01*
X140200000Y-25807918D02*
X138950000Y-25807918D01*
X142330000Y-32000000D02*
X129670000Y-32000000D01*
X142330000Y-32040000D02*
X129670000Y-32040000D01*
X142330000Y-32080000D02*
X129670000Y-32080000D01*
X142329000Y-32120000D02*
X129671000Y-32120000D01*
X142328000Y-32160000D02*
X129672000Y-32160000D01*
X142327000Y-32200000D02*
X129673000Y-32200000D01*
X142326000Y-32240000D02*
X129674000Y-32240000D01*
X142324000Y-32280000D02*
X129676000Y-32280000D01*
X142322000Y-32320000D02*
X129678000Y-32320000D01*
X142320000Y-32360000D02*
X129680000Y-32360000D01*
X142318000Y-32400000D02*
X129682000Y-32400000D01*
X142315000Y-32440000D02*
X129685000Y-32440000D01*
X142312000Y-32480000D02*
X129688000Y-32480000D01*
X142309000Y-32520000D02*
X129691000Y-32520000D01*
X142306000Y-32560000D02*
X129694000Y-32560000D01*
X142302000Y-32600000D02*
X129698000Y-32600000D01*
X142298000Y-32640000D02*
X129702000Y-32640000D01*
X142294000Y-32680000D02*
X129706000Y-32680000D01*
X142290000Y-32721000D02*
X129710000Y-32721000D01*
X142285000Y-32761000D02*
X129715000Y-32761000D01*
X142280000Y-32801000D02*
X129720000Y-32801000D01*
X142275000Y-32841000D02*
X129725000Y-32841000D01*
X142269000Y-32881000D02*
X129731000Y-32881000D01*
X142264000Y-32921000D02*
X129736000Y-32921000D01*
X142258000Y-32961000D02*
X129742000Y-32961000D01*
X142252000Y-33001000D02*
X129748000Y-33001000D01*
X142245000Y-33041000D02*
X129755000Y-33041000D01*
X142238000Y-33081000D02*
X137440000Y-33081000D01*
X134560000Y-33081000D02*
X129762000Y-33081000D01*
X142231000Y-33121000D02*
X137440000Y-33121000D01*
X134560000Y-33121000D02*
X129769000Y-33121000D01*
X142224000Y-33161000D02*
X137440000Y-33161000D01*
X134560000Y-33161000D02*
X129776000Y-33161000D01*
X142216000Y-33201000D02*
X137440000Y-33201000D01*
X134560000Y-33201000D02*
X129784000Y-33201000D01*
X142209000Y-33241000D02*
X137440000Y-33241000D01*
X134560000Y-33241000D02*
X129791000Y-33241000D01*
X142201000Y-33281000D02*
X137440000Y-33281000D01*
X134560000Y-33281000D02*
X129799000Y-33281000D01*
X142192000Y-33321000D02*
X137440000Y-33321000D01*
X134560000Y-33321000D02*
X129808000Y-33321000D01*
X142184000Y-33361000D02*
X137440000Y-33361000D01*
X134560000Y-33361000D02*
X129816000Y-33361000D01*
X142175000Y-33401000D02*
X137440000Y-33401000D01*
X134560000Y-33401000D02*
X129825000Y-33401000D01*
X142166000Y-33441000D02*
X137440000Y-33441000D01*
X134560000Y-33441000D02*
X129834000Y-33441000D01*
X142156000Y-33481000D02*
X137440000Y-33481000D01*
X134560000Y-33481000D02*
X129844000Y-33481000D01*
X142146000Y-33521000D02*
X137440000Y-33521000D01*
X134560000Y-33521000D02*
X129854000Y-33521000D01*
X142137000Y-33561000D02*
X137440000Y-33561000D01*
X134560000Y-33561000D02*
X129863000Y-33561000D01*
X142126000Y-33601000D02*
X137440000Y-33601000D01*
X134560000Y-33601000D02*
X129874000Y-33601000D01*
X142116000Y-33641000D02*
X137440000Y-33641000D01*
X134560000Y-33641000D02*
X129884000Y-33641000D01*
X142105000Y-33681000D02*
X137440000Y-33681000D01*
X134560000Y-33681000D02*
X129895000Y-33681000D01*
X142094000Y-33721000D02*
X137440000Y-33721000D01*
X134560000Y-33721000D02*
X129906000Y-33721000D01*
X142083000Y-33761000D02*
X137440000Y-33761000D01*
X134560000Y-33761000D02*
X129917000Y-33761000D01*
X142071000Y-33801000D02*
X137440000Y-33801000D01*
X134560000Y-33801000D02*
X129929000Y-33801000D01*
X142059000Y-33841000D02*
X137440000Y-33841000D01*
X134560000Y-33841000D02*
X129941000Y-33841000D01*
X142047000Y-33881000D02*
X137440000Y-33881000D01*
X134560000Y-33881000D02*
X129953000Y-33881000D01*
X142034000Y-33921000D02*
X137440000Y-33921000D01*
X134560000Y-33921000D02*
X129966000Y-33921000D01*
X142021000Y-33961000D02*
X137440000Y-33961000D01*
X134560000Y-33961000D02*
X129979000Y-33961000D01*
X142008000Y-34001000D02*
X137440000Y-34001000D01*
X134560000Y-34001000D02*
X129992000Y-34001000D01*
X141995000Y-34041000D02*
X137440000Y-34041000D01*
X134560000Y-34041000D02*
X130005000Y-34041000D01*
X141981000Y-34081000D02*
X137440000Y-34081000D01*
X134560000Y-34081000D02*
X130019000Y-34081000D01*
X141967000Y-34121000D02*
X137440000Y-34121000D01*
X134560000Y-34121000D02*
X130033000Y-34121000D01*
X141953000Y-34161000D02*
X137440000Y-34161000D01*
X134560000Y-34161000D02*
X130047000Y-34161000D01*
X141939000Y-34201000D02*
X137440000Y-34201000D01*
X134560000Y-34201000D02*
X130061000Y-34201000D01*
X141924000Y-34241000D02*
X137440000Y-34241000D01*
X134560000Y-34241000D02*
X130076000Y-34241000D01*
X141908000Y-34281000D02*
X137440000Y-34281000D01*
X134560000Y-34281000D02*
X130092000Y-34281000D01*
X141893000Y-34321000D02*
X137440000Y-34321000D01*
X134560000Y-34321000D02*
X130107000Y-34321000D01*
X141877000Y-34361000D02*
X137440000Y-34361000D01*
X134560000Y-34361000D02*
X130123000Y-34361000D01*
X141861000Y-34401000D02*
X137440000Y-34401000D01*
X134560000Y-34401000D02*
X130139000Y-34401000D01*
X141845000Y-34441000D02*
X137440000Y-34441000D01*
X134560000Y-34441000D02*
X130155000Y-34441000D01*
X141828000Y-34481000D02*
X137440000Y-34481000D01*
X134560000Y-34481000D02*
X130172000Y-34481000D01*
X141811000Y-34521000D02*
X137440000Y-34521000D01*
X134560000Y-34521000D02*
X130189000Y-34521000D01*
X141793000Y-34561000D02*
X137440000Y-34561000D01*
X134560000Y-34561000D02*
X130207000Y-34561000D01*
X141776000Y-34601000D02*
X137440000Y-34601000D01*
X134560000Y-34601000D02*
X130224000Y-34601000D01*
X141758000Y-34641000D02*
X137440000Y-34641000D01*
X134560000Y-34641000D02*
X130242000Y-34641000D01*
X141739000Y-34681000D02*
X137440000Y-34681000D01*
X134560000Y-34681000D02*
X130261000Y-34681000D01*
X141721000Y-34721000D02*
X137440000Y-34721000D01*
X134560000Y-34721000D02*
X130279000Y-34721000D01*
X141702000Y-34761000D02*
X137440000Y-34761000D01*
X134560000Y-34761000D02*
X130298000Y-34761000D01*
X141682000Y-34801000D02*
X137440000Y-34801000D01*
X134560000Y-34801000D02*
X130318000Y-34801000D01*
X141662000Y-34841000D02*
X137440000Y-34841000D01*
X134560000Y-34841000D02*
X130338000Y-34841000D01*
X141642000Y-34881000D02*
X137440000Y-34881000D01*
X134560000Y-34881000D02*
X130358000Y-34881000D01*
X141622000Y-34921000D02*
X137440000Y-34921000D01*
X134560000Y-34921000D02*
X130378000Y-34921000D01*
X141601000Y-34961000D02*
X137440000Y-34961000D01*
X134560000Y-34961000D02*
X130399000Y-34961000D01*
X141580000Y-35001000D02*
X137440000Y-35001000D01*
X134560000Y-35001000D02*
X130420000Y-35001000D01*
X141558000Y-35041000D02*
X137440000Y-35041000D01*
X134560000Y-35041000D02*
X130442000Y-35041000D01*
X141536000Y-35081000D02*
X137440000Y-35081000D01*
X134560000Y-35081000D02*
X130464000Y-35081000D01*
X141514000Y-35121000D02*
X137440000Y-35121000D01*
X134560000Y-35121000D02*
X130486000Y-35121000D01*
X141491000Y-35161000D02*
X137440000Y-35161000D01*
X134560000Y-35161000D02*
X130509000Y-35161000D01*
X141468000Y-35201000D02*
X137440000Y-35201000D01*
X134560000Y-35201000D02*
X130532000Y-35201000D01*
X141445000Y-35241000D02*
X137440000Y-35241000D01*
X134560000Y-35241000D02*
X130555000Y-35241000D01*
X141421000Y-35281000D02*
X137440000Y-35281000D01*
X134560000Y-35281000D02*
X130579000Y-35281000D01*
X141397000Y-35321000D02*
X137440000Y-35321000D01*
X134560000Y-35321000D02*
X130603000Y-35321000D01*
X141372000Y-35361000D02*
X137440000Y-35361000D01*
X134560000Y-35361000D02*
X130628000Y-35361000D01*
X141347000Y-35401000D02*
X137440000Y-35401000D01*
X134560000Y-35401000D02*
X130653000Y-35401000D01*
X141322000Y-35441000D02*
X137440000Y-35441000D01*
X134560000Y-35441000D02*
X130678000Y-35441000D01*
X141296000Y-35481000D02*
X137440000Y-35481000D01*
X134560000Y-35481000D02*
X130704000Y-35481000D01*
X141270000Y-35521000D02*
X137440000Y-35521000D01*
X134560000Y-35521000D02*
X130730000Y-35521000D01*
X141243000Y-35561000D02*
X137440000Y-35561000D01*
X134560000Y-35561000D02*
X130757000Y-35561000D01*
X141216000Y-35601000D02*
X137440000Y-35601000D01*
X134560000Y-35601000D02*
X130784000Y-35601000D01*
X141188000Y-35641000D02*
X137440000Y-35641000D01*
X134560000Y-35641000D02*
X130812000Y-35641000D01*
X141160000Y-35681000D02*
X137440000Y-35681000D01*
X134560000Y-35681000D02*
X130840000Y-35681000D01*
X141131000Y-35721000D02*
X137440000Y-35721000D01*
X134560000Y-35721000D02*
X130869000Y-35721000D01*
X141102000Y-35761000D02*
X137440000Y-35761000D01*
X134560000Y-35761000D02*
X130898000Y-35761000D01*
X141073000Y-35801000D02*
X137440000Y-35801000D01*
X134560000Y-35801000D02*
X130927000Y-35801000D01*
X141043000Y-35841000D02*
X137440000Y-35841000D01*
X134560000Y-35841000D02*
X130957000Y-35841000D01*
X141012000Y-35881000D02*
X137440000Y-35881000D01*
X134560000Y-35881000D02*
X130988000Y-35881000D01*
X140982000Y-35921000D02*
X137440000Y-35921000D01*
X134560000Y-35921000D02*
X131018000Y-35921000D01*
X140950000Y-35961000D02*
X131050000Y-35961000D01*
X140918000Y-36001000D02*
X131082000Y-36001000D01*
X140885000Y-36041000D02*
X131115000Y-36041000D01*
X140852000Y-36081000D02*
X131148000Y-36081000D01*
X140819000Y-36121000D02*
X131181000Y-36121000D01*
X140785000Y-36161000D02*
X131215000Y-36161000D01*
X140750000Y-36201000D02*
X131250000Y-36201000D01*
X140714000Y-36241000D02*
X131286000Y-36241000D01*
X140678000Y-36281000D02*
X131322000Y-36281000D01*
X140642000Y-36321000D02*
X131358000Y-36321000D01*
X140605000Y-36361000D02*
X131395000Y-36361000D01*
X140567000Y-36401000D02*
X131433000Y-36401000D01*
X140528000Y-36441000D02*
X131472000Y-36441000D01*
X140489000Y-36481000D02*
X131511000Y-36481000D01*
X140449000Y-36521000D02*
X131551000Y-36521000D01*
X140408000Y-36561000D02*
X131592000Y-36561000D01*
X140367000Y-36601000D02*
X131633000Y-36601000D01*
X140325000Y-36641000D02*
X131675000Y-36641000D01*
X140282000Y-36681000D02*
X131718000Y-36681000D01*
X140238000Y-36721000D02*
X131762000Y-36721000D01*
X140194000Y-36761000D02*
X131806000Y-36761000D01*
X140148000Y-36801000D02*
X131852000Y-36801000D01*
X140102000Y-36841000D02*
X131898000Y-36841000D01*
X140055000Y-36881000D02*
X131945000Y-36881000D01*
X140007000Y-36921000D02*
X131993000Y-36921000D01*
X139957000Y-36961000D02*
X132043000Y-36961000D01*
X139907000Y-37001000D02*
X132093000Y-37001000D01*
X139856000Y-37041000D02*
X132144000Y-37041000D01*
X139804000Y-37081000D02*
X132196000Y-37081000D01*
X139750000Y-37121000D02*
X132250000Y-37121000D01*
X139696000Y-37161000D02*
X132304000Y-37161000D01*
X139640000Y-37201000D02*
X132360000Y-37201000D01*
X139583000Y-37241000D02*
X132417000Y-37241000D01*
X139524000Y-37281000D02*
X132476000Y-37281000D01*
X139464000Y-37321000D02*
X132536000Y-37321000D01*
X139402000Y-37361000D02*
X132598000Y-37361000D01*
X139339000Y-37401000D02*
X132661000Y-37401000D01*
X139275000Y-37441000D02*
X132725000Y-37441000D01*
X139208000Y-37481000D02*
X132792000Y-37481000D01*
X139140000Y-37521000D02*
X132860000Y-37521000D01*
X139069000Y-37561000D02*
X132931000Y-37561000D01*
X138996000Y-37601000D02*
X133004000Y-37601000D01*
X138921000Y-37641000D02*
X133079000Y-37641000D01*
X138844000Y-37681000D02*
X133156000Y-37681000D01*
X138764000Y-37721000D02*
X133236000Y-37721000D01*
X138681000Y-37761000D02*
X133319000Y-37761000D01*
X138594000Y-37801000D02*
X133406000Y-37801000D01*
X138504000Y-37841000D02*
X133496000Y-37841000D01*
X138410000Y-37881000D02*
X133590000Y-37881000D01*
X138312000Y-37921000D02*
X133688000Y-37921000D01*
X138209000Y-37961000D02*
X133791000Y-37961000D01*
X138100000Y-38001000D02*
X133900000Y-38001000D01*
X137984000Y-38041000D02*
X134016000Y-38041000D01*
X137861000Y-38081000D02*
X134139000Y-38081000D01*
X137728000Y-38121000D02*
X134272000Y-38121000D01*
X137583000Y-38161000D02*
X134417000Y-38161000D01*
X137422000Y-38201000D02*
X134578000Y-38201000D01*
X137241000Y-38241000D02*
X134759000Y-38241000D01*
X137028000Y-38281000D02*
X134972000Y-38281000D01*
X136757000Y-38321000D02*
X135243000Y-38321000D01*
X136317000Y-38361000D02*
X135683000Y-38361000D01*
X142370000Y-32000000D02*
G75*
G03*
X142370000Y-32000000I-6370000J0D01*
G01*
%TO.C,U304*%
X139940000Y-46000000D02*
X139940000Y-47800000D01*
X139940000Y-46000000D02*
X139940000Y-45200000D01*
X143060000Y-46000000D02*
X143060000Y-46800000D01*
X143060000Y-46000000D02*
X143060000Y-45200000D01*
%TO.C,C301*%
X136640580Y-45510000D02*
X136359420Y-45510000D01*
X136640580Y-44490000D02*
X136359420Y-44490000D01*
%TO.C,U306*%
X139940000Y-71000000D02*
X139940000Y-72800000D01*
X139940000Y-71000000D02*
X139940000Y-70200000D01*
X143060000Y-71000000D02*
X143060000Y-71800000D01*
X143060000Y-71000000D02*
X143060000Y-70200000D01*
%TO.C,R301*%
X141762742Y-48977500D02*
X142237258Y-48977500D01*
X141762742Y-50022500D02*
X142237258Y-50022500D01*
%TO.C,C105*%
X149415748Y-62360000D02*
X146584252Y-62360000D01*
X149415748Y-57140000D02*
X146584252Y-57140000D01*
%TO.C,C306*%
X139490000Y-42150580D02*
X139490000Y-41869420D01*
X140510000Y-42150580D02*
X140510000Y-41869420D01*
%TO.C,C102*%
X149415748Y-49860000D02*
X146584252Y-49860000D01*
X149415748Y-44640000D02*
X146584252Y-44640000D01*
%TO.C,C201*%
X118990000Y-70140580D02*
X118990000Y-69859420D01*
X120010000Y-70140580D02*
X120010000Y-69859420D01*
%TO.C,R308*%
X162540000Y-59300000D02*
X159340000Y-59300000D01*
X160660000Y-62700000D02*
X157460000Y-62700000D01*
%TD*%
M02*
