%TF.GenerationSoftware,KiCad,Pcbnew,7.0.5-1.fc38*%
%TF.CreationDate,2023-06-18T19:22:27-04:00*%
%TF.ProjectId,radome_dish_controller,7261646f-6d65-45f6-9469-73685f636f6e,rev?*%
%TF.SameCoordinates,Original*%
%TF.FileFunction,Soldermask,Bot*%
%TF.FilePolarity,Negative*%
%FSLAX46Y46*%
G04 Gerber Fmt 4.6, Leading zero omitted, Abs format (unit mm)*
G04 Created by KiCad (PCBNEW 7.0.5-1.fc38) date 2023-06-18 19:22:27*
%MOMM*%
%LPD*%
G01*
G04 APERTURE LIST*
G04 Aperture macros list*
%AMRoundRect*
0 Rectangle with rounded corners*
0 $1 Rounding radius*
0 $2 $3 $4 $5 $6 $7 $8 $9 X,Y pos of 4 corners*
0 Add a 4 corners polygon primitive as box body*
4,1,4,$2,$3,$4,$5,$6,$7,$8,$9,$2,$3,0*
0 Add four circle primitives for the rounded corners*
1,1,$1+$1,$2,$3*
1,1,$1+$1,$4,$5*
1,1,$1+$1,$6,$7*
1,1,$1+$1,$8,$9*
0 Add four rect primitives between the rounded corners*
20,1,$1+$1,$2,$3,$4,$5,0*
20,1,$1+$1,$4,$5,$6,$7,0*
20,1,$1+$1,$6,$7,$8,$9,0*
20,1,$1+$1,$8,$9,$2,$3,0*%
G04 Aperture macros list end*
%ADD10C,0.586200*%
%ADD11C,0.836200*%
%ADD12C,0.010000*%
%ADD13C,3.200000*%
%ADD14C,1.020000*%
%ADD15C,2.000000*%
%ADD16R,2.400000X2.400000*%
%ADD17C,2.400000*%
%ADD18RoundRect,0.100000X0.100000X-0.637500X0.100000X0.637500X-0.100000X0.637500X-0.100000X-0.637500X0*%
G04 APERTURE END LIST*
D10*
%TO.C,J106*%
X108013100Y-57280000D02*
G75*
G03*
X108013100Y-57280000I-293100J0D01*
G01*
D11*
X109118100Y-56000000D02*
G75*
G03*
X109118100Y-56000000I-418100J0D01*
G01*
X112118100Y-56000000D02*
G75*
G03*
X112118100Y-56000000I-418100J0D01*
G01*
X109118100Y-53000000D02*
G75*
G03*
X109118100Y-53000000I-418100J0D01*
G01*
X112118100Y-53000000D02*
G75*
G03*
X112118100Y-53000000I-418100J0D01*
G01*
X109118100Y-50000000D02*
G75*
G03*
X109118100Y-50000000I-418100J0D01*
G01*
D12*
X112536200Y-50836200D02*
X110863800Y-50836200D01*
X110863800Y-49163800D01*
X112536200Y-49163800D01*
X112536200Y-50836200D01*
G36*
X112536200Y-50836200D02*
G01*
X110863800Y-50836200D01*
X110863800Y-49163800D01*
X112536200Y-49163800D01*
X112536200Y-50836200D01*
G37*
D10*
%TO.C,J107*%
X108048100Y-68780000D02*
G75*
G03*
X108048100Y-68780000I-293100J0D01*
G01*
D11*
X109153100Y-67500000D02*
G75*
G03*
X109153100Y-67500000I-418100J0D01*
G01*
D12*
X109571200Y-65336200D02*
X107898800Y-65336200D01*
X107898800Y-63663800D01*
X109571200Y-63663800D01*
X109571200Y-65336200D01*
G36*
X109571200Y-65336200D02*
G01*
X107898800Y-65336200D01*
X107898800Y-63663800D01*
X109571200Y-63663800D01*
X109571200Y-65336200D01*
G37*
D10*
%TO.C,J108*%
X99813100Y-68780000D02*
G75*
G03*
X99813100Y-68780000I-293100J0D01*
G01*
D11*
X100918100Y-67500000D02*
G75*
G03*
X100918100Y-67500000I-418100J0D01*
G01*
D12*
X101336200Y-65336200D02*
X99663800Y-65336200D01*
X99663800Y-63663800D01*
X101336200Y-63663800D01*
X101336200Y-65336200D01*
G36*
X101336200Y-65336200D02*
G01*
X99663800Y-65336200D01*
X99663800Y-63663800D01*
X101336200Y-63663800D01*
X101336200Y-65336200D01*
G37*
%TD*%
D13*
%TO.C,REF\u002A\u002A*%
X171000000Y-25000000D03*
%TD*%
D14*
%TO.C,J106*%
X107720000Y-57280000D03*
%TD*%
D13*
%TO.C,REF\u002A\u002A*%
X171000000Y-87000000D03*
%TD*%
D14*
%TO.C,J107*%
X107755000Y-68780000D03*
%TD*%
D15*
%TO.C,U106*%
X125172500Y-30540000D03*
X125172500Y-28000000D03*
X125172500Y-25460000D03*
%TD*%
D16*
%TO.C,C101*%
X165000000Y-37000000D03*
D17*
X170000000Y-37000000D03*
%TD*%
D13*
%TO.C,REF\u002A\u002A*%
X101000000Y-25000000D03*
%TD*%
D14*
%TO.C,J108*%
X99520000Y-68780000D03*
%TD*%
D16*
%TO.C,C104*%
X136000000Y-29500000D03*
D17*
X136000000Y-34500000D03*
%TD*%
D13*
%TO.C,REF\u002A\u002A*%
X101000000Y-87000000D03*
%TD*%
D18*
%TO.C,U101*%
X137950000Y-58862500D03*
X137300000Y-58862500D03*
X136650000Y-58862500D03*
X136000000Y-58862500D03*
X135350000Y-58862500D03*
X134700000Y-58862500D03*
X134050000Y-58862500D03*
X134050000Y-53137500D03*
X134700000Y-53137500D03*
X135350000Y-53137500D03*
X136000000Y-53137500D03*
X136650000Y-53137500D03*
X137300000Y-53137500D03*
X137950000Y-53137500D03*
%TD*%
M02*
