M48
; DRILL file {KiCad 7.0.5-1.fc38} date Sun 18 Jun 2023 07:22:21 PM EDT
; FORMAT={-:-/ absolute / inch / decimal}
; #@! TF.CreationDate,2023-06-18T19:22:21-04:00
; #@! TF.GenerationSoftware,Kicad,Pcbnew,7.0.5-1.fc38
; #@! TF.FileFunction,Plated,1,4,PTH
FMAT,2
INCH
; #@! TA.AperFunction,Plated,PTH,ViaDrill
T1C0.0118
; #@! TA.AperFunction,Plated,PTH,ComponentDrill
T2C0.0394
; #@! TA.AperFunction,Plated,PTH,ComponentDrill
T3C0.0402
; #@! TA.AperFunction,Plated,PTH,ComponentDrill
T4C0.0472
%
G90
G05
T1
X4.1929Y-1.5551
X4.2362Y-2.9512
X4.2362Y-3.0012
X4.2362Y-3.0512
X4.2866Y-1.7321
X4.3878Y-2.9512
X4.3878Y-3.0012
X4.3878Y-3.1512
X4.5276Y-2.7165
X4.5561Y-3.1102
X4.5679Y-1.8307
X4.5679Y-2.1616
X4.5827Y-2.7756
X4.5866Y-1.7126
X4.5866Y-2.0669
X4.5866Y-2.3819
X4.6063Y-2.7953
X4.626Y-2.8528
X4.626Y-3.2283
X4.6516Y-2.8799
X4.685Y-1.4311
X4.686Y-2.0669
X4.686Y-2.3781
X4.7047Y-2.7165
X4.752Y-2.5285
X4.752Y-2.5896
X4.7638Y-2.9331
X4.7638Y-3.0512
X4.7923Y-3.2569
X4.7999Y-2.7691
X4.8022Y-1.9844
X4.8022Y-2.1494
X4.8228Y-2.9921
X4.8307Y-2.7756
X4.8346Y-3.2047
X4.8386Y-2.8071
X4.8435Y-1.8898
X4.8435Y-1.9291
X4.8435Y-2.201
X4.8435Y-2.2404
X4.8533Y-3.2569
X4.8622Y-3.185
X4.8819Y-2.9331
X4.8819Y-3.0512
X4.8976Y-3.1723
X4.9016Y-1.5551
X4.9016Y-1.7126
X4.9016Y-2.7205
X4.9134Y-2.752
X4.9409Y-2.7677
X5.0079Y-3.1457
X5.0157Y-3.0827
X5.0197Y-3.0512
X5.0236Y-2.2441
X5.0285Y-1.752
X5.0354Y-3.1063
X5.0374Y-3.1555
X5.0394Y-1.0236
X5.0472Y-2.7047
X5.0787Y-2.9134
X5.0787Y-3.0512
X5.1181Y-2.7835
X5.1378Y-1.0236
X5.1575Y-2.6378
X5.1772Y-1.9291
X5.1772Y-2.3268
X5.1772Y-2.4213
X5.189Y-1.8346
X5.2047Y-2.9213
X5.2165Y-3.0906
X5.248Y-2.8661
X5.252Y-1.8858
X5.2559Y-2.378
X5.3046Y-3.248
X5.3189Y-2.3701
X5.3543Y-2.0512
X5.3839Y-3.2382
X5.4055Y-2.0512
X5.4308Y-2.6789
X5.4528Y-1.623
X5.4528Y-1.6929
X5.4528Y-2.185
X5.4724Y-1.7717
X5.5Y-2.2598
X5.5Y-2.752
X5.5057Y-2.3757
X5.5118Y-1.6234
X5.5118Y-1.9882
X5.5118Y-2.1152
X5.5118Y-2.4803
X5.5118Y-2.6073
X5.5118Y-2.874
X5.5118Y-2.9724
X5.5155Y-1.8738
X5.5709Y-1.7662
X5.5709Y-1.8558
X5.5709Y-2.1152
X5.5709Y-2.2584
X5.5709Y-2.3479
X5.5709Y-2.6073
X5.5709Y-2.7505
X5.5709Y-2.8401
X5.6083Y-1.7662
X5.6083Y-2.2584
X5.6083Y-2.7505
X5.6102Y-3.1299
X5.623Y-1.9488
X5.623Y-2.0079
X5.623Y-2.4409
X5.623Y-2.5
X5.623Y-2.9331
X5.623Y-2.9921
X5.6299Y-1.8307
X5.6299Y-2.3228
X5.6299Y-2.815
X5.7087Y-1.752
X5.7087Y-1.7913
X5.7087Y-1.8307
X5.7087Y-1.8701
X5.7087Y-2.0276
X5.7087Y-2.0669
X5.7087Y-2.1063
X5.7087Y-2.1457
X5.7087Y-2.185
X5.7087Y-2.2244
X5.7087Y-2.2638
X5.7087Y-2.3031
X5.7087Y-2.3425
X5.7087Y-2.3819
X5.7087Y-2.5197
X5.7087Y-2.5591
X5.7087Y-2.5984
X5.7087Y-2.6378
X5.7087Y-2.6772
X5.7087Y-2.7165
X5.7087Y-2.7559
X5.7087Y-2.7953
X5.7087Y-2.8346
X5.7087Y-3.0118
X5.7087Y-3.0512
X5.7087Y-3.0906
X5.7087Y-3.1299
X5.7087Y-3.1693
X6.0039Y-2.0276
X6.0039Y-2.0669
X6.0039Y-2.1063
X6.0039Y-2.1457
X6.0039Y-2.185
X6.0039Y-2.5197
X6.0039Y-2.5591
X6.0039Y-2.5984
X6.0039Y-2.6378
X6.0039Y-2.6772
X6.0039Y-3.0118
X6.0039Y-3.0512
X6.0039Y-3.0906
X6.0039Y-3.1299
X6.0039Y-3.1693
X6.0236Y-2.0472
X6.0236Y-2.0866
X6.0236Y-2.126
X6.0236Y-2.1654
X6.0236Y-2.5394
X6.0236Y-2.5787
X6.0236Y-2.6181
X6.0236Y-2.6575
X6.0236Y-3.0315
X6.0236Y-3.0709
X6.0236Y-3.1102
X6.0236Y-3.1496
X6.0433Y-2.0276
X6.0433Y-2.0669
X6.0433Y-2.1063
X6.0433Y-2.1457
X6.0433Y-2.185
X6.0433Y-2.5197
X6.0433Y-2.5591
X6.0433Y-2.5984
X6.0433Y-2.6378
X6.0433Y-2.6772
X6.0433Y-3.0118
X6.0433Y-3.0512
X6.0433Y-3.0906
X6.0433Y-3.1299
X6.0433Y-3.1693
X6.063Y-2.0472
X6.063Y-2.0866
X6.063Y-2.126
X6.063Y-2.1654
X6.063Y-2.5394
X6.063Y-2.5787
X6.063Y-2.6181
X6.063Y-2.6575
X6.063Y-3.0315
X6.063Y-3.0709
X6.063Y-3.1102
X6.063Y-3.1496
X6.0827Y-2.0276
X6.0827Y-2.0669
X6.0827Y-2.1063
X6.0827Y-2.1457
X6.0827Y-2.185
X6.0827Y-2.5197
X6.0827Y-2.5591
X6.0827Y-2.5984
X6.0827Y-2.6378
X6.0827Y-2.6772
X6.0827Y-3.0118
X6.0827Y-3.0512
X6.0827Y-3.0906
X6.0827Y-3.1299
X6.0827Y-3.1693
X6.1024Y-1.9425
X6.1024Y-2.0472
X6.1024Y-2.0866
X6.1024Y-2.126
X6.1024Y-2.1654
X6.1024Y-2.437
X6.1024Y-2.5394
X6.1024Y-2.5787
X6.1024Y-2.6181
X6.1024Y-2.6575
X6.1024Y-2.9295
X6.1024Y-3.0315
X6.1024Y-3.0709
X6.1024Y-3.1102
X6.1024Y-3.1496
X6.122Y-2.0276
X6.122Y-2.0669
X6.122Y-2.1063
X6.122Y-2.1457
X6.122Y-2.185
X6.122Y-2.5197
X6.122Y-2.5591
X6.122Y-2.5984
X6.122Y-2.6378
X6.122Y-2.6772
X6.122Y-3.0118
X6.122Y-3.0512
X6.122Y-3.0906
X6.122Y-3.1299
X6.122Y-3.1693
X6.1417Y-1.7717
X6.1417Y-1.811
X6.1417Y-1.8504
X6.1417Y-1.8898
X6.1417Y-2.0472
X6.1417Y-2.0866
X6.1417Y-2.126
X6.1417Y-2.1654
X6.1417Y-2.2638
X6.1417Y-2.3031
X6.1417Y-2.3425
X6.1417Y-2.3819
X6.1417Y-2.5394
X6.1417Y-2.5787
X6.1417Y-2.6181
X6.1417Y-2.6575
X6.1417Y-2.7559
X6.1417Y-2.7953
X6.1417Y-2.8346
X6.1417Y-2.874
X6.1417Y-3.0315
X6.1417Y-3.0709
X6.1417Y-3.1102
X6.1417Y-3.1496
X6.1614Y-1.752
X6.1614Y-1.7913
X6.1614Y-1.8307
X6.1614Y-1.8701
X6.1614Y-1.9094
X6.1614Y-2.0276
X6.1614Y-2.0669
X6.1614Y-2.1063
X6.1614Y-2.1457
X6.1614Y-2.185
X6.1614Y-2.2441
X6.1614Y-2.2835
X6.1614Y-2.3228
X6.1614Y-2.3622
X6.1614Y-2.4016
X6.1614Y-2.5197
X6.1614Y-2.5591
X6.1614Y-2.5984
X6.1614Y-2.6378
X6.1614Y-2.6772
X6.1614Y-2.7362
X6.1614Y-2.7756
X6.1614Y-2.815
X6.1614Y-2.8543
X6.1614Y-2.8937
X6.1614Y-3.0118
X6.1614Y-3.0512
X6.1614Y-3.0906
X6.1614Y-3.1299
X6.1614Y-3.1693
X6.1811Y-0.9055
X6.1811Y-0.9646
X6.1811Y-1.0236
X6.1811Y-1.7717
X6.1811Y-1.811
X6.1811Y-1.8504
X6.1811Y-1.8898
X6.1811Y-2.2638
X6.1811Y-2.3031
X6.1811Y-2.3425
X6.1811Y-2.3819
X6.1811Y-2.7559
X6.1811Y-2.7953
X6.1811Y-2.8346
X6.1811Y-2.874
X6.2008Y-1.752
X6.2008Y-1.7913
X6.2008Y-1.8307
X6.2008Y-1.8701
X6.2008Y-1.9094
X6.2008Y-2.2441
X6.2008Y-2.2835
X6.2008Y-2.3228
X6.2008Y-2.3622
X6.2008Y-2.4016
X6.2008Y-2.7362
X6.2008Y-2.7756
X6.2008Y-2.815
X6.2008Y-2.8543
X6.2008Y-2.8937
X6.2106Y-0.935
X6.2106Y-0.9941
X6.2205Y-1.7717
X6.2205Y-1.811
X6.2205Y-1.8504
X6.2205Y-1.8898
X6.2205Y-2.2638
X6.2205Y-2.3031
X6.2205Y-2.3425
X6.2205Y-2.3819
X6.2205Y-2.7559
X6.2205Y-2.7953
X6.2205Y-2.8346
X6.2205Y-2.874
X6.2402Y-0.9055
X6.2402Y-0.9646
X6.2402Y-1.0236
X6.2402Y-1.752
X6.2402Y-1.7913
X6.2402Y-1.8307
X6.2402Y-1.8701
X6.2402Y-1.9094
X6.2402Y-2.0313
X6.2402Y-2.0866
X6.2402Y-2.2441
X6.2402Y-2.2835
X6.2402Y-2.3228
X6.2402Y-2.3622
X6.2402Y-2.4016
X6.2402Y-2.5234
X6.2402Y-2.5787
X6.2402Y-2.7362
X6.2402Y-2.7756
X6.2402Y-2.815
X6.2402Y-2.8543
X6.2402Y-2.8937
X6.2402Y-3.0156
X6.2402Y-3.0709
X6.2598Y-1.7717
X6.2598Y-1.811
X6.2598Y-1.8504
X6.2598Y-1.8898
X6.2598Y-2.2638
X6.2598Y-2.3031
X6.2598Y-2.3425
X6.2598Y-2.3819
X6.2598Y-2.7559
X6.2598Y-2.7953
X6.2598Y-2.8346
X6.2598Y-2.874
X6.2697Y-0.935
X6.2697Y-0.9941
X6.2795Y-1.752
X6.2795Y-1.7913
X6.2795Y-1.8307
X6.2795Y-2.0276
X6.2795Y-2.2835
X6.2795Y-2.3228
X6.2795Y-2.5197
X6.2795Y-2.7756
X6.2795Y-2.815
X6.2795Y-3.0118
X6.2988Y-2.3014
X6.2992Y-0.9055
X6.2992Y-0.9646
X6.2992Y-1.0236
X6.2992Y-1.7717
X6.2992Y-1.811
X6.2992Y-2.7953
X6.3189Y-1.7918
X6.3189Y-1.752
X6.3189Y-2.2835
X6.3189Y-2.7756
X6.3287Y-0.935
X6.3287Y-0.9941
X6.3383Y-2.3025
X6.3386Y-1.7717
X6.3386Y-1.811
X6.3386Y-2.7953
X6.3583Y-0.9055
X6.3583Y-0.9646
X6.3583Y-1.0236
X6.3583Y-1.752
X6.3583Y-1.7913
X6.3583Y-2.2835
X6.3583Y-2.7756
X6.378Y-1.7717
X6.378Y-1.811
X6.378Y-2.3031
X6.378Y-2.7953
X6.3878Y-0.935
X6.3878Y-0.9941
X6.3976Y-1.752
X6.3976Y-1.7913
X6.3976Y-2.2835
X6.3976Y-2.7756
X6.4173Y-2.7953
X6.4173Y-0.9055
X6.4173Y-0.9646
X6.4173Y-1.0236
X6.4173Y-1.7717
X6.4173Y-1.811
X6.4173Y-2.3031
X6.437Y-1.752
X6.437Y-1.7913
X6.4469Y-0.935
X6.4469Y-0.9941
X6.4764Y-0.9055
X6.4764Y-0.9646
X6.4764Y-1.0236
X6.4764Y-1.8594
X6.4764Y-2.3516
X6.4764Y-2.8437
X6.5059Y-0.935
X6.5059Y-0.9941
X6.5354Y-0.9055
X6.5354Y-0.9646
X6.5354Y-1.0236
T2
X4.9281Y-1.0024
X4.9281Y-1.1024
X4.9281Y-1.2024
T3
X3.9567Y-2.5394
X3.9567Y-2.6575
X4.2795Y-1.9685
X4.2795Y-2.0866
X4.2795Y-2.2047
X4.2809Y-2.5394
X4.2809Y-2.6575
X4.3976Y-1.9685
X4.3976Y-2.0866
X4.3976Y-2.2047
T4
X5.3543Y-1.1614
X5.3543Y-1.3583
X6.4961Y-1.4567
X6.6929Y-1.4567
T0
M30
